<svg width="264" height="59" viewBox="0 0 264 59" fill="none" xmlns="http://www.w3.org/2000/svg">
<path fill-rule="evenodd" clip-rule="evenodd" d="M91.7394 47.1075C83.3552 53.2954 71.2009 56.5852 60.7347 56.5852C46.0659 56.5852 32.8567 51.1626 22.8614 42.137C22.0765 41.4279 22.7768 40.4596 23.7201 41.009C34.5043 47.2841 47.8414 51.0638 61.6157 51.0638C70.9072 51.0638 81.1217 49.1347 90.5208 45.1487C91.9377 44.5485 93.1265 46.0838 91.7394 47.1075Z" fill="#FF9900"/>
<path fill-rule="evenodd" clip-rule="evenodd" d="M95.2276 43.1256C94.1552 41.7527 88.1399 42.4747 85.4367 42.7988C84.618 42.8976 84.4908 42.1817 85.2283 41.6634C90.0277 38.2931 97.8909 39.2661 98.805 40.3947C99.7259 41.5335 98.5635 49.4169 94.0659 53.179C93.3743 53.7575 92.716 53.449 93.0225 52.6851C94.0354 50.1572 96.3008 44.4992 95.2276 43.1256Z" fill="#FF9900"/>
<path fill-rule="evenodd" clip-rule="evenodd" d="M85.6283 17.852V14.5764C85.631 14.0777 86.0059 13.7455 86.4592 13.7468L101.139 13.7455C101.608 13.7455 101.985 14.0865 101.985 14.5717V17.381C101.981 17.8527 101.583 18.467 100.88 19.4427L93.2756 30.2993C96.0979 30.233 99.0845 30.6559 101.649 32.0978C102.227 32.4219 102.382 32.903 102.428 33.3753V36.8708C102.428 37.3519 101.9 37.9094 101.346 37.6185C96.8286 35.2523 90.8323 34.9938 85.836 37.6483C85.3259 37.9196 84.792 37.3708 84.792 36.8884V33.5668C84.792 33.035 84.8021 32.1256 85.3387 31.3156L94.1485 18.6768L86.4782 18.6761C86.0072 18.6768 85.631 18.3425 85.6283 17.852Z" fill="black"/>
<path fill-rule="evenodd" clip-rule="evenodd" d="M32.081 38.308H27.6145C27.1896 38.2796 26.8506 37.9609 26.8154 37.5529L26.8188 14.6326C26.8188 14.1738 27.2038 13.8078 27.6802 13.8078L31.8394 13.8064C32.2745 13.8287 32.6237 14.1576 32.6507 14.5764V17.5685H32.7346C33.8186 14.6745 35.8614 13.324 38.6119 13.324C41.405 13.324 43.1561 14.6752 44.4066 17.5685C45.4912 14.6745 47.9501 13.324 50.5768 13.324C52.4524 13.324 54.4959 14.096 55.7463 15.8323C57.1632 17.762 56.8729 20.5585 56.8729 23.0188L56.8688 37.4839C56.8688 37.9413 56.4838 38.3087 56.0075 38.3087H51.5471C51.0985 38.2796 50.746 37.925 50.746 37.4852L50.7446 25.3342C50.7446 24.3707 50.8278 21.9585 50.6187 21.0423C50.2852 19.4983 49.2851 19.0639 47.9934 19.0639C46.9088 19.0639 45.7828 19.7872 45.3241 20.9449C44.866 22.1026 44.9073 24.0317 44.9073 25.3342V37.4846C44.9073 37.942 44.5223 38.3094 44.0466 38.3094H39.5855C39.1369 38.2803 38.7837 37.9257 38.7837 37.4859L38.7797 25.3349C38.7797 22.7786 39.1965 19.0172 36.0292 19.0172C32.8185 19.0172 32.9437 22.6825 32.9437 25.3349L32.9424 37.4852C32.943 37.9413 32.5567 38.308 32.081 38.308Z" fill="black"/>
<path fill-rule="evenodd" clip-rule="evenodd" d="M114.622 13.324C121.25 13.324 124.834 19.0165 124.834 26.2504C124.834 33.2434 120.874 38.7911 114.622 38.7911C108.118 38.7911 104.574 33.0986 104.574 26.0088C104.574 18.8703 108.16 13.324 114.622 13.324ZM114.662 18.0029C111.369 18.0029 111.161 22.4876 111.161 25.2855C111.161 28.0827 111.12 34.0635 114.622 34.0635C118.083 34.0635 118.248 29.2404 118.248 26.2991C118.248 24.37 118.165 22.0546 117.58 20.2209C117.08 18.6295 116.079 18.0029 114.662 18.0029Z" fill="black"/>
<path fill-rule="evenodd" clip-rule="evenodd" d="M133.431 38.308H128.981C128.534 38.2789 128.179 37.9243 128.179 37.4845L128.172 14.5554C128.21 14.1359 128.58 13.8077 129.03 13.8077L133.172 13.8064C133.563 13.8267 133.884 14.0926 133.966 14.4478V17.9541H134.05C135.302 14.8179 137.051 13.3232 140.136 13.3232C142.137 13.3232 144.097 14.0466 145.347 16.025C146.514 17.8574 146.514 20.9442 146.514 23.1629V37.586C146.465 37.992 146.1 38.3073 145.658 38.3073H141.182C140.769 38.2809 140.435 37.9771 140.387 37.586V25.1413C140.387 22.6331 140.679 18.967 137.594 18.967C136.509 18.967 135.509 19.6904 135.009 20.7994C134.383 22.1987 134.299 23.5966 134.299 25.1413V37.4831C134.293 37.9412 133.907 38.308 133.431 38.308Z" fill="black"/>
<path fill-rule="evenodd" clip-rule="evenodd" d="M73.9263 27.362C73.9263 29.103 73.9676 30.5524 73.09 32.0998C72.3802 33.3557 71.2516 34.1297 69.9991 34.1297C68.2866 34.1297 67.2838 32.8238 67.2838 30.8907C67.2838 27.0873 70.6954 26.3958 73.927 26.3958L73.9263 27.362ZM78.428 38.2511C78.133 38.517 77.7067 38.534 77.3731 38.3546C75.8906 37.1225 75.6247 36.5528 74.8134 35.3795C72.3619 37.8763 70.6264 38.626 67.4503 38.626C63.6909 38.626 60.7658 36.3051 60.7658 31.6648C60.7658 28.04 62.7294 25.5751 65.5286 24.3659C67.951 23.3022 71.3355 23.1094 73.9263 22.8184V22.2386C73.9263 21.1749 74.0095 19.9191 73.3823 19.0002C72.839 18.1781 71.7949 17.8398 70.8754 17.8398C69.1723 17.8398 67.6587 18.7126 67.2858 20.5213C67.2087 20.9239 66.915 21.3224 66.5104 21.3427L62.182 20.8738C61.8159 20.7913 61.4099 20.4983 61.5148 19.94C62.5108 14.6894 67.2527 13.1033 71.5019 13.1033C73.6753 13.1033 76.5151 13.6819 78.2284 15.3268C80.4017 17.3567 80.192 20.0645 80.192 23.0133V29.9698C80.192 32.0633 81.0614 32.9808 81.8774 34.1081C82.163 34.5154 82.2266 34.9972 81.8626 35.2949C80.9505 36.0602 79.3299 37.4676 78.4381 38.2613L78.428 38.2511Z" fill="black"/>
<path fill-rule="evenodd" clip-rule="evenodd" d="M15.3812 27.3621C15.3812 29.103 15.4231 30.5524 14.5462 32.0998C13.8371 33.3557 12.7078 34.1297 11.4547 34.1297C9.74209 34.1297 8.73932 32.8238 8.73932 30.8907C8.73932 27.0873 12.1516 26.3958 15.3812 26.3958V27.3621ZM19.8842 38.2511C19.5892 38.517 19.1622 38.534 18.8293 38.3547C17.3454 37.1225 17.0795 36.5528 16.2696 35.3795C13.8175 37.8763 12.0819 38.626 8.90713 38.626C5.14707 38.626 2.22266 36.3051 2.22266 31.6648C2.22266 28.04 4.18557 25.5751 6.98549 24.3659C9.40851 23.3022 12.793 23.1094 15.3818 22.8185V22.2386C15.3818 21.1749 15.4664 19.9191 14.8399 19.0002C14.2958 18.1781 13.2518 17.8398 12.3329 17.8398C10.6292 17.8398 9.11418 18.7126 8.74338 20.5213C8.66557 20.9239 8.37259 21.3224 7.96728 21.3427L3.63953 20.8738C3.27279 20.7906 2.86614 20.4983 2.97169 19.9394C3.96634 14.6887 8.7082 13.1027 12.9588 13.1027C15.1315 13.1027 17.9727 13.6812 19.6852 15.3261C21.8572 17.356 21.6488 20.0639 21.6488 23.0126V29.9691C21.6488 32.0626 22.5176 32.9801 23.3336 34.1074C23.6185 34.5148 23.6835 34.9965 23.3194 35.2942C22.4067 36.0595 20.7854 37.4669 19.8943 38.2606L19.8842 38.2511Z" fill="black"/>
<path d="M167.21 38.3175L156.804 25.7023H156.754V38.3175H153.012V2.01062H156.754V22.6256H156.804L165.724 14.0615H170.593L159.931 23.9586L171.977 38.3175H167.21Z" fill="#FF9900"/>
<path d="M176.334 8.98466C174.898 8.98466 173.72 7.80528 173.72 6.36946C173.72 4.93297 174.898 3.75427 176.334 3.75427C177.769 3.75427 178.947 4.93297 178.947 6.36946C178.947 7.80528 177.769 8.98466 176.334 8.98466ZM174.488 38.3174V14.0614H178.229V38.3174H174.488Z" fill="#FF9900"/>
<path d="M199.258 38.3174V23.3949C199.258 20.369 198.746 16.9845 195.055 16.9845C192.081 16.9845 189.365 19.0868 187.52 20.6775V38.3181H183.778V14.0614H186.854L187.367 16.9845C190.031 14.9336 192.646 13.4464 196.03 13.4464C199.514 13.4464 203 15.9587 203 22.0105V38.3181L199.258 38.3174Z" fill="#FF9900"/>
<path d="M219.503 38.8304C212.738 38.8304 207.048 34.8822 207.048 26.5231C207.048 18.9853 212.481 13.4464 219.554 13.4464C221.296 13.4464 222.528 13.6 223.501 13.8565V2.01062H227.243V37.0867C225.757 37.9588 222.938 38.8304 219.503 38.8304ZM223.502 17.3438C222.529 16.9845 221.656 16.7288 219.76 16.7288C214.993 16.7288 210.841 20.4726 210.841 26.2673C210.841 31.7541 213.866 35.6515 220.17 35.6515C221.399 35.6515 222.733 35.3951 223.502 35.0365V17.3438Z" fill="#FF9900"/>
<path d="M236.983 38.8304C234.009 38.8304 232.729 36.9331 232.729 34.3686V2.01062H236.47V32.6764C236.47 34.9837 237.034 35.4458 238.469 35.4458C238.726 35.4458 239.136 35.4458 239.751 35.2922L240.213 38.0103C239.084 38.5739 238.213 38.8304 236.983 38.8304Z" fill="#FF9900"/>
<path d="M246.259 26.8309C246.259 31.4462 248.924 35.5987 254.152 35.5987C256.357 35.5987 258.612 34.7279 260.047 33.8049L261.226 36.4709C259.432 37.7017 256.357 38.8296 253.691 38.8296C245.951 38.8296 242.26 32.6249 242.26 25.7016C242.26 18.6761 246.258 13.4457 252.101 13.4457C258.355 13.4457 261.789 18.4203 261.789 25.9587C261.789 26.2151 261.789 26.5223 261.789 26.8309H246.259ZM252.153 16.6259C248.565 16.6259 246.309 19.8054 246.309 23.6514H257.74C257.74 20.2668 255.844 16.6259 252.153 16.6259Z" fill="#FF9900"/>
</svg>
