<svg width="23" height="22" viewBox="0 0 23 22" fill="none" xmlns="http://www.w3.org/2000/svg">
<path d="M11.414 22.002C12.306 22.002 13.188 21.986 14.058 21.956C18.566 21.797 22.21 18.153 22.369 13.645C22.4 12.775 22.415 11.893 22.415 11.001C22.415 10.109 22.399 9.22695 22.369 8.35695C22.21 3.84895 18.566 0.204951 14.058 0.0459512C13.188 0.0149511 12.306 -4.82036e-05 11.414 -4.81646e-05C10.522 -4.81256e-05 9.64005 0.0159508 8.77005 0.0459515C4.26105 0.204952 0.617048 3.84895 0.458048 8.35795C0.427048 9.22795 0.412048 10.11 0.412048 11.002C0.412048 11.894 0.428048 12.776 0.458048 13.646C0.617048 18.153 4.26105 21.797 8.77005 21.955C9.64005 21.986 10.522 22.002 11.414 22.002ZM6.79405 15.281C6.40005 14.856 6.42505 14.191 6.85105 13.798L12.915 8.17895L9.29005 7.80795C9.02605 7.78095 8.79405 7.65795 8.62705 7.47695C8.42905 7.26395 8.32005 6.96895 8.35305 6.65595C8.41205 6.07995 8.92705 5.65995 9.50405 5.71995L15.102 6.29595C15.46 6.30695 15.791 6.45695 16.034 6.71995C16.276 6.98095 16.401 7.32195 16.386 7.60695L16.533 13.307C16.549 13.887 16.09 14.369 15.512 14.384C15.197 14.392 14.912 14.261 14.714 14.048C14.547 13.868 14.442 13.628 14.435 13.362L14.343 9.71895L8.27805 15.338C7.85305 15.732 7.18805 15.706 6.79405 15.281Z" fill="white"/>
</svg>
