<svg width="127" height="127" viewBox="0 0 127 127" fill="none" xmlns="http://www.w3.org/2000/svg">
<path d="M64.4906 8.08234C64.594 8.07956 64.7132 8.08309 64.8485 8.09295C64.988 8.09818 65.1008 8.10864 65.1866 8.12432L65.0835 10.0567C65.0155 10.0361 64.9184 10.0229 64.7923 10.0173C64.6706 10.0071 64.5648 10.0032 64.4749 10.0056C64.2097 10.0128 63.9522 10.0534 63.7023 10.1276C63.4569 10.2017 63.2374 10.3178 63.0437 10.476C62.85 10.6296 62.698 10.8316 62.5878 11.082C62.4819 11.3277 62.4338 11.6281 62.4434 11.9832L62.5467 15.8194L60.4904 15.8748L60.2874 8.33723L61.8448 8.29529L62.1823 9.55462L62.2834 9.55189C62.4249 9.2917 62.6028 9.05301 62.8174 8.83583C63.0363 8.61404 63.2857 8.4364 63.5654 8.30292C63.8496 8.16483 64.158 8.0913 64.4906 8.08234Z" fill="black"/>
<path d="M54.3173 8.94017C55.0038 8.81966 55.6183 8.84873 56.161 9.02737C56.7028 9.20158 57.1528 9.51519 57.5108 9.96819C57.8688 10.4212 58.1111 11.0086 58.2379 11.7305L58.4104 12.7136L53.6209 13.5545C53.7434 14.1219 53.9928 14.5414 54.3692 14.8132C54.7492 15.0797 55.2249 15.1628 55.7962 15.0625C56.27 14.9793 56.6955 14.8544 57.0725 14.6878C57.4496 14.5212 57.8291 14.3039 58.2112 14.036L58.4864 15.6037C58.1507 15.8498 57.7888 16.0503 57.4005 16.2052C57.0167 16.3593 56.5392 16.4865 55.9679 16.5868C55.2239 16.7174 54.5399 16.696 53.916 16.5225C53.2965 16.3482 52.7735 16.0086 52.3471 15.5037C51.9251 14.998 51.639 14.3178 51.489 13.4631C51.3366 12.5951 51.356 11.8476 51.5472 11.2205C51.7421 10.5883 52.0778 10.082 52.5542 9.70163C53.0299 9.31683 53.6176 9.06301 54.3173 8.94017ZM54.5837 10.3793C54.1896 10.4485 53.884 10.6323 53.667 10.9306C53.4545 11.2281 53.3757 11.6505 53.4307 12.1978L56.2739 11.6987C56.2166 11.3983 56.1142 11.1401 55.9667 10.924C55.8236 10.7072 55.636 10.5484 55.4037 10.4477C55.1759 10.3461 54.9026 10.3234 54.5837 10.3793Z" fill="black"/>
<path d="M49.7534 11.6124L48.0584 12.1576L49.8946 17.8654L47.9363 18.4953L46.1002 12.7876L45.0216 13.1345L44.718 12.1907L45.6272 11.3173L45.4579 10.7908C45.261 10.1787 45.2109 9.67057 45.3075 9.26633C45.4071 8.85644 45.6232 8.52243 45.9558 8.26429C46.2913 8.00049 46.718 7.78529 47.236 7.61869C47.6169 7.49614 47.9739 7.41672 48.3071 7.38041C48.6388 7.33982 48.9155 7.32637 49.1372 7.34008L49.099 8.93936C48.9341 8.94047 48.7577 8.94999 48.5698 8.96792C48.3819 8.98585 48.1745 9.0313 47.9477 9.10428C47.6737 9.1924 47.4994 9.34058 47.4247 9.54882C47.3529 9.7514 47.3583 9.9811 47.4409 10.2379L47.5855 10.6873L49.2805 10.1421L49.7534 11.6124Z" fill="black"/>
<path d="M44.1699 13.4502L42.5441 14.1763L44.9891 19.651L43.1108 20.4898L40.6658 15.0151L39.6312 15.4772L39.227 14.5719L40.036 13.6049L39.8105 13.0999C39.5483 12.5128 39.4433 12.0131 39.4955 11.6008C39.55 11.1825 39.7286 10.827 40.0312 10.5343C40.3361 10.2356 40.7369 9.97535 41.2337 9.7535C41.599 9.59032 41.9453 9.47259 42.2725 9.40033C42.5979 9.32396 42.8715 9.28055 43.0934 9.27011L43.2291 10.8641C43.0652 10.8831 42.8909 10.9117 42.7061 10.9499C42.5212 10.9882 42.32 11.0559 42.1024 11.153C41.8397 11.2704 41.6825 11.4366 41.6308 11.6517C41.5814 11.8609 41.6117 12.0887 41.7218 12.335L41.9143 12.7661L43.5401 12.04L44.1699 13.4502Z" fill="black"/>
<path d="M38.4516 17.1056C38.8721 17.7385 39.1767 18.3675 39.3652 18.9926C39.5513 19.6139 39.6077 20.2188 39.5344 20.8073C39.4649 21.3933 39.252 21.9504 38.8957 22.4786C38.537 23.0031 38.0224 23.488 37.352 23.9333C36.6817 24.3787 36.0352 24.6651 35.4127 24.7926C34.7878 24.9163 34.1898 24.8979 33.619 24.7373C33.0518 24.5743 32.5167 24.2847 32.0135 23.8687C31.5104 23.4526 31.0473 22.9262 30.6243 22.2896C30.0595 21.4394 29.7067 20.6077 29.5658 19.7944C29.4262 18.9748 29.531 18.1981 29.8801 17.4641C30.2292 16.7302 30.8513 16.0659 31.7464 15.4712C32.6377 14.879 33.4856 14.5668 34.29 14.5344C35.0981 14.4995 35.851 14.7065 36.5486 15.1553C37.25 15.6016 37.8844 16.2517 38.4516 17.1056ZM32.4575 21.0878C32.8382 21.6608 33.2378 22.1079 33.6563 22.4291C34.0761 22.744 34.5141 22.9118 34.9705 22.9325C35.4244 22.9494 35.8948 22.7962 36.3817 22.4727C36.876 22.1443 37.2034 21.7676 37.3637 21.3426C37.5215 20.9139 37.5328 20.4475 37.3977 19.9435C37.2638 19.4332 37.0066 18.8916 36.6259 18.3186C36.0536 17.4572 35.4422 16.8863 34.7917 16.6059C34.1412 16.3255 33.4471 16.4304 32.7093 16.9206C32.2186 17.2465 31.8926 17.6251 31.731 18.0563C31.5707 18.4813 31.5556 18.9502 31.6857 19.4629C31.8171 19.9694 32.0744 20.5111 32.4575 21.0878Z" fill="black"/>
<path d="M29.6407 30.1048L28.2286 31.6007L20.5973 24.397L22.0093 22.9011L29.6407 30.1048Z" fill="black"/>
<path d="M20.9744 28.4693L26.8806 33.1567L25.6019 34.768L19.6956 30.0805L20.9744 28.4693ZM18.0232 27.4358C18.2132 27.1964 18.4331 27.035 18.6828 26.9519C18.9289 26.866 19.2034 26.9432 19.5063 27.1836C19.8057 27.4212 19.945 27.6724 19.9243 27.9372C19.9 28.1992 19.7928 28.45 19.6028 28.6895C19.4099 28.9325 19.1886 29.0956 18.939 29.1787C18.6886 29.2555 18.4137 29.1751 18.1143 28.9375C17.8114 28.6971 17.6725 28.4491 17.6975 28.1934C17.7217 27.9314 17.8303 27.6789 18.0232 27.4358Z" fill="black"/>
<path d="M16.1556 35.0226C16.6784 34.1565 17.2678 33.6063 17.9239 33.3721C18.58 33.1379 19.293 33.2531 20.0628 33.7179L24.3645 36.3144L23.6221 37.5443L22.5388 37.3552L22.511 37.4014C22.6304 37.7256 22.7052 38.0281 22.7353 38.3088C22.7654 38.5896 22.7395 38.876 22.6578 39.168C22.576 39.4601 22.4271 39.7851 22.211 40.1431C21.981 40.5242 21.7011 40.8226 21.3712 41.0384C21.0437 41.2504 20.6775 41.3524 20.2727 41.3443C19.8641 41.334 19.4268 41.1882 18.9611 40.9071C18.2759 40.4935 17.9168 39.9485 17.8839 39.2722C17.8472 38.5935 18.1019 37.7625 18.6482 36.7793L19.2897 35.6382L19.0068 35.4674C18.668 35.2629 18.3663 35.2016 18.1016 35.2834C17.8369 35.3652 17.6093 35.5639 17.4187 35.8796C17.2305 36.1914 17.0901 36.5241 16.9973 36.8778C16.9046 37.2315 16.835 37.5991 16.7885 37.9807L15.247 37.8459C15.2729 37.3941 15.3617 36.9251 15.5134 36.439C15.6673 35.9489 15.8814 35.4768 16.1556 35.0226ZM20.3175 36.2586L19.9293 36.9539C19.6008 37.5329 19.4635 37.9909 19.5173 38.328C19.5735 38.6613 19.7556 38.9209 20.0635 39.1068C20.333 39.2694 20.5731 39.3067 20.7838 39.2186C20.9907 39.1281 21.1709 38.9559 21.3242 38.7018C21.5519 38.3246 21.632 37.9396 21.5644 37.547C21.4992 37.1504 21.2606 36.8279 20.8487 36.5792L20.3175 36.2586Z" fill="black"/>
<path d="M18.8426 47.0581L10.7743 46.9438L11.5687 44.9444L16.0993 45.177C16.3632 45.1947 16.6329 45.2342 16.9086 45.2953C17.1859 45.3523 17.4303 45.4131 17.6417 45.4778L17.6616 45.4276C17.4451 45.3271 17.2207 45.204 16.9882 45.0584C16.7574 44.9087 16.5408 44.7476 16.3384 44.5752L12.8812 41.6413L13.6757 39.6418L19.6221 45.0962L18.8426 47.0581Z" fill="black"/>
<path d="M17.3101 51.746L14.8674 51.9774L14.149 55.4997L16.3058 56.6693L15.8555 58.8765L6.85002 53.4877L7.36092 50.9831L17.7603 49.5388L17.3101 51.746ZM13.0495 52.1159L10.6598 52.3581C10.501 52.3716 10.2972 52.392 10.0484 52.4193C9.79617 52.4412 9.54124 52.4649 9.28365 52.4904C9.02256 52.5106 8.79721 52.5242 8.60759 52.5315C8.77923 52.6124 8.99134 52.7199 9.2439 52.854C9.49296 52.9828 9.72925 53.1067 9.95277 53.2257C10.1763 53.3448 10.3356 53.43 10.4306 53.4815L12.5359 54.6337L13.0495 52.1159Z" fill="black"/>
<path d="M8.11757 63.4641C8.1142 63.3608 8.11706 63.2415 8.12615 63.1062C8.1306 62.9666 8.14042 62.8538 8.15562 62.7679L10.0886 62.8601C10.0683 62.9282 10.0557 63.0254 10.0508 63.1515C10.0413 63.2733 10.038 63.3791 10.0409 63.469C10.0496 63.7341 10.0917 63.9914 10.1673 64.2409C10.2428 64.4858 10.3601 64.7047 10.5193 64.8974C10.6741 65.0904 10.8769 65.2412 11.1279 65.35C11.3742 65.4544 11.6749 65.5009 12.0299 65.4893L15.8655 65.3643L15.9325 67.4203L8.39618 67.6658L8.34544 66.1087L9.60285 65.7641L9.59955 65.663C9.33857 65.523 9.09888 65.3464 8.88049 65.133C8.65746 64.9154 8.47842 64.667 8.34336 64.388C8.20367 64.1046 8.1284 63.7967 8.11757 63.4641Z" fill="black"/>
<path d="M9.0322 73.6323C8.90782 72.9465 8.93342 72.3319 9.10899 71.7882C9.28015 71.2454 9.59121 70.7937 10.0422 70.4331C10.4932 70.0726 11.0792 69.8269 11.8004 69.6961L12.7825 69.518L13.6503 74.3027C14.217 74.177 14.6352 73.9252 14.9048 73.5473C15.1692 73.1658 15.2496 72.6897 15.1461 72.1189C15.0603 71.6456 14.9329 71.2208 14.7642 70.8447C14.5955 70.4686 14.376 70.0903 14.1059 69.7097L15.6721 69.4257C15.9201 69.76 16.1226 70.1208 16.2797 70.5082C16.436 70.8911 16.5659 71.3679 16.6694 71.9386C16.8042 72.6819 16.7866 73.3659 16.6166 73.9908C16.4458 74.6113 16.1092 75.1362 15.6067 75.5655C15.1034 75.9903 14.4249 76.2802 13.571 76.4351C12.7039 76.5924 11.9563 76.5772 11.3282 76.3895C10.6949 76.1982 10.1867 75.8654 9.8036 75.3911C9.41612 74.9176 9.15899 74.3313 9.0322 73.6323ZM10.4698 73.3578C10.5413 73.7516 10.7267 74.0561 11.0263 74.2714C11.325 74.4822 11.7478 74.5586 12.2948 74.5005L11.7796 71.6603C11.4796 71.7192 11.2219 71.8231 11.0067 71.9718C10.7907 72.1161 10.633 72.3046 10.5335 72.5374C10.4333 72.7658 10.4121 73.0393 10.4698 73.3578Z" fill="black"/>
<path d="M11.7304 78.1812L12.2853 79.8731L17.9826 78.0048L18.6235 79.9594L12.9262 81.8277L13.2793 82.9044L12.3372 83.2133L11.4586 82.309L10.9331 82.4813C10.3222 82.6817 9.8143 82.7346 9.40953 82.6403C8.99908 82.543 8.66385 82.3288 8.40384 81.9976C8.13815 81.6636 7.92055 81.2381 7.75102 80.7212C7.62633 80.3409 7.54489 79.9843 7.5067 79.6514C7.46424 79.3199 7.44923 79.0433 7.46169 78.8216L9.06116 78.8507C9.0632 79.0156 9.07371 79.192 9.0927 79.3798C9.11169 79.5676 9.15832 79.7747 9.23257 80.0011C9.32224 80.2745 9.4714 80.448 9.68006 80.5216C9.88304 80.5922 10.1127 80.5855 10.3691 80.5015L10.8177 80.3543L10.2628 78.6625L11.7304 78.1812Z" fill="black"/>
<path d="M13.5994 83.7539L14.3346 85.3755L19.7954 82.8997L20.6448 84.7732L15.184 87.249L15.6519 88.281L14.749 88.6904L13.7774 87.8868L13.2737 88.1152C12.6881 88.3807 12.189 88.4885 11.7764 88.4386C11.3578 88.3865 11.0013 88.2099 10.7068 87.909C10.4065 87.6058 10.1439 87.2064 9.91929 86.7109C9.75405 86.3465 9.63437 86.0008 9.56026 85.674C9.48206 85.3491 9.43711 85.0757 9.42542 84.854L11.0186 84.7092C11.0385 84.873 11.0681 85.0472 11.1074 85.2318C11.1467 85.4164 11.2155 85.6172 11.3139 85.8343C11.4327 86.0963 11.5998 86.2526 11.8152 86.303C12.0247 86.3512 12.2523 86.3197 12.498 86.2083L12.928 86.0133L12.1927 84.3917L13.5994 83.7539Z" fill="black"/>
<path d="M17.2875 89.4515C17.918 89.0274 18.5453 88.7193 19.1693 88.5273C19.7896 88.3377 20.3941 88.2779 20.983 88.3478C21.5694 88.4141 22.1277 88.6238 22.6579 88.9771C23.1844 89.3328 23.6722 89.8447 24.1213 90.5125C24.5705 91.1804 24.8605 91.8252 24.9915 92.4469C25.1187 93.0712 25.1037 93.6692 24.9463 94.241C24.7865 94.8091 24.5 95.3458 24.0868 95.8513C23.6735 96.3568 23.1498 96.8228 22.5155 97.2494C21.6686 97.819 20.8389 98.1765 20.0264 98.322C19.2076 98.4662 18.4303 98.3658 17.6944 98.0209C16.9585 97.6759 16.2907 97.0576 15.691 96.1659C15.0938 95.2779 14.7767 94.4318 14.7398 93.6276C14.7003 92.8196 14.9031 92.0656 15.3479 91.3654C15.7903 90.6616 16.4368 90.0236 17.2875 89.4515ZM21.3035 95.423C21.8743 95.0391 22.3191 94.637 22.6379 94.2167C22.9505 93.7952 23.1158 93.3561 23.1339 92.8996C23.1483 92.4457 22.9924 91.9761 22.6662 91.4911C22.335 90.9986 21.9564 90.6734 21.5305 90.5155C21.1009 90.3601 20.6345 90.3514 20.1312 90.4894C19.6217 90.6261 19.0816 90.8864 18.5107 91.2703C17.6526 91.8475 17.0852 92.4621 16.8085 93.1142C16.5317 93.7662 16.6406 94.4598 17.1349 95.1948C17.4636 95.6836 17.844 96.0075 18.2761 96.1666C18.702 96.3245 19.1709 96.337 19.683 96.204C20.1887 96.0697 20.7289 95.8094 21.3035 95.423Z" fill="black"/>
<path d="M30.3367 98.1894L31.8405 99.593L24.6799 107.265L23.1761 105.861L30.3367 98.1894Z" fill="black"/>
<path d="M28.7491 106.864L33.4032 100.932L35.0216 102.201L30.3676 108.134L28.7491 106.864ZM27.7324 109.821C27.4918 109.633 27.3292 109.414 27.2447 109.164C27.1574 108.919 27.2331 108.644 27.4717 108.34C27.7076 108.039 27.958 107.898 28.223 107.917C28.4851 107.94 28.7365 108.046 28.977 108.235C29.2211 108.426 29.3855 108.646 29.47 108.896C29.5482 109.146 29.4694 109.421 29.2335 109.722C28.9948 110.026 28.7476 110.166 28.4917 110.143C28.2296 110.12 27.9764 110.013 27.7324 109.821Z" fill="black"/>
<path d="M35.3299 111.646C34.4608 111.128 33.9073 110.542 33.6694 109.887C33.4315 109.232 33.5427 108.519 34.0031 107.746L36.5754 103.43L37.8094 104.165L37.6264 105.25L37.6728 105.277C37.9963 105.156 38.2983 105.08 38.5789 105.048C38.8595 105.016 39.1461 105.041 39.4386 105.121C39.7311 105.201 40.0569 105.348 40.4161 105.562C40.7985 105.79 41.0985 106.068 41.3162 106.397C41.53 106.723 41.634 107.089 41.6283 107.493C41.6202 107.902 41.477 108.34 41.1985 108.807C40.7887 109.495 40.2458 109.857 39.5696 109.894C38.8912 109.934 38.0588 109.684 37.0725 109.144L35.9278 108.509L35.7586 108.792C35.556 109.132 35.4964 109.434 35.5797 109.699C35.663 109.963 35.863 110.189 36.1797 110.378C36.4926 110.565 36.8261 110.703 37.1803 110.794C37.5345 110.885 37.9026 110.952 38.2844 110.996L38.1583 112.539C37.7063 112.515 37.2369 112.429 36.7498 112.28C36.259 112.129 35.7856 111.918 35.3299 111.646ZM36.5423 107.477L37.2398 107.862C37.8207 108.187 38.2795 108.322 38.6163 108.266C38.9492 108.208 39.2078 108.024 39.3919 107.715C39.5531 107.445 39.589 107.204 39.4997 106.994C39.4081 106.788 39.2348 106.609 38.9799 106.457C38.6014 106.231 38.216 106.153 37.8237 106.223C37.4275 106.291 37.1063 106.531 36.86 106.944L36.5423 107.477Z" fill="black"/>
<path d="M47.3495 108.892L47.2808 116.961L45.2769 116.177L45.4839 111.646C45.5002 111.382 45.5381 111.112 45.5977 110.836C45.6531 110.558 45.7126 110.313 45.776 110.102L45.7258 110.082C45.6264 110.299 45.5047 110.524 45.3604 110.757C45.2119 110.989 45.0521 111.207 44.8809 111.41L41.9664 114.884L39.9626 114.101L45.3833 108.123L47.3495 108.892Z" fill="black"/>
<path d="M52.047 110.397L52.2922 112.838L55.8185 113.537L56.9759 111.374L59.1856 111.811L53.8477 120.847L51.3402 120.35L49.8373 109.959L52.047 110.397ZM52.441 114.656L52.6966 117.044C52.711 117.203 52.7326 117.406 52.7612 117.655C52.7846 117.907 52.8098 118.162 52.8367 118.419C52.8583 118.68 52.8733 118.906 52.8816 119.095C52.9615 118.923 53.0678 118.71 53.2005 118.457C53.3279 118.207 53.4505 117.97 53.5682 117.746C53.686 117.522 53.7704 117.362 53.8213 117.267L54.9616 115.155L52.441 114.656Z" fill="black"/>
<path d="M63.8165 119.524C63.7132 119.528 63.5938 119.526 63.4585 119.517C63.3189 119.514 63.2061 119.505 63.12 119.49L63.2013 117.556C63.2696 117.576 63.3668 117.588 63.4929 117.593C63.6148 117.601 63.7206 117.604 63.8105 117.601C64.0755 117.591 64.3326 117.547 64.5816 117.47C64.8262 117.393 65.0444 117.275 65.2362 117.114C65.4283 116.958 65.578 116.755 65.6853 116.503C65.7884 116.256 65.8331 115.955 65.8195 115.6L65.6729 111.765L67.7285 111.687L68.0166 119.222L66.4597 119.281L66.108 118.026L66.0069 118.03C65.8684 118.291 65.6932 118.532 65.4811 118.752C65.2647 118.976 65.0173 119.156 64.7391 119.293C64.4565 119.434 64.149 119.511 63.8165 119.524Z" fill="black"/>
<path d="M73.979 118.551C73.2939 118.68 72.6791 118.658 72.1345 118.485C71.5907 118.317 71.1372 118.008 70.7741 117.56C70.411 117.111 70.1621 116.526 70.0272 115.806L69.8435 114.824L74.6232 113.93C74.4944 113.364 74.2403 112.947 73.8608 112.679C73.4778 112.417 73.0012 112.339 72.4311 112.446C71.9582 112.535 71.5342 112.664 71.1591 112.835C70.784 113.006 70.4069 113.228 70.0278 113.5L69.7349 111.935C70.0678 111.686 70.4275 111.481 70.814 111.322C71.196 111.163 71.6721 111.031 72.2422 110.924C72.9847 110.785 73.6688 110.799 74.2947 110.965C74.9161 111.132 75.4429 111.466 75.875 111.966C76.3027 112.467 76.5964 113.144 76.7561 113.997C76.9183 114.863 76.9073 115.611 76.7231 116.24C76.5354 116.874 76.2055 117.384 75.7334 117.77C75.262 118.16 74.6772 118.421 73.979 118.551ZM73.6964 117.115C74.0897 117.042 74.3932 116.855 74.6068 116.554C74.8159 116.254 74.8899 115.831 74.8288 115.284L71.9914 115.815C72.0521 116.115 72.1574 116.372 72.3073 116.586C72.4528 116.802 72.6423 116.958 72.8756 117.056C73.1046 117.155 73.3782 117.175 73.6964 117.115Z" fill="black"/>
<path d="M78.5132 115.828L80.2019 115.264L78.3015 109.577L80.2525 108.925L82.1529 114.612L83.2276 114.252L83.5418 115.193L82.6424 116.076L82.8177 116.601C83.0215 117.211 83.0774 117.718 82.9853 118.124C82.8903 118.535 82.678 118.871 82.3483 119.133C82.0158 119.4 81.5916 119.62 81.0756 119.793C80.696 119.92 80.3399 120.003 80.0072 120.043C79.676 120.088 79.3994 120.104 79.1776 120.093L79.1977 118.493C79.3626 118.49 79.5389 118.479 79.7266 118.459C79.9143 118.439 80.1211 118.391 80.3471 118.315C80.6201 118.224 80.7927 118.074 80.8651 117.865C80.9346 117.662 80.9266 117.432 80.8411 117.176L80.6914 116.728L79.0027 117.293L78.5132 115.828Z" fill="black"/>
<path d="M84.0745 113.927L85.692 113.183L83.1854 107.736L85.0541 106.876L87.5607 112.323L88.59 111.849L89.0045 112.75L88.2064 113.726L88.4376 114.228C88.7064 114.812 88.817 115.311 88.7694 115.724C88.7197 116.143 88.5451 116.5 88.2459 116.796C87.9444 117.098 87.5465 117.363 87.0523 117.59C86.6888 117.758 86.3438 117.879 86.0174 117.955C85.693 118.035 85.4198 118.082 85.1981 118.095L85.0444 116.502C85.2081 116.482 85.3821 116.451 85.5665 116.411C85.7508 116.37 85.9513 116.3 86.1678 116.201C86.4292 116.081 86.5845 115.913 86.6337 115.697C86.6807 115.487 86.6478 115.26 86.5351 115.015L86.3377 114.586L84.7202 115.33L84.0745 113.927Z" fill="black"/>
<path d="M89.7518 110.207C89.3241 109.579 89.0125 108.954 88.8169 108.331C88.6239 107.712 88.5607 107.107 88.6273 106.518C88.6902 105.931 88.8968 105.372 89.2471 104.84C89.5999 104.311 90.1089 103.821 90.7742 103.368C91.4395 102.915 92.0827 102.621 92.7037 102.487C93.3272 102.356 93.9253 102.368 94.498 102.522C95.067 102.678 95.6053 102.962 96.1131 103.372C96.6209 103.782 97.0899 104.304 97.5201 104.935C98.0944 105.779 98.4566 106.607 98.6067 107.419C98.7555 108.236 98.6595 109.014 98.3187 109.752C97.9779 110.49 97.3634 111.161 96.4751 111.766C95.5905 112.368 94.7462 112.69 93.9422 112.732C93.1345 112.776 92.3793 112.577 91.6767 112.136C90.9703 111.698 90.3286 111.055 89.7518 110.207ZM95.7005 106.158C95.3134 105.589 94.9088 105.147 94.4867 104.83C94.0634 104.52 93.6235 104.357 93.1669 104.342C92.7128 104.33 92.2442 104.488 91.761 104.817C91.2704 105.151 90.9473 105.532 90.7918 105.958C90.6389 106.389 90.6328 106.855 90.7736 107.358C90.9132 107.867 91.1766 108.405 91.5637 108.974C92.1457 109.829 92.7635 110.393 93.4171 110.666C94.0707 110.939 94.7637 110.826 95.4959 110.328C95.9828 109.996 96.3046 109.614 96.4612 109.181C96.6167 108.754 96.6265 108.285 96.4906 107.774C96.3536 107.269 96.0902 106.73 95.7005 106.158Z" fill="black"/>
<path d="M98.4152 97.1096L99.8102 95.5978L107.522 102.715L106.127 104.227L98.4152 97.1096Z" fill="black"/>
<path d="M107.099 98.6472L101.14 94.0267L102.401 92.4011L108.36 97.0216L107.099 98.6472ZM110.062 99.6473C109.874 99.8889 109.656 100.053 109.408 100.139C109.163 100.227 108.887 100.153 108.582 99.9162C108.28 99.682 108.137 99.4324 108.155 99.1674C108.177 98.9051 108.281 98.6532 108.468 98.4115C108.658 98.1664 108.878 98.0008 109.126 97.9149C109.376 97.8352 109.652 97.9125 109.954 98.1467C110.259 98.3837 110.401 98.6301 110.379 98.8861C110.358 99.1484 110.252 99.4021 110.062 99.6473Z" fill="black"/>
<path d="M111.844 92.0399C111.331 92.9119 110.747 93.4687 110.094 93.7103C109.441 93.9519 108.726 93.8447 107.951 93.3887L103.621 90.8408L104.349 89.6026L105.434 89.7795L105.462 89.733C105.339 89.4102 105.261 89.1085 105.227 88.8281C105.194 88.5477 105.217 88.2611 105.295 87.9681C105.373 87.6752 105.519 87.3485 105.731 86.9881C105.956 86.6044 106.233 86.3028 106.56 86.0833C106.885 85.8677 107.25 85.7616 107.655 85.765C108.064 85.7708 108.503 85.9116 108.972 86.1874C109.662 86.5933 110.027 87.1342 110.067 87.8101C110.112 88.4883 109.866 89.3221 109.331 90.3115L108.703 91.4597L108.988 91.6273C109.329 91.828 109.631 91.8859 109.895 91.8011C110.159 91.7163 110.384 91.515 110.571 91.1972C110.756 90.8833 110.892 90.549 110.981 90.1943C111.07 89.8396 111.135 89.4712 111.177 89.0891L112.72 89.2065C112.699 89.6586 112.616 90.1285 112.47 90.6164C112.321 91.1081 112.113 91.5826 111.844 92.0399ZM107.668 90.851L108.048 90.1514C108.37 89.5687 108.502 89.1091 108.445 88.7726C108.385 88.44 108.2 88.1825 107.89 88.0001C107.619 87.8405 107.378 87.8059 107.168 87.8964C106.962 87.9892 106.784 88.1635 106.634 88.4193C106.41 88.799 106.335 89.1849 106.407 89.5768C106.476 89.9725 106.719 90.2924 107.133 90.5363L107.668 90.851Z" fill="black"/>
<path d="M109.021 80.0355L117.091 80.0587L116.319 82.0669L111.786 81.8855C111.522 81.8708 111.252 81.8343 110.975 81.7763C110.697 81.7225 110.452 81.6644 110.24 81.6022L110.221 81.6525C110.438 81.7506 110.664 81.8711 110.898 82.0141C111.131 82.1612 111.349 82.3198 111.554 82.4899L115.044 85.3847L114.272 87.393L108.264 82.006L109.021 80.0355Z" fill="black"/>
<path d="M110.5 75.3305L112.94 75.0716L113.619 71.5415L111.449 70.3963L111.874 68.1841L120.94 73.471L120.457 75.9811L110.075 77.5427L110.5 75.3305ZM114.756 74.9126L117.143 74.6434C117.302 74.6282 117.505 74.6055 117.754 74.5754C118.006 74.5506 118.261 74.524 118.518 74.4956C118.779 74.4725 119.004 74.4563 119.193 74.4469C119.021 74.368 118.808 74.2629 118.553 74.1316C118.303 74.0056 118.065 73.8844 117.84 73.7679C117.616 73.6514 117.455 73.5679 117.36 73.5175L115.242 72.3891L114.756 74.9126Z" fill="black"/>
<path d="M119.561 63.5094C119.566 63.6127 119.564 63.7321 119.557 63.8674C119.554 64.0071 119.545 64.12 119.531 64.2061L117.597 64.1357C117.617 64.0673 117.628 63.9701 117.632 63.8439C117.64 63.722 117.642 63.6162 117.638 63.5263C117.627 63.2613 117.582 63.0045 117.503 62.7559C117.425 62.5118 117.305 62.2943 117.144 62.1033C116.987 61.9122 116.782 61.7636 116.53 61.6577C116.283 61.556 115.981 61.513 115.626 61.5286L111.793 61.6968L111.702 59.6417L119.235 59.3111L119.304 60.8676L118.05 61.2264L118.055 61.3275C118.317 61.4645 118.559 61.6384 118.78 61.8492C119.005 62.0644 119.187 62.3107 119.325 62.5882C119.468 62.8699 119.547 63.177 119.561 63.5094Z" fill="black"/>
<path d="M118.531 53.3523C118.664 54.0365 118.645 54.6515 118.475 55.1971C118.31 55.7418 118.004 56.197 117.558 56.5626C117.111 56.9282 116.527 57.1805 115.808 57.3194L114.828 57.5087L113.906 52.7341C113.341 52.8661 112.925 53.1226 112.66 53.5035C112.4 53.888 112.325 54.365 112.435 54.9345C112.526 55.4069 112.658 55.8302 112.831 56.2043C113.004 56.5785 113.228 56.9543 113.502 57.3318L111.939 57.6335C111.688 57.3021 111.481 56.9435 111.32 56.558C111.159 56.1768 111.024 55.7015 110.914 55.132C110.771 54.3903 110.781 53.7061 110.943 53.0793C111.107 52.457 111.438 51.9283 111.935 51.4934C112.434 51.0629 113.109 50.7654 113.961 50.6009C114.827 50.4338 115.574 50.4406 116.204 50.6211C116.84 50.8053 117.352 51.1323 117.74 51.6023C118.133 52.0714 118.397 52.6547 118.531 53.3523ZM117.097 53.6429C117.021 53.25 116.832 52.9476 116.53 52.7357C116.229 52.5282 115.806 52.4566 115.259 52.5209L115.806 55.3552C116.106 55.2928 116.362 55.1861 116.576 55.0349C116.79 54.8882 116.946 54.6979 117.043 54.464C117.14 54.2345 117.158 53.9608 117.097 53.6429Z" fill="black"/>
<path d="M115.782 48.8342L115.208 47.1487L109.532 49.0811L108.869 47.1338L114.545 45.2014L114.18 44.1288L115.118 43.8092L116.007 44.7036L116.531 44.5253C117.139 44.3181 117.646 44.2594 118.052 44.3492C118.464 44.4418 118.801 44.6522 119.065 44.9804C119.335 45.3114 119.557 45.7344 119.732 46.2494C119.861 46.6283 119.947 46.9839 119.989 47.3163C120.035 47.6474 120.053 47.9238 120.043 48.1457L118.443 48.1346C118.439 47.9697 118.427 47.7935 118.406 47.6059C118.385 47.4183 118.336 47.2118 118.259 46.9862C118.166 46.7138 118.015 46.542 117.806 46.4708C117.602 46.4025 117.372 46.4117 117.117 46.4987L116.67 46.6509L117.244 48.3364L115.782 48.8342Z" fill="black"/>
<path d="M113.849 43.2829L113.096 41.6697L107.663 44.207L106.793 42.3432L112.225 39.8059L111.746 38.7793L112.644 38.3597L113.625 39.1523L114.126 38.9182C114.708 38.6461 115.206 38.5327 115.619 38.5779C116.039 38.6253 116.397 38.7978 116.695 39.0955C116.999 39.3952 117.266 39.7916 117.496 40.2845C117.665 40.6471 117.789 40.9914 117.867 41.3173C117.949 41.6413 117.997 41.9142 118.011 42.1358L116.419 42.2985C116.398 42.135 116.366 41.9611 116.325 41.777C116.283 41.5928 116.212 41.3928 116.111 41.1769C115.99 40.9162 115.821 40.7618 115.605 40.7138C115.395 40.6679 115.168 40.7021 114.923 40.8163L114.495 41.0161L115.249 42.6293L113.849 43.2829Z" fill="black"/>
<path d="M110.098 37.6273C109.472 38.0585 108.849 38.3736 108.227 38.5727C107.609 38.7693 107.005 38.8359 106.415 38.7726C105.828 38.713 105.267 38.5096 104.733 38.1623C104.203 37.8125 103.709 37.3062 103.253 36.6435C102.796 35.9807 102.499 35.3392 102.361 34.719C102.226 34.0962 102.235 33.4981 102.386 32.9245C102.539 32.3547 102.819 31.8147 103.227 31.3046C103.634 30.7945 104.153 30.3226 104.782 29.8889C105.623 29.3098 106.448 28.9429 107.259 28.7883C108.076 28.6348 108.855 28.7264 109.594 29.063C110.334 29.3997 111.009 30.0104 111.619 30.8953C112.226 31.7765 112.552 32.619 112.598 33.4227C112.647 34.2302 112.453 34.9864 112.016 35.6916C111.581 36.4004 110.942 37.0456 110.098 37.6273ZM106.015 31.7015C105.448 32.0918 105.008 32.4989 104.694 32.9228C104.386 33.3478 104.226 33.7887 104.213 34.2454C104.204 34.6995 104.365 35.1672 104.697 35.6485C105.033 36.1372 105.416 36.4582 105.843 36.6112C106.275 36.7618 106.741 36.7652 107.243 36.6216C107.751 36.4791 108.288 36.2127 108.854 35.8224C109.706 35.2356 110.266 34.6146 110.536 33.9595C110.805 33.3043 110.688 32.612 110.186 31.8826C109.852 31.3976 109.468 31.078 109.034 30.9237C108.606 30.7706 108.137 30.7635 107.627 30.9023C107.122 31.0422 106.585 31.3086 106.015 31.7015Z" fill="black"/>
<path d="M96.9514 29.0372L95.4319 27.6507L102.505 19.8984L104.025 21.285L96.9514 29.0372Z" fill="black"/>
<path d="M98.4397 20.345L93.8529 26.3297L92.2202 25.0784L96.807 19.0936L98.4397 20.345ZM99.423 17.3767C99.6657 17.5627 99.8307 17.7798 99.9181 18.028C100.008 18.2726 99.9356 18.5484 99.7003 18.8553C99.4679 19.1587 99.2191 19.3022 98.9539 19.286C98.6915 19.2662 98.439 19.1633 98.1963 18.9773C97.9501 18.7885 97.7833 18.5701 97.6959 18.3218C97.6149 18.0728 97.6906 17.7966 97.9231 17.4933C98.1583 17.1863 98.404 17.0432 98.6601 17.0639C98.9225 17.0837 99.1768 17.188 99.423 17.3767Z" fill="black"/>
<path d="M91.8061 15.6377C92.6809 16.1458 93.241 16.7259 93.4863 17.3779C93.7315 18.0299 93.6284 18.7447 93.1768 19.5223L90.6534 23.8674L89.4111 23.1459L89.5818 22.0596L89.5352 22.0325C89.2131 22.1574 88.9119 22.2373 88.6317 22.2721C88.3515 22.3069 88.0647 22.286 87.7713 22.2092C87.4779 22.1324 87.1504 21.989 86.7888 21.779C86.4039 21.5555 86.1008 21.2806 85.8794 20.9545C85.6619 20.6306 85.5538 20.2662 85.5549 19.8613C85.5584 19.4525 85.6967 19.0129 85.9699 18.5424C86.3718 17.8503 86.9107 17.4821 87.5864 17.4378C88.2643 17.3895 89.0995 17.6302 90.0918 18.1597L91.2436 18.7818L91.4096 18.496C91.6083 18.1539 91.6645 17.8512 91.5782 17.5879C91.492 17.3246 91.2894 17.1004 90.9706 16.9152C90.6556 16.7323 90.3206 16.5975 89.9654 16.5108C89.6101 16.4241 89.2414 16.3607 88.8591 16.3207L88.9678 14.7771C89.4199 14.7953 89.8904 14.8762 90.379 15.0196C90.8716 15.1652 91.3473 15.3713 91.8061 15.6377ZM90.6407 19.82L89.939 19.4436C89.3545 19.125 88.8942 18.9954 88.558 19.055C88.2257 19.1168 87.9693 19.3032 87.7886 19.6143C87.6306 19.8864 87.5974 20.1271 87.689 20.3364C87.783 20.5417 87.9582 20.7189 88.2149 20.8679C88.5959 21.0892 88.9822 21.1628 89.3736 21.0885C89.769 21.0166 90.0875 20.7726 90.3291 20.3565L90.6407 19.82Z" fill="black"/>
<path d="M79.8182 18.5275L79.7958 10.4584L81.8084 11.2189L81.6526 15.7527C81.6393 16.0169 81.6044 16.2873 81.5479 16.5639C81.4957 16.8422 81.439 17.0876 81.378 17.3L81.4284 17.3191C81.5253 17.1009 81.6445 16.8744 81.7861 16.6395C81.932 16.4062 82.0894 16.1869 82.2583 15.9816L85.1333 12.4753L87.1459 13.2357L81.793 19.2737L79.8182 18.5275Z" fill="black"/>
<path d="M75.1045 17.0753L74.8318 14.637L71.2979 13.9782L70.1649 16.1545L67.9504 15.7417L73.186 6.64625L75.6989 7.11467L77.319 17.4881L75.1045 17.0753ZM74.6625 12.8216L74.3799 10.4363C74.3637 10.2778 74.3399 10.0744 74.3084 9.82613C74.2822 9.57426 74.2541 9.31977 74.2243 9.06265C74.1997 8.80194 74.1822 8.57685 74.1718 8.38738C74.0938 8.56037 73.9899 8.77426 73.8601 9.02906C73.7355 9.28026 73.6156 9.51862 73.5004 9.74412C73.3852 9.96963 73.3026 10.1303 73.2528 10.2262L72.1364 12.3507L74.6625 12.8216Z" fill="black"/>
</svg>
