<svg width="161" height="49" viewBox="0 0 161 49" fill="none" xmlns="http://www.w3.org/2000/svg">
<g clip-path="url(#clip0_192_117)">
<path d="M53.2955 48.5733C51.9056 48.2108 50.4336 48.0272 49.1426 47.4448C47.381 46.6498 45.7569 45.5527 43.976 44.5282C43.976 45.3497 44.034 46.2946 43.9399 47.2273C43.9109 47.51 43.4693 47.9716 43.2087 47.9788C40.9283 48.0392 38.6455 48.0127 36.2733 48.0127V0.575684H44.1281V18.7738C44.3477 18.7231 44.49 18.7352 44.5552 18.6699C50.5011 12.8632 59.9268 13.7283 65.5422 19.4722C74.1257 28.2511 70.7594 43.5882 59.2946 47.5849C57.9095 48.0682 56.4181 48.2495 54.9775 48.5684H53.2907L53.2955 48.5733ZM62.27 31.5737C62.2724 29.0799 61.5605 26.835 59.8906 24.9478C57.422 22.1617 53.3052 21.2386 49.7434 22.6377C46.2106 24.0247 44.046 27.5044 44.0822 31.7307C44.1184 35.9208 46.3892 39.3377 50.004 40.6353C56.2444 42.8777 62.2893 38.4122 62.27 31.5737Z" fill="#2B2B2B"/>
<path d="M83.1725 48.5732C82.2941 48.3291 81.4037 48.1213 80.5398 47.8337C76.6595 46.5434 74.0412 43.3295 73.7951 39.5961C73.4983 35.0581 75.3178 31.7475 79.449 29.9642C81.2951 29.1668 83.3366 28.7101 85.3371 28.4177C87.2676 28.1374 89.2608 28.2703 91.2251 28.2196C93.5803 28.1616 94.4852 26.8591 93.6623 24.6505C93.4862 24.1744 93.2183 23.6791 92.8612 23.3335C90.9717 21.5043 88.6599 21.3472 86.242 21.8378C83.9761 22.2993 82.4365 23.6259 81.7367 25.8587C81.6329 26.1922 81.534 26.5305 81.4157 26.9268C79.0098 26.3831 76.6788 25.8563 74.2608 25.3077C74.3115 23.5776 74.9679 22.1398 75.8704 20.8108C78.5127 16.9131 82.3038 15.0282 86.9273 14.7165C89.5938 14.5353 92.229 14.7624 94.7217 15.8184C99.2125 17.7226 101.534 21.224 101.693 25.994C101.869 31.315 101.758 36.6481 101.77 41.9739C101.775 43.9288 101.77 45.8861 101.77 48.0053C99.5238 48.0053 97.13 48.027 94.7362 47.969C94.5142 47.9642 94.1763 47.464 94.116 47.1499C93.9736 46.4225 93.9712 45.671 93.9133 44.9533C92.6223 45.816 91.4736 46.7536 90.1778 47.4012C89.0557 47.9618 87.7671 48.1938 86.5533 48.5707H83.1797L83.1725 48.5732ZM94.005 34.1785C91.4206 34.1785 88.9374 34.0891 86.4688 34.222C85.4722 34.2751 84.4394 34.7028 83.5344 35.174C82.3448 35.7926 81.5678 36.793 81.6546 38.2647C81.7439 39.7435 82.5185 40.7947 83.8264 41.319C86.4978 42.3895 89.1136 42.085 91.4978 40.4999C93.7106 39.0307 94.2512 36.8027 94.005 34.1761V34.1785Z" fill="#2B2B2B"/>
<path d="M144.871 30.0175C150.154 36.0779 155.25 41.9281 160.557 48.015C157.576 48.015 154.9 47.9087 152.239 48.0537C150.586 48.1455 149.536 47.6018 148.493 46.3284C145.142 42.2325 141.65 38.2527 138.209 34.2293C137.931 33.9031 137.639 33.5914 137.149 33.0428V47.945H129.246V0.573242H137.108V27.2241C137.615 26.7384 137.919 26.4605 138.209 26.1681C141.512 22.8358 144.794 19.4794 148.139 16.1882C148.59 15.746 149.353 15.4053 149.982 15.3908C153.146 15.3111 156.314 15.3546 159.587 15.3546C154.63 20.2937 149.768 25.1387 144.871 30.0199V30.0175Z" fill="#2B2B2B"/>
<path d="M106.348 47.9279V15.4318H114.06V19.1023C117.05 15.8329 120.417 14.5353 124.543 15.2868V23.3552C123.894 23.3142 123.269 23.2731 122.642 23.2344C117.535 22.9179 114.34 25.791 114.27 30.9018C114.2 36.1092 114.249 41.3166 114.246 46.524C114.246 46.9614 114.246 47.3987 114.246 47.9255H106.348V47.9279Z" fill="#2B2B2B"/>
<path d="M29.9871 0.725586C29.9871 3.74129 30.0016 6.39937 29.963 9.05986C29.9606 9.30875 29.6734 9.61806 29.4418 9.79204C20.2791 16.674 11.1092 23.544 1.83801 30.4912C1.40606 29.9064 0.99583 29.3506 0.556641 28.7562C10.3202 19.4578 20.0233 10.2149 29.9871 0.725586Z" fill="#2B2B2B"/>
<path d="M30.0113 40.7103V48.0635C20.3757 45.8017 10.839 43.5616 1.23474 41.3047C1.60395 40.1593 2.16621 39.6059 3.46206 39.6615C12.1155 40.0288 20.7714 40.3188 29.4273 40.6378C29.5866 40.6426 29.7434 40.6764 30.0137 40.7103H30.0113Z" fill="#2B2B2B"/>
<path d="M25.2816 23.916C25.6773 26.3276 26.0513 28.6039 26.4447 31.001C19.0026 32.5717 11.6595 34.1206 4.31389 35.672C3.93503 34.4565 4.1691 33.7726 5.3443 33.2338C11.6329 30.3437 17.8781 27.3594 24.1401 24.4114C24.4611 24.2591 24.7941 24.1287 25.2816 23.9208V23.916Z" fill="#2B2B2B"/>
</g>
<defs>
<clipPath id="clip0_192_117">
<rect width="160" height="48" fill="white" transform="translate(0.556641 0.573242)"/>
</clipPath>
</defs>
</svg>
