<svg width="221" height="34" viewBox="0 0 221 34" fill="none" xmlns="http://www.w3.org/2000/svg">
<g clip-path="url(#clip0_1_253)">
<path d="M220.71 28.2667V32.9246H208.528V2.11031H219.85V6.7683H213.902V15.0093H219.205V19.309H213.831V28.2667H220.71ZM193.121 2.03865H198.853V28.2667H205.303V32.9246H193.121V2.03865ZM189.179 24.1103C189.179 30.5598 186.313 32.9246 181.296 32.9246H174.417V2.11031H181.368C186.886 2.11031 188.319 5.26341 188.319 10.4947C188.319 14.3644 186.886 16.3709 184.521 16.5142C187.173 16.5142 189.251 19.1657 189.251 24.1103H189.179ZM180.866 5.69338H179.863V14.651H181.296C182.73 14.651 182.945 13.2178 182.945 10.638C182.945 7.05494 182.515 5.62172 180.795 5.62172L180.866 5.69338ZM181.081 18.3058H179.863V29.2699H181.296C182.945 29.2699 183.446 28.2667 183.446 23.537C183.446 20.1689 182.945 18.3774 181.081 18.3774V18.3058ZM162.879 33.4979C158.078 33.4979 155.57 31.4914 155.57 17.5891C155.57 4.11683 157.72 1.82367 162.951 1.82367C168.326 1.82367 170.332 4.11683 170.332 17.5891C170.332 30.7748 168.182 33.4979 162.951 33.4979H162.879ZM164.313 7.55657C164.098 5.40673 163.596 4.9051 162.879 4.9051C162.02 4.9051 161.59 5.33507 161.446 7.55657C161.303 9.70641 161.303 12.7878 161.303 17.5891C161.303 23.322 161.303 25.4719 161.518 27.4784C161.661 29.8432 162.091 30.0582 162.951 30.0582C163.883 30.0582 164.169 30.0582 164.384 27.4784V7.48491L164.313 7.55657ZM143.531 21.5305C143.029 20.0973 142.671 18.3774 142.241 16.2276C142.528 20.3839 142.528 21.5305 142.528 25.1852V33.068H137.296V2.25364H142.456C142.456 2.25364 144.749 11.3546 145.322 13.2178C145.824 15.1527 146.254 16.6575 146.397 18.0908C146.254 15.0093 146.254 11.3546 146.254 8.27318V2.03865H151.27V32.853H146.899L143.459 21.3872L143.531 21.5305ZM103.902 24.8269C103.902 29.8432 101.752 33.4263 96.8795 33.4263C92.7231 33.4263 89.9283 31.2764 89.9283 25.9018C89.9283 24.6836 89.9283 23.537 90.215 22.6054H95.2313C95.0163 23.752 94.8729 24.4686 94.8729 25.8302C94.8729 29.2699 95.7329 29.8432 97.0228 29.8432C97.9544 29.8432 98.671 29.3416 98.671 25.9018C98.671 22.8921 96.5212 20.6706 94.3713 18.0191C92.0782 15.4393 89.7133 11.9996 89.7133 9.13312C89.7133 4.5468 91.8632 1.96699 96.3062 1.96699C100.606 1.96699 102.971 4.26015 102.971 8.77481C102.971 9.77807 102.684 10.5663 102.541 11.283H97.9544L98.0977 9.13312C98.0977 6.26667 97.6677 5.19175 96.4495 5.19175C95.1596 5.19175 95.0163 6.40999 95.0163 8.63149C95.0163 11.4979 97.1661 13.6478 99.101 15.9409C101.681 19.2374 103.831 21.8172 103.831 25.0419L103.902 24.8269ZM74.5212 2.11031H85.987V6.7683H80.0391V15.0093H85.342V19.309H80.1107V28.2667H86.9186V32.9246H74.7361V2.11031H74.5212ZM61.6221 21.4588C61.1922 20.0256 60.7622 18.3058 60.4039 16.1559C60.6905 20.3123 60.6905 21.4588 60.6905 25.1136V32.9963H55.5309V2.18198H60.6905L63.557 13.1461C64.1303 15.081 64.5602 16.5859 64.8469 18.0191C64.7036 14.9377 64.5602 11.283 64.5602 8.20152V2.03865H69.5765V32.853H65.0619L61.6938 21.3872L61.6221 21.4588ZM46.2866 17.1592C49.8697 18.0191 50.228 22.1755 50.228 25.9018C50.228 28.7683 50.443 31.4198 50.8013 32.9246H45.0684C45.0684 31.6347 44.7101 31.1331 44.7101 28.195V24.3253C44.7101 21.8172 43.8502 20.0256 42.0586 19.524H41.772V32.7813H36.0391V1.96699H44.4234C48.2215 1.96699 50.873 4.11683 50.873 9.84973C50.873 14.5794 48.7231 16.6575 46.2866 17.0159V17.1592ZM42.7036 5.98002H41.7003V14.7944H43.3485C44.7817 14.7944 45.2117 13.8628 45.2117 11.2113C45.2117 6.55331 44.4951 5.90836 42.7036 5.98002ZM26.3648 27.9084H22.7817L22.3518 32.9246H17.5505L22.0651 1.89533H27.5114L32.7427 32.853H27.0098L26.2931 27.8367L26.3648 27.9084ZM25.3616 18.5924C25.2182 17.1592 24.6449 12.6445 24.6449 9.70641C24.43 12.7878 23.9283 17.1592 23.9283 18.5207L23.2117 24.4686H26.0782L25.3616 18.5924ZM15.4723 23.967C15.4723 30.4165 12.6058 32.7813 7.58956 32.7813H0.710083V1.96699H7.66122C13.1075 1.96699 14.5407 5.12009 14.5407 10.3514C14.5407 14.2211 13.1075 16.2276 10.7427 16.3709C13.3941 16.3709 15.4723 19.0224 15.4723 23.967ZM7.15959 5.69338H6.08468V14.651H7.5179C8.95113 14.651 9.16611 13.2178 9.16611 10.638C9.16611 7.05494 8.8078 5.62172 7.01627 5.62172L7.15959 5.69338ZM7.30292 18.2341H6.15634V29.1983H7.58956C9.23777 29.1983 9.7394 28.195 9.7394 23.4654C9.7394 20.0973 9.23777 18.3058 7.37458 18.3058L7.30292 18.2341Z" fill="#366251"/>
<path d="M134.573 20.2406C134.43 21.2439 133.857 22.0321 132.71 22.0321C130.345 22.0321 132.208 18.4491 129.987 18.4491C128.697 18.4491 127.837 19.5957 126.404 22.6054L124.254 27.765L124.684 28.6966C126.117 30.6315 127.407 31.9931 128.984 31.9931C129.844 31.9931 130.775 31.5631 132.208 30.1299L132.925 31.1331C131.348 33.068 129.342 34.1429 127.55 34.1429C125.401 34.1429 123.537 32.208 122.176 30.7032C120.169 32.853 117.876 34.1429 114.723 34.1429C110.208 34.1429 106.124 31.2764 107.127 24.8269C107.987 20.9572 110.925 18.3774 114.293 16.2276C113.29 13.6478 112.716 10.4947 113.146 8.12986C113.935 3.18524 118.378 0.318787 122.176 0.318787C126.619 0.318787 128.625 3.32856 127.909 6.7683C127.55 8.55983 126.762 10.208 124.899 11.7846C122.964 13.5045 119.739 15.0093 117.948 16.0843C119.094 18.9507 120.814 22.1755 123.251 26.3318C123.967 24.8986 125.042 22.3188 126.117 20.2406C127.049 18.0908 128.554 16.8009 130.775 16.8009C133.857 16.8009 134.716 18.9507 134.573 20.2406ZM110.567 25.6152C110.137 28.2667 111.785 31.8497 116.085 31.8497C118.234 31.8497 119.668 31.2764 121.101 29.4849C118.378 25.6152 116.443 21.8888 114.866 18.1624C112.716 20.0256 111.14 22.1038 110.567 25.6152ZM123.824 10.0647C124.756 8.84647 125.042 7.91488 125.257 6.91162C125.759 4.33182 124.254 2.61195 122.032 2.61195C119.166 2.61195 117.016 4.97677 116.873 7.19827C116.371 9.63475 116.658 11.9996 117.446 14.5077C119.166 13.5045 122.749 11.283 123.896 10.0647H123.824Z" fill="#C6BEB0"/>
</g>
<defs>
<clipPath id="clip0_1_253">
<rect width="220" height="33.6808" fill="white" transform="translate(0.710205 0.318787)"/>
</clipPath>
</defs>
</svg>
