<svg width="140" height="41" viewBox="0 0 140 41" fill="none" xmlns="http://www.w3.org/2000/svg">
<g clip-path="url(#clip0_192_129)">
<path d="M42.7611 0.573242H36.3998V40.5732H42.7611V0.573242Z" fill="#272727"/>
<path d="M65.0266 27.8461C65.0266 33.86 59.9097 34.4194 58.5269 34.4194C54.7929 34.4194 53.9632 30.7829 53.9632 28.5453V13.4404H47.6019V28.6852C47.6019 32.4615 48.8464 35.5386 50.7828 37.7762C52.5804 39.5942 55.3465 40.5736 58.3891 40.5736C60.6021 40.5736 63.506 40.0142 64.8888 38.3355V40.5736H71.2501V13.4404H64.8888V27.8461H65.027H65.0266Z" fill="#272727"/>
<path d="M83.8345 3.79004H77.4732V13.4404H72.7712V19.8739H77.4732V40.5731H83.8345V19.8739H88.5365V13.4404H83.8345V3.79004Z" fill="#272727"/>
<path d="M108.451 32.4618C107.068 33.7205 105.27 34.4197 103.334 34.4197C98.9085 34.4197 95.7276 31.2027 95.7276 26.5873C95.7276 21.9719 98.9085 18.8948 103.334 18.8948C105.27 18.8948 107.068 19.4542 108.451 20.8527L109.419 21.6917L113.568 17.4959L112.6 16.5169C109.972 14.2794 106.791 12.8804 103.334 12.8804C95.451 12.7406 89.6428 18.4748 89.6428 26.5868C89.6428 34.6989 95.5893 40.4331 103.334 40.4331C106.93 40.4331 110.248 39.1745 112.876 36.7966L113.844 35.8177L109.419 31.3421L108.451 32.4609V32.4618Z" fill="#272727"/>
<path d="M136.386 15.818C134.589 14 132.376 13.0206 129.471 13.0206C127.259 13.0206 124.908 13.58 123.248 15.2581V0.573242H116.887V40.5732H123.248V25.4684C123.248 19.4545 127.674 18.8951 129.056 18.8951C132.79 18.8951 132.79 22.5316 132.79 24.7691V40.5732H139.152V24.6293C139.29 21.1326 138.46 17.9162 136.386 15.818H136.386Z" fill="#272727"/>
<path d="M103.057 31.3427C105.578 31.3427 107.621 29.2763 107.621 26.7272C107.621 24.1782 105.578 22.1118 103.057 22.1118C100.537 22.1118 98.4936 24.1782 98.4936 26.7272C98.4936 29.2763 100.537 31.3427 103.057 31.3427Z" fill="#FF3D2E"/>
<path d="M27.6872 30.5032C25.3364 32.8806 21.8789 34.2795 18.5598 34.2795C11.3683 34.2795 6.25142 28.6852 6.25142 20.9927C6.25142 13.3001 11.3683 7.70578 18.4215 7.70578C21.7407 7.70578 24.9211 9.10425 27.5489 11.4821L28.5169 12.4611L32.6657 8.26517L31.6978 7.28624C28.102 3.64975 23.4 1.69189 18.4215 1.69189C7.91125 1.83174 0.166626 10.0837 0.166626 21.1325C0.166626 32.1814 7.91125 40.4333 18.4215 40.4333C23.5383 40.4333 28.3786 38.4754 31.6978 34.8389L32.6657 33.86L28.5169 29.3844L27.6872 30.5032Z" fill="#272727"/>
</g>
<defs>
<clipPath id="clip0_192_129">
<rect width="139" height="40" fill="white" transform="translate(0.166626 0.573242)"/>
</clipPath>
</defs>
</svg>
