<svg width="111" height="111" viewBox="0 0 111 111" fill="none" xmlns="http://www.w3.org/2000/svg">
<path d="M67.49 19.6663C67.49 16.3976 64.7087 13.6163 61.44 13.6163C58.1713 13.6163 55.3899 16.3976 55.3899 19.6663C55.3899 20.997 55.8861 22.2208 56.653 23.3711C57.1584 24.1293 56.9534 25.1538 56.1952 25.6593C55.437 26.1647 54.4127 25.9598 53.9072 25.2017C52.9141 23.7119 52.0901 21.8556 52.0901 19.6663C52.0901 14.5751 56.3487 10.3164 61.44 10.3164C66.5312 10.3164 70.79 14.5751 70.7901 19.6663C70.7901 21.8556 69.9661 23.712 68.9729 25.2017C68.4674 25.9599 67.443 26.1647 66.6847 25.6593C65.9265 25.1538 65.7217 24.1293 66.2272 23.3711C66.994 22.2208 67.49 20.997 67.49 19.6663Z" fill="#FE7634"/>
<path d="M63.9701 30.2261C63.9701 29.3148 64.7088 28.5762 65.62 28.5762C66.5313 28.5762 67.27 29.3148 67.27 30.2261C67.27 33.1537 67.6889 36.1066 68.3278 38.875C68.9514 41.5773 69.9953 44.2998 71.4728 47.0439C71.9048 47.8462 71.6046 48.8468 70.8023 49.2788C70 49.7108 68.9993 49.4108 68.5672 48.6085C66.9648 45.6325 65.8087 42.6348 65.1123 39.6171C64.4312 36.6656 63.9701 33.4585 63.9701 30.2261Z" fill="#FE7634"/>
<path d="M55.61 30.0064C55.61 29.0951 56.3488 28.3564 57.2601 28.3564C58.1713 28.3565 58.91 29.0951 58.91 30.0064C58.91 36.4334 57.305 42.8646 54.3108 48.3923C53.8768 49.1935 52.8753 49.4912 52.0741 49.0572C51.2728 48.6231 50.9752 47.6217 51.4092 46.8204C54.135 41.7882 55.61 35.8993 55.61 30.0064Z" fill="#FE7634"/>
<path d="M71.2301 49.8065C71.2301 49.5215 71.1421 49.4122 71.1082 49.3783C71.0743 49.3444 70.965 49.2564 70.68 49.2564H52.2001C51.915 49.2564 51.8055 49.3442 51.7716 49.3781C51.7377 49.412 51.6499 49.5215 51.6499 49.8065V52.7766H71.2301V49.8065ZM74.53 54.4265C74.5299 55.3378 73.7913 56.0764 72.88 56.0764H50C49.0887 56.0764 48.3501 55.3378 48.3501 54.4265V49.8065C48.3501 48.7716 48.7023 47.7809 49.4383 47.0448C50.1744 46.3087 51.1651 45.9565 52.2001 45.9565H70.68C71.7149 45.9565 72.7056 46.3087 73.4417 47.0448C74.1778 47.7809 74.53 48.7716 74.53 49.8065V54.4265Z" fill="#FE7634"/>
<path d="M69.69 27.3661C69.69 26.5174 69.1087 25.9361 68.26 25.9361H54.84C53.9913 25.9361 53.4099 26.5174 53.4099 27.3661C53.4099 28.2149 53.9913 28.7962 54.84 28.7962H68.26C69.1087 28.7962 69.69 28.2149 69.69 27.3661ZM72.9901 27.3661C72.9901 30.0374 70.9312 32.0961 68.26 32.0961H54.84C52.1687 32.0961 50.1101 30.0374 50.1101 27.3661C50.1101 24.6949 52.1687 22.6362 54.84 22.6362H68.26C70.9312 22.6362 72.9901 24.6949 72.9901 27.3661Z" fill="#FE7634"/>
<path d="M77.83 9.76634C77.83 8.25762 76.5887 7.01618 75.08 7.01617H8.86009C7.35136 7.01617 6.10992 8.25761 6.10992 9.76634V100.846C6.10993 102.355 7.35136 103.596 8.86009 103.596H75.08C76.5887 103.596 77.83 102.355 77.83 100.846V9.76634ZM81.1301 100.846C81.1301 104.178 78.4113 106.896 75.08 106.896H8.86009C5.52882 106.896 2.81006 104.178 2.81006 100.846V9.76634C2.81006 6.43507 5.52882 3.71631 8.86009 3.71631H75.08C78.4113 3.71632 81.1301 6.43508 81.1301 9.76634V100.846Z" fill="#FE7634"/>
<path d="M42.74 14.9365C43.6513 14.9365 44.39 15.6752 44.39 16.5865C44.39 17.4977 43.6513 18.2364 42.74 18.2364H13.04C12.1287 18.2364 11.39 17.4977 11.39 16.5865C11.39 15.6752 12.1287 14.9365 13.04 14.9365H42.74Z" fill="#FE7634"/>
<path d="M44.0599 25.9365C44.9712 25.9365 45.7101 26.6752 45.7101 27.5865C45.7101 28.4977 44.9712 29.2364 44.0599 29.2364H13.04C12.1287 29.2364 11.39 28.4977 11.39 27.5865C11.39 26.6752 12.1287 25.9365 13.04 25.9365H44.0599Z" fill="#FE7634"/>
<path d="M46.04 37.1567C46.9513 37.1567 47.6899 37.8954 47.6899 38.8067C47.6899 39.7179 46.9513 40.4566 46.04 40.4566H30.42C29.5087 40.4566 28.7701 39.7179 28.7701 38.8067C28.7701 37.8954 29.5087 37.1567 30.42 37.1567H46.04Z" fill="#FE7634"/>
<path d="M21.6199 37.1567C22.5312 37.1567 23.27 37.8954 23.27 38.8067C23.27 39.7179 22.5312 40.4566 21.6199 40.4566H13.04C12.1287 40.4566 11.39 39.7179 11.39 38.8067C11.39 37.8954 12.1287 37.1567 13.04 37.1567H21.6199Z" fill="#FE7634"/>
<path d="M63.42 92.3765C64.3313 92.3765 65.0699 93.1151 65.0699 94.0264C65.0699 94.9377 64.3313 95.6763 63.42 95.6763H13.04C12.1287 95.6763 11.39 94.9377 11.39 94.0264C11.39 93.1151 12.1287 92.3765 13.04 92.3765H63.42Z" fill="#FE7634"/>
<path d="M41.2 48.1567C42.1113 48.1568 42.85 48.8954 42.85 49.8067C42.85 50.7179 42.1113 51.4566 41.2 51.4566H13.04C12.1287 51.4566 11.39 50.7179 11.39 49.8067C11.39 48.8954 12.1287 48.1567 13.04 48.1567H41.2Z" fill="#FE7634"/>
<path d="M70.68 59.1567C71.5913 59.1567 72.3299 59.8954 72.3299 60.8067C72.3299 61.7179 71.5913 62.4566 70.68 62.4566H13.04C12.1287 62.4566 11.39 61.7179 11.39 60.8067C11.39 59.8954 12.1287 59.1567 13.04 59.1567H70.68Z" fill="#FE7634"/>
<path d="M54.62 81.3765C55.5313 81.3765 56.2699 82.1151 56.2699 83.0264C56.2699 83.9377 55.5313 84.6763 54.62 84.6763H13.04C12.1287 84.6763 11.39 83.9377 11.39 83.0264C11.39 82.1151 12.1287 81.3765 13.04 81.3765H54.62Z" fill="#FE7634"/>
<path d="M70.68 81.3765C71.5912 81.3765 72.3299 82.1151 72.3299 83.0264C72.3299 83.9377 71.5912 84.6763 70.68 84.6763H63.42C62.5087 84.6763 61.77 83.9377 61.77 83.0264C61.77 82.1151 62.5087 81.3765 63.42 81.3765H70.68Z" fill="#FE7634"/>
<path d="M70.6801 70.1567C71.5913 70.1568 72.33 70.8954 72.33 71.8067C72.33 72.7179 71.5913 73.4566 70.6801 73.4566H35.7C34.7887 73.4566 34.05 72.7179 34.05 71.8067C34.05 70.8954 34.7887 70.1567 35.7 70.1567H70.6801Z" fill="#FE7634"/>
<path d="M26.8999 70.1567C27.8112 70.1567 28.5501 70.8954 28.5501 71.8067C28.5501 72.7179 27.8112 73.4566 26.8999 73.4566H13.04C12.1287 73.4566 11.39 72.7179 11.39 71.8067C11.39 70.8954 12.1287 70.1567 13.04 70.1567H26.8999Z" fill="#FE7634"/>
<path d="M106.76 25.0562C107.671 25.0562 108.41 25.7948 108.41 26.7061V32.206C108.41 33.1173 107.671 33.8561 106.76 33.8561H89.16C88.2487 33.8561 87.5101 33.1173 87.5101 32.206V26.7061C87.5101 25.7948 88.2487 25.0562 89.16 25.0562H106.76ZM90.8099 30.5561H105.11V28.356H90.8099V30.5561Z" fill="#FE7634"/>
<path d="M105.11 24.5061C105.11 20.5774 101.889 17.356 97.96 17.356C94.0313 17.356 90.8099 20.5774 90.8099 24.5061V78.9562H105.11V24.5061ZM108.41 80.6061C108.41 81.5174 107.671 82.256 106.76 82.256H89.16C88.2487 82.256 87.5101 81.5174 87.5101 80.6061V24.5061C87.5101 18.7548 92.2087 14.0562 97.96 14.0562C103.711 14.0562 108.41 18.7548 108.41 24.5061V80.6061Z" fill="#FE7634"/>
<path d="M96.3101 74.8863V37.9263C96.3101 37.015 97.0487 36.2764 97.96 36.2764C98.8713 36.2764 99.6099 37.015 99.6099 37.9263V74.8863C99.6099 75.7976 98.8712 76.5363 97.96 76.5363C97.0487 76.5363 96.3101 75.7976 96.3101 74.8863Z" fill="#FE7634"/>
<path d="M105.355 79.741C105.832 78.9649 106.849 78.723 107.625 79.2006C108.401 79.6782 108.643 80.6946 108.165 81.4707L99.3653 95.7706C99.065 96.2586 98.533 96.5559 97.96 96.5559C97.387 96.5559 96.855 96.2586 96.5547 95.7706L87.7547 81.4707C87.2771 80.6946 87.5191 79.6782 88.2952 79.2006C89.0712 78.723 90.0877 78.965 90.5653 79.741L97.96 91.7574L105.355 79.741Z" fill="#FE7634"/>
</svg>
