<svg width="111" height="111" viewBox="0 0 111 111" fill="none" xmlns="http://www.w3.org/2000/svg">
<g clip-path="url(#clip0_2_759)">
<path d="M46.9023 89.5748C50.9224 89.5748 54.1827 86.3155 54.1827 82.2945C54.1827 78.2735 50.9233 75.0142 46.9023 75.0142C42.8814 75.0142 39.622 78.2744 39.622 82.2945C39.6273 86.3137 42.8831 89.5696 46.9023 89.5748ZM46.9023 78.1561C49.188 78.1552 51.0416 80.0088 51.0416 82.2945C51.0416 84.5802 49.188 86.4338 46.9023 86.4338C44.6167 86.4338 42.7631 84.581 42.7631 82.2945C42.7657 80.0097 44.6175 78.1587 46.9023 78.1561Z" fill="#FE7634"/>
<path d="M34.6668 95.4477V105.534C34.6668 106.402 35.3776 107.013 36.2452 107.013H57.5595C57.9653 107.034 58.3614 106.887 58.6568 106.608C58.9521 106.328 59.1204 105.941 59.1221 105.534V95.4477C59.1177 93.6808 58.4079 91.9885 57.1502 90.7475C55.8926 89.5065 54.1906 88.8203 52.4237 88.8395C51.9321 88.8203 51.4606 89.0402 51.1582 89.4302C50.8409 89.8536 50.4606 90.2252 50.0303 90.5336C47.6789 92.2313 44.4028 91.744 42.6465 89.4364C42.3459 89.0446 41.8744 88.8229 41.381 88.8395C39.6124 88.8194 37.9086 89.5047 36.6484 90.7457C35.3872 91.9867 34.6738 93.6791 34.6668 95.4477ZM37.8079 95.4477C37.8122 93.7431 39.0191 92.2786 40.6912 91.9482C42.2854 93.6887 44.5369 94.6808 46.898 94.6808C49.2581 94.6808 51.5096 93.6887 53.1038 91.9482C54.7751 92.2786 55.9793 93.7439 55.9811 95.4477V103.872H37.8079V95.4477Z" fill="#FE7634"/>
<path d="M72.632 89.5748C76.6529 89.5748 79.9123 86.3155 79.9123 82.2945C79.9123 78.2735 76.6529 75.0142 72.632 75.0142C68.611 75.0142 65.3516 78.2744 65.3516 82.2945C65.3569 86.3137 68.6127 89.5696 72.632 89.5748ZM72.632 78.1561C74.9176 78.1552 76.7712 80.0088 76.7712 82.2945C76.7712 84.5802 74.9176 86.4338 72.632 86.4338C70.3463 86.4338 68.4927 84.581 68.4927 82.2945C68.4953 80.0097 70.3472 78.1587 72.632 78.1561Z" fill="#FE7634"/>
<path d="M60.4683 95.4477V105.534C60.4569 105.935 60.6129 106.321 60.8986 106.602C61.1843 106.882 61.5743 107.031 61.974 107.013H83.2882C84.1559 107.013 84.9227 106.402 84.9227 105.534V95.4477C84.9236 91.7501 81.8518 88.8395 78.1542 88.8395C77.6617 88.8203 77.1902 89.0402 76.8887 89.4302C76.5714 89.8536 76.1902 90.226 75.759 90.5336C73.4085 92.2313 70.1325 91.744 68.377 89.4364C68.0755 89.0446 67.604 88.8229 67.1106 88.8395C65.349 88.822 63.6549 89.5118 62.406 90.7536C61.1572 91.9955 60.4595 93.687 60.4683 95.4477ZM63.6093 95.4477C63.598 93.7501 64.7916 92.2821 66.4568 91.9482C69.3533 95.1146 74.1718 95.5861 77.6266 93.0402C78.0762 92.7168 78.4943 92.3513 78.8738 91.9473C80.5512 92.2751 81.7677 93.7378 81.7826 95.4477V103.872H63.6093V95.4477Z" fill="#FE7634"/>
<path d="M98.3616 89.5748C102.382 89.5748 105.641 86.3155 105.641 82.2945C105.641 78.2735 102.382 75.0142 98.3608 75.0142C94.3407 75.0142 91.0813 78.2744 91.0813 82.2945C91.0857 86.3137 94.3424 89.5704 98.3616 89.5748ZM98.3616 78.1561C100.647 78.1561 102.5 80.0088 102.5 82.2945C102.5 84.5802 100.647 86.4338 98.3616 86.4338C96.0751 86.4338 94.2223 84.5802 94.2223 82.2945C94.225 80.0097 96.0768 78.1587 98.3616 78.1561Z" fill="#FE7634"/>
<path d="M103.882 88.8395C103.39 88.8203 102.918 89.0402 102.617 89.4302C102.299 89.8536 101.918 90.2252 101.488 90.5336C99.1477 92.2689 95.8437 91.7808 94.1049 89.4425C93.8043 89.0499 93.3336 88.8255 92.8402 88.8395C89.1418 88.8395 86.0454 91.7501 86.0454 95.4477V105.534C86.0454 106.402 86.8359 107.013 87.7036 107.013H109.018C109.416 107.03 109.801 106.88 110.084 106.599C110.365 106.318 110.516 105.932 110.499 105.534V95.4477C110.513 93.6896 109.821 91.999 108.576 90.7571C107.333 89.5144 105.641 88.8238 103.883 88.8395H103.882ZM104.522 91.9464C106.186 92.2812 107.376 93.7509 107.36 95.4477V103.872H89.1865V95.4477C89.2084 93.7352 90.4292 92.2733 92.111 91.9464C93.7061 93.6843 95.9576 94.6738 98.3169 94.6738C100.676 94.6738 102.928 93.6843 104.523 91.9464H104.522Z" fill="#FE7634"/>
<path d="M19.9712 24.4041C24.8703 24.3971 28.837 20.4217 28.8334 15.5226V12.5971C28.8334 7.70237 24.8659 3.73486 19.9712 3.73486C15.0765 3.73486 11.109 7.70237 11.109 12.5971V15.5226C11.1046 20.4217 15.0721 24.3971 19.9712 24.4041ZM14.25 12.5971C14.25 9.43766 16.8109 6.87591 19.9712 6.87591C23.1307 6.87591 25.6924 9.43766 25.6924 12.5971V15.5226C25.6924 18.682 23.1307 21.2438 19.9712 21.2438C16.8109 21.2438 14.25 18.682 14.25 15.5226V12.5971Z" fill="#FE7634"/>
<path d="M0.564002 56.8749C0.556991 58.3438 1.14243 59.7539 2.18711 60.7863C3.23179 61.8196 4.64807 62.3884 6.11693 62.3647H6.11956L6.18178 62.4208C7.14321 62.4182 8.0871 62.1623 8.91706 61.6767L9.91529 95.2809C9.99855 97.6901 11.5296 99.8102 13.7908 100.646C16.0519 101.483 18.5944 100.871 20.2262 99.0959C21.8564 100.874 24.4006 101.489 26.6626 100.652C28.9255 99.8163 30.4566 97.6945 30.5381 95.2835L31.5354 61.7512C32.3619 62.228 33.3005 62.4795 34.2558 62.4786C35.7387 62.4751 37.1593 61.8827 38.2049 60.8301C39.2496 59.7784 39.8333 58.3543 39.8271 56.8714V34.4739C40.3205 29.4731 36.6764 25.0148 31.6774 24.503C31.3768 24.4697 31.0744 24.4513 30.7721 24.4478H26.9211C26.5215 24.4513 26.1367 24.6064 25.8467 24.8816L20.2262 30.1602L14.8241 24.8991C14.5313 24.6125 14.1387 24.4504 13.7294 24.4478H9.64272C7.21157 24.4469 4.87944 25.4153 3.16431 27.1383C1.4483 28.8605 0.489508 31.1961 0.500025 33.6273C0.500025 33.9077 0.564002 34.1943 0.564002 34.4739V56.8749ZM24.6398 97.8812C23.901 97.8786 23.1938 97.5815 22.6758 97.0556C22.157 96.5298 21.8695 95.8181 21.8783 95.0793V62.0475C21.8783 61.1798 21.1745 60.4769 20.3077 60.4769C19.4401 60.4769 18.7372 61.1798 18.7372 62.0475V95.0793C18.7188 96.613 17.4831 97.854 15.9494 97.8777C14.4156 97.9022 13.1413 96.7015 13.0747 95.1696L11.9065 56.5313H28.546L27.4198 95.1599C27.3812 96.6691 26.1499 97.8751 24.6398 97.8812ZM5.38162 29.3618C6.50869 28.226 8.04328 27.5879 9.64272 27.5888H13.0914L19.1114 33.4537C19.122 33.4634 19.1325 33.4765 19.143 33.4853C19.164 33.5054 19.1859 33.5265 19.2079 33.5449C19.2263 33.5607 19.2455 33.5764 19.2648 33.5913C19.2841 33.6054 19.3095 33.6246 19.3332 33.6404C19.3568 33.6553 19.3744 33.6676 19.3954 33.6798C19.4164 33.693 19.441 33.7079 19.4655 33.7202C19.4901 33.7324 19.5102 33.7429 19.533 33.7543C19.5549 33.7666 19.5777 33.7754 19.6014 33.785C19.6259 33.7947 19.6504 33.8052 19.675 33.8139C19.6995 33.8227 19.7197 33.8297 19.7442 33.8358C19.7688 33.8429 19.795 33.8507 19.8205 33.8578C19.8459 33.8639 19.8669 33.8683 19.8906 33.8735C19.9142 33.8779 19.9423 33.8832 19.9686 33.8876C19.9949 33.8911 20.0168 33.8937 20.0404 33.8963C20.0641 33.899 20.0921 33.9016 20.1176 33.9025C20.143 33.9042 20.1666 33.9051 20.1912 33.9051H20.2666C20.292 33.9051 20.3174 33.9025 20.3428 33.9007C20.3682 33.8981 20.3919 33.8954 20.4155 33.8919C20.4401 33.8884 20.4673 33.8849 20.4935 33.8797C20.519 33.8753 20.54 33.8709 20.5637 33.8648C20.5873 33.8595 20.6154 33.8525 20.6408 33.8455C20.6662 33.8376 20.6872 33.8315 20.71 33.8227C20.7328 33.8139 20.76 33.8052 20.7845 33.7955C20.8091 33.785 20.8292 33.7763 20.8529 33.7666C20.8765 33.7561 20.9002 33.7438 20.9239 33.7324C20.9466 33.7202 20.9686 33.7079 20.9913 33.6956C21.0133 33.6825 21.036 33.6693 21.058 33.6544C21.0807 33.6404 21.1035 33.6255 21.1237 33.6097C21.1438 33.594 21.1658 33.5791 21.1859 33.5624C21.2061 33.5458 21.2271 33.5282 21.2464 33.5107C21.2578 33.5011 21.27 33.4835 21.2814 33.473L27.5434 27.5888H30.7712C32.5775 27.6168 34.2821 28.431 35.4398 29.8184C36.4442 31.0594 36.9087 32.6518 36.7299 34.2381C36.7246 34.2907 36.6852 34.3459 36.6852 34.3985V56.8714C36.6852 58.2342 35.5809 59.3394 34.2172 59.3394C32.8544 59.3394 31.7493 58.2342 31.7493 56.8714V51.9801L31.7721 51.1984C31.7747 51.0888 31.7493 50.9819 31.7493 50.8776V41.8296C31.7493 40.9619 31.0464 40.259 30.1787 40.259C29.312 40.259 28.6082 40.9619 28.6082 41.8296V51.9319L28.6389 53.3903H11.8136L11.775 51.0836C11.7724 51.01 11.782 50.9591 11.782 50.8881V41.8296C11.782 40.9619 11.0783 40.259 10.2115 40.259C9.34387 40.259 8.64099 40.9619 8.64099 41.8296V56.761C8.63836 57.4183 8.37456 58.0475 7.90743 58.5094C7.43943 58.9713 6.80754 59.2289 6.15023 59.2237H6.11693C5.47803 59.2465 4.85841 59.0054 4.40092 58.5585C3.94607 58.1176 3.69454 57.5077 3.70505 56.874V34.3985C3.70505 34.345 3.67701 34.2925 3.67175 34.2399C3.65159 34.0374 3.6288 33.8297 3.6288 33.6273C3.61916 32.0287 4.25106 30.4923 5.38162 29.3618Z" fill="#FE7634"/>
<path d="M43.1873 17.9411H45.6605V50.0247C45.664 51.6977 46.3336 53.2998 47.5202 54.4786C48.7078 55.6574 50.3142 56.3147 51.9873 56.3068H71.7459L60.853 66.034C60.3658 66.4696 60.1975 67.1611 60.4289 67.772C60.6602 68.3837 61.2448 68.7895 61.8986 68.793C62.2833 68.7947 62.6549 68.6545 62.9424 68.3986L74.9799 57.6757L87.0174 68.4004C87.6641 68.977 88.6571 68.9201 89.2347 68.2724C89.8113 67.6168 89.7544 66.6195 89.1067 66.0332L78.2138 56.3068H97.9725C99.6368 56.312 101.234 55.6504 102.407 54.4707C103.581 53.2902 104.233 51.689 104.219 50.0247V17.9411H106.852C107.739 17.9262 108.457 17.2154 108.481 16.3285V5.54604C108.448 4.6784 107.72 4.00093 106.852 4.03073H43.1873C42.7771 4.01846 42.3792 4.17271 42.0847 4.45754C41.7903 4.74325 41.6229 5.13588 41.622 5.54604V16.3285C41.6159 17.2032 42.3126 17.9209 43.1873 17.9411ZM101.078 50.0247C101.093 50.8564 100.772 51.6592 100.187 52.2499C99.6026 52.8415 98.8042 53.1719 97.9725 53.1657H51.9873C51.1477 53.1754 50.3388 52.8485 49.7402 52.2586C49.1425 51.6688 48.8042 50.8652 48.8015 50.0247V17.9411H101.078V50.0247ZM44.763 7.17178H105.34V14.8H44.763V7.17178Z" fill="#FE7634"/>
<path d="M55.9811 30.2812H84.9236C85.7904 30.2812 86.4942 29.5783 86.4942 28.7107C86.4942 27.8439 85.7904 27.1401 84.9236 27.1401H55.9811C55.1135 27.1401 54.4106 27.8439 54.4106 28.7107C54.4106 29.5783 55.1135 30.2812 55.9811 30.2812Z" fill="#FE7634"/>
<path d="M55.9811 36.5634H94.1224C94.9892 36.5634 95.693 35.8605 95.693 34.9929C95.693 34.1261 94.9892 33.4224 94.1224 33.4224H55.9811C55.1135 33.4224 54.4106 34.1261 54.4106 34.9929C54.4106 35.8605 55.1135 36.5634 55.9811 36.5634Z" fill="#FE7634"/>
<path d="M55.9811 42.621H94.1224C94.9892 42.621 95.693 41.9182 95.693 41.0505C95.693 40.1837 94.9892 39.48 94.1224 39.48H55.9811C55.1135 39.48 54.4106 40.1837 54.4106 41.0505C54.4106 41.9182 55.1135 42.621 55.9811 42.621Z" fill="#FE7634"/>
</g>
<defs>
<clipPath id="clip0_2_759">
<rect width="110" height="110" fill="white" transform="translate(0.5 0.306152)"/>
</clipPath>
</defs>
</svg>
