<svg width="111" height="111" viewBox="0 0 111 111" fill="none" xmlns="http://www.w3.org/2000/svg">
<path d="M28 60.4624C34.205 60.4665 40.1676 58.0536 44.6235 53.7354L45.6909 54.8028C45.8505 54.9624 46.04 55.089 46.2485 55.1753C46.457 55.2617 46.6805 55.3062 46.9062 55.3062H72.6875V51.8687H47.618L46.9353 51.1859C50.2624 46.9762 52.0693 41.7657 52.0625 36.3999C52.0625 35.9441 51.8814 35.5069 51.5591 35.1846C51.2368 34.8622 50.7996 34.6812 50.3438 34.6812H29.7188V14.0562C29.7188 13.6003 29.5377 13.1631 29.2153 12.8408C28.893 12.5185 28.4558 12.3374 28 12.3374C21.6182 12.3374 15.4978 14.8726 10.9852 19.3851C6.47265 23.8977 3.9375 30.0181 3.9375 36.3999C3.9375 42.7817 6.47265 48.9021 10.9852 53.4147C15.4978 57.9273 21.6182 60.4624 28 60.4624ZM13.4469 21.8468C16.8755 18.3843 21.4258 16.2569 26.2812 15.8464V36.3999C26.2812 36.8557 26.4623 37.2929 26.7847 37.6152C27.107 37.9376 27.5442 38.1187 28 38.1187H48.5535C48.231 41.971 46.819 45.6521 44.4824 48.7319L39.5279 43.7774L37.0971 46.2082L42.1928 51.3038C38.2757 55.0603 33.0333 57.1175 27.6067 57.0275C22.1802 56.9375 17.0089 54.7077 13.2185 50.8234C9.42801 46.9391 7.32531 41.7148 7.36806 36.2877C7.41081 30.8606 9.59554 25.6701 13.4467 21.846L13.4469 21.8468Z" fill="#FE7634"/>
<path d="M36.5938 29.5249H58.9375C59.3933 29.5249 59.8305 29.3438 60.1528 29.0215C60.4752 28.6992 60.6562 28.262 60.6562 27.8062C60.662 23.7085 59.6081 19.6789 57.5969 16.1088L59.6493 14.0562H72.6875V10.6187H58.9375C58.7118 10.6186 58.4883 10.6631 58.2798 10.7495C58.0712 10.8358 57.8817 10.9624 57.7221 11.122L55.6577 13.1863C55.0152 12.3552 54.3204 11.5658 53.5776 10.823C51.3553 8.57861 48.71 6.7973 45.7948 5.58213C42.8795 4.36697 39.7521 3.74209 36.5938 3.74366C36.1379 3.74366 35.7007 3.92474 35.3784 4.24707C35.0561 4.56939 34.875 5.00656 34.875 5.46241V27.8062C34.875 28.262 35.0561 28.6992 35.3784 29.0215C35.7007 29.3438 36.1379 29.5249 36.5938 29.5249ZM38.3125 7.2527C43.168 7.66318 47.7183 9.79055 51.1468 13.2531C51.8899 13.9977 52.5766 14.7965 53.2012 15.643L49.1284 19.7158L51.5591 22.1465L55.0525 18.6532C56.2198 20.9742 56.9309 23.4977 57.1472 26.0868H38.3125V7.2527Z" fill="#FE7634"/>
<path d="M40.0312 62.1812C39.5754 62.1812 39.1382 62.3622 38.8159 62.6846C38.4936 63.0069 38.3125 63.4441 38.3125 63.8999V98.2749C38.3125 98.7307 38.4936 99.1679 38.8159 99.4902C39.1382 99.8126 39.5754 99.9937 40.0312 99.9937H46.9062C47.3621 99.9937 47.7993 99.8126 48.1216 99.4902C48.4439 99.1679 48.625 98.7307 48.625 98.2749V63.8999C48.625 63.4441 48.4439 63.0069 48.1216 62.6846C47.7993 62.3622 47.3621 62.1812 46.9062 62.1812H40.0312ZM45.1875 96.5562H41.75V65.6187H45.1875V96.5562Z" fill="#FE7634"/>
<path d="M26.2812 69.0562C25.8254 69.0562 25.3882 69.2372 25.0659 69.5596C24.7436 69.8819 24.5625 70.3191 24.5625 70.7749V98.2749C24.5625 98.7307 24.7436 99.1679 25.0659 99.4902C25.3882 99.8126 25.8254 99.9937 26.2812 99.9937H33.1562C33.6121 99.9937 34.0493 99.8126 34.3716 99.4902C34.6939 99.1679 34.875 98.7307 34.875 98.2749V70.7749C34.875 70.3191 34.6939 69.8819 34.3716 69.5596C34.0493 69.2372 33.6121 69.0562 33.1562 69.0562H26.2812ZM31.4375 96.5562H28V72.4937H31.4375V96.5562Z" fill="#FE7634"/>
<path d="M12.5312 79.3687C12.0754 79.3687 11.6382 79.5497 11.3159 79.8721C10.9936 80.1944 10.8125 80.6316 10.8125 81.0874V98.2749C10.8125 98.7307 10.9936 99.1679 11.3159 99.4902C11.6382 99.8126 12.0754 99.9937 12.5312 99.9937H19.4062C19.8621 99.9937 20.2993 99.8126 20.6216 99.4902C20.9439 99.1679 21.125 98.7307 21.125 98.2749V81.0874C21.125 80.6316 20.9439 80.1944 20.6216 79.8721C20.2993 79.5497 19.8621 79.3687 19.4062 79.3687H12.5312ZM17.6875 96.5562H14.25V82.8062H17.6875V96.5562Z" fill="#FE7634"/>
<path d="M7.375 62.1812H3.9375V105.15C3.9375 105.606 4.11858 106.043 4.44091 106.365C4.76324 106.688 5.20041 106.869 5.65625 106.869H55.5V103.431H7.375V62.1812Z" fill="#FE7634"/>
<path d="M76.125 10.6187H89.875V14.0562H76.125V10.6187Z" fill="#FE7634"/>
<path d="M76.125 17.4937H89.875V20.9312H76.125V17.4937Z" fill="#FE7634"/>
<path d="M76.125 24.3687H89.875V27.8062H76.125V24.3687Z" fill="#FE7634"/>
<path d="M93.3125 17.4937H107.062V20.9312H93.3125V17.4937Z" fill="#FE7634"/>
<path d="M93.3125 24.3687H107.062V27.8062H93.3125V24.3687Z" fill="#FE7634"/>
<path d="M76.125 51.8687H89.875V55.3062H76.125V51.8687Z" fill="#FE7634"/>
<path d="M93.3125 51.8687H107.062V55.3062H93.3125V51.8687Z" fill="#FE7634"/>
<path d="M76.125 44.9937H89.875V48.4312H76.125V44.9937Z" fill="#FE7634"/>
<path d="M93.3125 44.9937H107.062V48.4312H93.3125V44.9937Z" fill="#FE7634"/>
<path d="M76.125 38.1187H89.875V41.5562H76.125V38.1187Z" fill="#FE7634"/>
<path d="M93.3125 38.1187H107.062V41.5562H93.3125V38.1187Z" fill="#FE7634"/>
<path d="M106.002 65.7495C105.688 65.6194 105.342 65.5853 105.008 65.6516C104.675 65.7179 104.369 65.8816 104.128 66.122L86.4375 83.8131L79.0591 76.4345C78.8995 76.2749 78.71 76.1483 78.5015 76.0619C78.293 75.9755 78.0695 75.9311 77.8438 75.9311C77.618 75.9311 77.3945 75.9755 77.186 76.0619C76.9775 76.1483 76.788 76.2749 76.6284 76.4345L66.3159 86.747C66.1563 86.9066 66.0297 87.0961 65.9433 87.3047C65.8569 87.5132 65.8125 87.7367 65.8125 87.9624V103.431H62.375V62.1812H58.9375V105.15C58.9375 105.606 59.1186 106.043 59.4409 106.365C59.7632 106.688 60.2004 106.869 60.6562 106.869H107.062V67.3374C107.063 66.9975 106.962 66.6652 106.773 66.3825C106.584 66.0999 106.316 65.8796 106.002 65.7495ZM77.8438 80.0804L85.2221 87.459C85.3817 87.6186 85.5712 87.7452 85.7797 87.8316C85.9883 87.918 86.2118 87.9625 86.4375 87.9625C86.6632 87.9625 86.8867 87.918 87.0953 87.8316C87.3038 87.7452 87.4933 87.6186 87.6529 87.459L103.625 71.4867V88.9692L103.122 88.4658C102.962 88.3062 102.773 88.1796 102.564 88.0932C102.355 88.0068 102.132 87.9623 101.906 87.9623C101.681 87.9623 101.457 88.0068 101.248 88.0932C101.04 88.1796 100.85 88.3062 100.691 88.4658L93.3125 95.8444L89.3716 91.9033C89.212 91.7437 89.0225 91.6171 88.814 91.5307C88.6055 91.4443 88.382 91.3998 88.1562 91.3998C87.9305 91.3998 87.707 91.4443 87.4985 91.5307C87.29 91.6171 87.1005 91.7437 86.9409 91.9033L83 95.8444L75.6216 88.4658C75.462 88.3062 75.2725 88.1796 75.064 88.0932C74.8555 88.0068 74.632 87.9623 74.4062 87.9623C74.1805 87.9623 73.957 88.0068 73.7485 88.0932C73.54 88.1796 73.3505 88.3062 73.1909 88.4658L69.25 92.4067V88.6742L77.8438 80.0804ZM69.25 103.431V97.2681L74.4062 92.1119L81.7846 99.4905C81.9442 99.6501 82.1337 99.7767 82.3422 99.8631C82.5508 99.9495 82.7743 99.9939 83 99.9939C83.2257 99.9939 83.4492 99.9495 83.6578 99.8631C83.8663 99.7767 84.0558 99.6501 84.2154 99.4905L88.1562 95.5492L92.0971 99.4903C92.2567 99.6499 92.4462 99.7765 92.6547 99.8629C92.8633 99.9493 93.0868 99.9937 93.3125 99.9937C93.5382 99.9937 93.7617 99.9493 93.9703 99.8629C94.1788 99.7765 94.3683 99.6499 94.5279 99.4903L101.906 92.1117L103.625 93.8304V103.431H69.25Z" fill="#FE7634"/>
</svg>
