<svg width="127" height="127" viewBox="0 0 127 127" fill="none" xmlns="http://www.w3.org/2000/svg">
<path d="M90.1119 82.488L71.0805 93.5728C70.3525 93.9968 69.6147 94.3231 68.8543 94.5542C69.0883 94.0851 69.28 93.5774 69.426 93.0336C70.4372 89.2585 68.1982 85.3185 64.3284 84.0642C64.244 84.0369 64.1581 84.0152 64.0707 83.9995C58.6249 83.0173 53.2391 81.0702 48.9116 79.5058C47.4018 78.96 45.9757 78.4444 44.7607 78.0504C39.7835 76.4358 35.3107 78.4195 31.5908 80.5729L17.6766 88.6287L16.4811 86.5163C15.1852 84.2271 12.2682 83.4187 9.97931 84.7141L4.63982 87.7362C2.35041 89.0316 1.54174 91.9483 2.83767 94.2379L18.5362 121.977C19.1625 123.083 20.1846 123.88 21.4148 124.221C21.8403 124.339 22.2719 124.397 22.7014 124.397C23.5132 124.397 24.3145 124.188 25.038 123.779L30.3778 120.757C32.6672 119.461 33.4756 116.544 32.1797 114.255L30.6979 111.637L33.5846 109.97L57.8477 116.471C59.2173 116.838 60.5799 117.021 61.9201 117.021C64.6313 117.021 67.2507 116.274 69.6455 114.8L104.183 93.5331C107.455 91.5186 108.498 86.4513 106.372 82.9014C105.342 81.1824 101.126 76.0733 90.1119 82.488ZM28.4383 117.33L23.0986 120.352C22.7061 120.574 22.1856 120.431 21.9628 120.037L6.26453 92.299C6.04206 91.9057 6.18602 91.3857 6.57904 91.1633L11.9188 88.1412C12.0445 88.0701 12.1831 88.0364 12.3209 88.0364C12.614 88.0364 12.9032 88.1887 13.0545 88.4562L28.7531 116.195C28.9755 116.587 28.8316 117.107 28.4383 117.33ZM102.118 90.1804L67.5813 111.447C64.9101 113.091 61.9779 113.502 58.8671 112.668L33.8162 105.955C33.312 105.82 32.7745 105.891 32.3224 106.152L28.7587 108.209L19.6166 92.0556L33.5644 83.9803C36.6825 82.1749 40.0505 80.6614 43.5465 81.7954C44.6997 82.1693 46.0313 82.6509 47.5733 83.2083C52.0028 84.8096 57.5064 86.7993 63.2276 87.8479C65.0637 88.4998 66.0902 90.2709 65.6228 92.0142C65.0074 94.3108 63.0763 94.5958 61.536 94.421C58.7494 93.8472 56.0961 93.0899 53.2886 92.2884C51.9506 91.9062 50.5673 91.5112 49.1444 91.1298C48.0943 90.8487 47.0147 91.4719 46.7332 92.5219C46.4516 93.572 47.0752 94.6516 48.1253 94.9332C49.517 95.306 50.8848 95.6965 52.2073 96.0743C55.1173 96.9054 57.866 97.6904 60.8309 98.2965C60.8437 98.2992 60.8562 98.3 60.869 98.3024C60.8826 98.3049 60.8956 98.3088 60.9092 98.3111L63.2763 98.6957C66.8836 99.2725 70.0838 98.7097 73.0622 96.975L92.0937 85.8902C97.4223 82.787 101.497 82.4255 102.994 84.9243C104.016 86.6317 103.574 89.2841 102.118 90.1804ZM13.3301 93.2546C13.4825 94.2965 12.7614 95.2644 11.7194 95.4167C10.6777 95.5691 9.7096 94.848 9.55726 93.8061C9.40493 92.7643 10.126 91.7962 11.1679 91.6439C12.2099 91.4915 13.1778 92.2128 13.3301 93.2546ZM56.6973 28.8774C54.794 28.8774 53.121 30.0926 52.5329 31.9031C51.9435 33.7166 52.5855 35.6861 54.1303 36.8041L61.6258 42.228C61.7963 42.3515 61.8522 42.5228 61.7865 42.7231L58.9101 51.5173C58.3178 53.3298 58.9564 55.3005 60.4987 56.4207C61.2689 56.9803 62.1709 57.2599 63.0726 57.2599C63.9772 57.2599 64.8818 56.9784 65.6531 56.4158L73.128 50.9631C73.2983 50.8388 73.4784 50.8393 73.6482 50.9631L81.1228 56.4158C82.6636 57.5397 84.7352 57.5414 86.2777 56.4205C87.82 55.2998 88.4579 53.329 87.8655 51.5168L84.9894 42.7231C84.924 42.5228 84.9796 42.3518 85.1501 42.2282L92.6457 36.8043C94.1906 35.6866 94.8327 33.7169 94.2433 31.9034C93.6546 30.0926 91.9822 28.8777 90.0789 28.8777C90.0759 28.8777 90.0732 28.8777 90.0703 28.8777L80.8179 28.8954C80.8176 28.8954 80.8172 28.8954 80.8167 28.8954C80.6065 28.8954 80.4618 28.7898 80.3971 28.5895L77.5547 19.7847C76.969 17.9701 75.2943 16.7509 73.3871 16.7509C71.4806 16.7511 69.8059 17.9703 69.22 19.7847L66.3781 28.5895C66.3131 28.7896 66.1679 28.8954 65.958 28.8954C65.9575 28.8954 65.957 28.8954 65.9568 28.8954L56.7046 28.8777C56.7032 28.8774 56.7002 28.8774 56.6973 28.8774ZM65.959 32.8329C67.866 32.8329 69.5399 31.6147 70.1263 29.7993L72.9685 20.9945C73.0332 20.7945 73.1786 20.6884 73.3886 20.6884C73.5987 20.6884 73.7439 20.794 73.8086 20.9941L76.651 29.7988C77.2367 31.6147 78.9107 32.8331 80.8181 32.8331H80.8268L90.0791 32.8154H90.0804C90.29 32.8154 90.4347 32.921 90.4997 33.1206C90.5647 33.3204 90.5091 33.4912 90.3388 33.6145L82.8435 39.0384C81.2951 40.1584 80.6542 42.131 81.2483 43.9475L84.1242 52.7406C84.1899 52.9407 84.1343 53.1117 83.9644 53.2353C83.7946 53.3591 83.6145 53.3583 83.4447 53.2348L75.9701 47.7823C74.4268 46.6565 72.3525 46.6565 70.8085 47.7823L63.3337 53.235C63.1641 53.3591 62.984 53.3588 62.8139 53.2353C62.6441 53.1117 62.5885 52.9407 62.654 52.7411L65.5301 43.9475C66.1239 42.1318 65.4833 40.1591 63.9354 39.0386L56.4398 33.6145C56.2695 33.4914 56.2137 33.3204 56.2789 33.1201C56.3439 32.9205 56.4888 32.8152 56.6982 32.8152H56.6995L65.9516 32.8329H65.959ZM71.4196 11.5103V4.30176C71.4196 3.21452 72.3011 2.33301 73.3883 2.33301C74.4756 2.33301 75.3571 3.21452 75.3571 4.30176V11.5103C75.3571 12.5976 74.4756 13.4791 73.3883 13.4791C72.3011 13.4791 71.4196 12.5978 71.4196 11.5103ZM90.0257 20.3704C89.2569 19.6017 89.2569 18.3552 90.0257 17.5864L95.1231 12.4891C95.8926 11.7203 97.1388 11.7205 97.9074 12.4891C98.6762 13.2578 98.6762 14.5043 97.9074 15.2731L92.81 20.3704C92.4256 20.7548 91.9216 20.947 91.4179 20.947C90.9139 20.9473 90.4101 20.7548 90.0257 20.3704ZM48.8698 15.2734C48.101 14.5046 48.101 13.2581 48.8698 12.4893C49.6385 11.7207 50.8848 11.7203 51.6541 12.4893L56.7514 17.5866C57.5202 18.3554 57.5202 19.6019 56.7514 20.3707C56.367 20.7551 55.8632 20.9473 55.3592 20.9473C54.8555 20.9473 54.3515 20.7551 53.9671 20.3707L48.8698 15.2734ZM124.092 49.8648C123.577 48.2792 122.113 47.2153 120.447 47.2153C120.444 47.2153 120.441 47.2153 120.438 47.2153L113.354 47.2289L111.177 40.4866C110.665 38.8979 109.198 37.8306 107.529 37.8306C105.859 37.8308 104.393 38.8981 103.88 40.4866L101.704 47.2289L94.6193 47.2153C94.6164 47.2153 94.6142 47.2153 94.6114 47.2153C92.9454 47.2153 91.4809 48.279 90.9656 49.8648C90.4498 51.4523 91.0118 53.1767 92.3644 54.1554L98.104 58.3088L95.902 65.0424C95.3829 66.6292 95.9416 68.3548 97.2921 69.336C97.9664 69.8259 98.7562 70.0708 99.5459 70.0708C100.338 70.0708 101.13 69.8245 101.806 69.3318L107.529 65.1566L113.253 69.3318C114.602 70.3159 116.416 70.3171 117.766 69.336C119.116 68.3548 119.675 66.6294 119.156 65.0426L116.954 58.309L122.694 54.1557C124.046 53.1767 124.608 51.4521 124.092 49.8648ZM114.585 55.1629C113.229 56.1436 112.668 57.871 113.188 59.461L115.314 65.9618L109.788 61.931C108.437 60.9449 106.621 60.9452 105.269 61.931L99.7437 65.9618L101.87 59.4607C102.389 57.871 101.828 56.1436 100.473 55.1632L94.9319 51.1536L101.772 51.1666H101.779C103.448 51.1666 104.914 50.1001 105.428 48.5105L107.529 42.0016L109.63 48.5108C110.143 50.1003 111.608 51.1669 113.278 51.1669H113.286L120.125 51.1538L114.585 55.1629ZM23.9619 54.1554L29.7015 58.3088L27.4995 65.0424C26.9805 66.6292 27.5391 68.3548 28.8897 69.336C29.5642 69.8262 30.3539 70.071 31.1434 70.071C31.9356 70.071 32.7275 69.8247 33.4028 69.3318L39.1267 65.1566L44.8506 69.3318C46.1991 70.3159 48.0131 70.3171 49.3637 69.336C50.7137 68.3548 51.2726 66.6294 50.7538 65.0426L48.5518 58.309L54.2912 54.1557C55.6437 53.177 56.2058 51.4528 55.6902 49.8645C55.1747 48.2792 53.7102 47.2156 52.0446 47.2156C52.0419 47.2156 52.0392 47.2156 52.0365 47.2156L44.9517 47.2291L42.7755 40.4869C42.2626 38.8981 40.7964 37.8308 39.1267 37.8308C37.4572 37.831 35.9912 38.8984 35.4783 40.4869L33.3019 47.2291L26.2176 47.2156C26.2146 47.2156 26.2124 47.2156 26.2097 47.2156C24.5436 47.2156 23.0789 48.2792 22.5636 49.865C22.0473 51.4523 22.6096 53.1767 23.9619 54.1554ZM33.3693 51.1666H33.3767C35.0469 51.1666 36.5126 50.0998 37.0253 48.5105L39.1264 42.0016L41.2273 48.5108C41.7407 50.1003 43.2062 51.1669 44.8759 51.1669H44.8833L51.723 51.1538L46.1817 55.1634C44.8262 56.1441 44.2651 57.8714 44.7853 59.4612L46.9113 65.962L41.3858 61.9313C40.71 61.4383 39.9181 61.1917 39.1262 61.1917C38.3342 61.1917 37.5423 61.4383 36.8665 61.9313L31.341 65.962L33.467 59.4612C33.9867 57.8714 33.4257 56.1441 32.0704 55.1637L26.5291 51.1541L33.3693 51.1666Z" fill="#FE7634"/>
</svg>
