<svg width="247" height="37" viewBox="0 0 247 37" fill="none" xmlns="http://www.w3.org/2000/svg">
<g clip-path="url(#clip0_192_125)">
<path d="M15.4235 13.2332C15.4235 13.2332 13.3892 13.0344 13.3892 14.8155V22.727H26.8232V25.1012C26.8232 25.1012 26.8633 26.2875 25.6019 26.2875H13.3892V36.5732H28.0445C28.0445 36.5732 36.9179 35.2275 36.9999 26.2875V13.2332H15.4235ZM36.5917 0.573242H10.1318C0.564016 2.7881 0.361633 10.5024 0.361633 10.5024V36.5732H10.5401V12.8372C10.5401 10.8195 12.5744 10.4647 12.5744 10.4647H36.5934L36.5917 0.573242ZM71.5237 29.1127C70.8258 29.5704 70.3094 29.9064 69.9447 30.1207C68.6397 30.9144 67.3958 31.5264 66.2425 32.015C64.5729 32.687 63.0847 33.023 61.75 33.023C57.1667 33.023 53.372 31.6481 50.3049 28.8675C47.2377 26.087 45.7233 22.6052 45.7233 18.3898C45.7233 14.327 47.0894 10.8127 49.8512 7.81781C52.6131 4.82467 55.9524 3.35724 59.8989 3.35724C61.5389 3.35724 63.2975 3.63153 65.119 4.21439C67.4865 4.94639 69.3987 6.04696 70.9165 7.48181L68.2751 10.3532C67.1533 9.28524 65.6964 8.48981 63.9954 8.00124C62.7218 7.63439 61.326 7.45267 59.7767 7.45267C57.0149 7.45267 54.677 8.54981 52.8259 10.7201C50.9748 12.9195 50.0344 15.5167 50.0344 18.5715C50.0344 21.5972 51.0952 24.071 53.2202 26.0578C55.3453 28.043 58.046 29.051 61.3243 29.051C62.6904 29.051 64.0878 28.6224 65.5133 27.7995C66.6979 26.9132 67.305 26.4847 67.3347 26.4538V20.1915H58.4717L59.7453 16.2812H71.5237V29.1127ZM98.2958 21.4738C98.2958 24.4978 97.2036 27.1258 95.0176 29.3252C92.8315 31.5247 90.1307 32.6561 86.9135 32.6561C83.9388 32.6561 81.3288 31.5555 79.0816 29.387C76.8345 27.2184 75.7423 24.5904 75.7423 21.5047C75.7423 18.4498 76.8066 15.8218 78.9298 13.5607C81.0531 11.2995 83.6649 10.2007 86.7303 10.2007C90.1307 10.2007 92.8925 11.2704 95.0472 13.439C97.2036 15.5475 98.2958 18.2355 98.2958 21.4738ZM94.1365 21.5355C94.1365 19.4887 93.4386 17.747 92.0429 16.3412C90.6471 14.9047 88.9164 14.2018 86.8524 14.2018C84.9106 14.2018 83.2706 14.9355 81.9045 16.403C80.5384 17.8687 79.8702 19.5487 79.8702 21.443C79.8702 23.4298 80.5681 25.1098 81.9342 26.5155C83.3003 27.9212 85.0013 28.6532 87.0636 28.6532C88.9775 28.6532 90.6157 27.9504 92.0132 26.5447C93.4386 25.139 94.1365 23.459 94.1365 21.5355ZM124.703 21.4738C124.703 24.4978 123.611 27.1258 121.425 29.3252C119.239 31.5247 116.538 32.6561 113.321 32.6561C110.346 32.6561 107.736 31.5555 105.489 29.387C103.244 27.2184 102.15 24.5904 102.15 21.5047C102.15 18.4498 103.214 15.8218 105.337 13.5607C107.462 11.2995 110.072 10.2007 113.138 10.2007C116.538 10.2007 119.3 11.2704 121.455 13.439C123.611 15.5475 124.703 18.2355 124.703 21.4738ZM120.544 21.5355C120.544 19.4887 119.846 17.747 118.45 16.3412C117.055 14.9047 115.324 14.2018 113.26 14.2018C111.318 14.2018 109.678 14.9355 108.312 16.403C106.946 17.8687 106.278 19.5487 106.278 21.443C106.278 23.4298 106.976 25.1098 108.343 26.5155C109.708 27.9212 111.409 28.6532 113.473 28.6532C115.385 28.6532 117.023 27.9504 118.421 26.5447C119.846 25.139 120.544 23.459 120.544 21.5355ZM149.139 32.0441L145.315 32.6252V28.9892L144.495 29.9047C143.773 30.5695 142.954 31.1258 142.066 31.5555C140.763 32.1462 139.344 32.4487 137.909 32.4418C134.934 32.4418 132.383 31.3721 130.319 29.2018C128.255 27.0315 127.224 24.467 127.224 21.4738C127.224 18.3881 128.255 15.731 130.29 13.5298C132.324 11.3287 134.812 10.2298 137.787 10.2298C139.488 10.2298 140.974 10.5041 142.218 11.0544C143.099 11.4521 143.858 11.9715 144.495 12.6144C144.708 12.8887 144.921 13.1938 145.133 13.4681V3.93667L149.199 3.35553L149.139 32.0441ZM145.557 21.7481C145.557 19.6104 144.828 17.807 143.342 16.3412C141.855 14.843 140.184 14.111 138.273 14.111C136.148 14.111 134.449 14.8138 133.144 16.2195C131.928 17.5618 131.291 19.2127 131.291 21.1378C131.291 23.3064 131.928 25.1081 133.203 26.5138C134.477 27.9195 136.087 28.6224 138.061 28.6224C140.002 28.6224 141.703 27.9812 143.221 26.6681C144.769 25.3224 145.557 23.6732 145.557 21.7481ZM170.599 7.91039H159.217V15.5167H168.048V19.427H159.217V32.015L154.785 32.6561V3.96753H169.718L170.599 7.91039ZM179.736 5.67838L177.004 9.06924L174.394 5.67838L177.155 2.31839L179.736 5.67838ZM178.916 32.0441L174.849 32.5944V11.3612L178.916 10.751V32.0441ZM197.28 10.5367L195.368 14.8738C195.117 14.8362 194.863 14.8161 194.609 14.8138C194.215 14.8138 193.821 14.8447 193.425 14.9047C193.028 14.9647 192.605 15.119 192.151 15.3332C191.301 15.7001 190.572 16.4938 189.935 17.6852C189.23 19.0374 188.866 20.5358 188.871 22.055V32.015L184.806 32.6561V11.3612L188.569 10.6892V15.119C189.054 14.3544 189.571 13.5915 190.056 12.7978C190.753 12.0024 191.573 11.423 192.484 11.0852C192.969 10.9035 193.85 10.7492 195.185 10.6275C196.46 10.5367 197.19 10.475 197.28 10.5367ZM227.571 32.0441L223.505 32.6252V18.0521C223.505 16.7064 223.201 15.7292 222.594 15.119C221.987 14.507 221.076 14.2018 219.891 14.2018C218.466 14.2018 217.372 14.783 216.645 15.9435C216.158 16.7372 215.886 17.5927 215.886 18.4481V32.0132L211.819 32.747V18.143C211.819 16.8607 211.515 15.8818 210.938 15.2115C210.33 14.5378 209.542 14.2018 208.509 14.2018H208.115C206.688 14.2018 205.655 14.783 205.018 15.9744C204.533 16.8607 204.29 17.9904 204.29 19.3652V32.0132L200.072 32.747V11.3612L203.865 10.7201V13.439C204.29 12.7961 204.714 12.2767 205.11 11.9115C206.203 10.9035 207.478 10.4132 208.903 10.4132C210.512 10.4132 211.695 10.6584 212.515 11.1778C213.213 11.6064 213.881 12.4601 214.549 13.6824C215.945 11.5138 217.918 10.4132 220.53 10.4132C223.018 10.4132 224.871 11.1778 226.083 12.7361C227.086 14.0184 227.571 15.9127 227.571 18.3881V32.0441ZM246.152 25.5984C246.152 27.5527 245.454 29.1727 244.059 30.4258C242.663 31.7081 240.901 32.3201 238.776 32.3201C237.167 32.3201 235.74 31.9532 234.435 31.2195C233.13 30.4875 232.16 29.6612 231.521 28.6841L234.376 26.1795C234.587 26.4847 234.77 26.7281 234.951 26.9115C236.016 27.9812 237.289 28.5315 238.776 28.5315C239.809 28.5315 240.629 28.2572 241.204 27.7378C241.812 27.2184 242.085 26.4847 242.085 25.5367C242.085 24.4687 241.388 23.735 239.992 23.3372C237.228 22.5127 235.74 22.055 235.529 21.9624C234.254 21.3212 233.343 20.6492 232.765 19.8847C232.129 18.9984 231.795 17.8378 231.795 16.3412C231.795 14.507 232.493 12.9812 233.859 11.759C235.225 10.5367 236.864 9.95553 238.744 9.95553C240.173 9.95553 241.508 10.2607 242.722 10.9035C243.937 11.5447 244.816 12.2167 245.332 13.0121L242.904 15.6075C242.539 15.2488 242.143 14.9218 241.721 14.6304C240.749 13.9584 239.809 13.6224 238.929 13.6224C238.078 13.6224 237.38 13.8058 236.834 14.171C236.195 14.6304 235.862 15.3024 235.862 16.1887C235.862 17.0441 236.166 17.6852 236.804 18.083C237.35 18.419 238.504 18.7858 240.325 19.1818C242.145 19.6104 243.542 20.3441 244.544 21.383C245.667 22.4818 246.152 23.8567 246.152 25.5984Z" fill="#2B2B2B"/>
</g>
<defs>
<clipPath id="clip0_192_125">
<rect width="246" height="36" fill="white" transform="translate(0.361633 0.573242)"/>
</clipPath>
</defs>
</svg>
