<svg width="137" height="46" viewBox="0 0 137 46" fill="none" xmlns="http://www.w3.org/2000/svg">
<g clip-path="url(#clip0_1_243)">
<path d="M58.7649 24.3492C58.7649 30.8711 53.701 35.677 47.4864 35.677C41.2719 35.677 36.2079 30.8711 36.2079 24.3492C36.2079 17.7813 41.2719 13.0214 47.4864 13.0214C53.701 13.0214 58.7649 17.7813 58.7649 24.3492ZM53.8277 24.3492C53.8277 20.2736 50.8928 17.4851 47.4864 17.4851C44.0801 17.4851 41.1451 20.2736 41.1451 24.3492C41.1451 28.3839 44.0801 31.2133 47.4864 31.2133C50.8928 31.2133 53.8277 28.3788 53.8277 24.3492Z" fill="#EA4335"/>
<path d="M83.096 24.3492C83.096 30.8711 78.0321 35.677 71.8175 35.677C65.6029 35.677 60.539 30.8711 60.539 24.3492C60.539 17.7864 65.6029 13.0214 71.8175 13.0214C78.0321 13.0214 83.096 17.7813 83.096 24.3492ZM78.1588 24.3492C78.1588 20.2736 75.2239 17.4851 71.8175 17.4851C68.4111 17.4851 65.4762 20.2736 65.4762 24.3492C65.4762 28.3839 68.4111 31.2133 71.8175 31.2133C75.2239 31.2133 78.1588 28.3788 78.1588 24.3492Z" fill="#FBBC05"/>
<path d="M106.413 13.7057V34.0426C106.413 42.4083 101.516 45.825 95.7271 45.825C90.2779 45.825 86.9983 42.1529 85.7615 39.1498L90.06 37.347C90.8254 39.1907 92.7009 41.3664 95.722 41.3664C99.4275 41.3664 101.724 39.063 101.724 34.727V33.0978H101.551C100.446 34.4716 98.3173 35.6718 95.6308 35.6718C90.0093 35.6718 84.8592 30.7383 84.8592 24.39C84.8592 17.9957 90.0093 13.0213 95.6308 13.0213C98.3123 13.0213 100.441 14.2215 101.551 15.5545H101.724V13.7108H106.413V13.7057ZM102.073 24.39C102.073 20.4012 99.4325 17.485 96.0718 17.485C92.6654 17.485 89.8116 20.4012 89.8116 24.39C89.8116 28.3379 92.6654 31.2132 96.0718 31.2132C99.4325 31.2132 102.073 28.3379 102.073 24.39Z" fill="#4285F4"/>
<path d="M114.144 1.7854V34.9823H109.328V1.7854H114.144Z" fill="#34A853"/>
<path d="M132.909 28.0774L136.741 30.6515C135.504 32.4952 132.524 35.6719 127.374 35.6719C120.987 35.6719 116.217 30.6974 116.217 24.3441C116.217 17.6076 121.027 13.0162 126.821 13.0162C132.655 13.0162 135.509 17.6945 136.442 20.2225L136.954 21.5095L121.924 27.7812C123.075 30.0539 124.864 31.2133 127.374 31.2133C129.888 31.2133 131.632 29.9671 132.909 28.0774ZM121.113 24.0019L131.16 19.7986C130.608 18.3839 128.945 17.3982 126.988 17.3982C124.479 17.3982 120.987 19.6301 121.113 24.0019Z" fill="#EA4335"/>
<path d="M17.9792 21.4024V16.5965H34.053C34.2101 17.4341 34.2912 18.4249 34.2912 19.4974C34.2912 23.1031 33.3129 27.5617 30.16 30.7384C27.0933 33.956 23.1749 35.672 17.9843 35.672C8.36336 35.672 0.273254 27.7762 0.273254 18.0827C0.273254 8.38923 8.36336 0.493469 17.9843 0.493469C23.3067 0.493469 27.0983 2.59764 29.9471 5.34022L26.5813 8.73142C24.5385 6.80089 21.7708 5.29936 17.9792 5.29936C10.9536 5.29936 5.45883 11.0041 5.45883 18.0827C5.45883 25.1613 10.9536 30.8661 17.9792 30.8661C22.5362 30.8661 25.1316 29.0224 26.7942 27.3472C28.1425 25.9887 29.0296 24.048 29.3794 21.3973L17.9792 21.4024Z" fill="#4285F4"/>
<path d="M110.159 45.2183V39.3629H112.059C112.689 39.3629 113.163 39.4943 113.48 39.7571C113.799 40.0197 113.959 40.4083 113.959 40.9231C113.959 41.1965 113.881 41.4391 113.727 41.6509C113.573 41.8603 113.363 42.0225 113.096 42.1376C113.411 42.2262 113.658 42.395 113.839 42.6443C114.023 42.8911 114.114 43.1861 114.114 43.5293C114.114 44.0547 113.945 44.4675 113.607 44.7678C113.269 45.0682 112.792 45.2183 112.174 45.2183H110.159ZM110.925 42.4798V44.587H112.191C112.547 44.587 112.828 44.4944 113.033 44.3092C113.24 44.122 113.344 43.8647 113.344 43.5375C113.344 42.8324 112.963 42.4798 112.202 42.4798H110.925ZM110.925 41.8603H112.083C112.418 41.8603 112.685 41.7759 112.885 41.607C113.087 41.4381 113.188 41.209 113.188 40.9196C113.188 40.5978 113.095 40.3646 112.909 40.2199C112.723 40.0721 112.439 39.9982 112.059 39.9982H110.925V41.8603ZM114.939 43.0023C114.939 42.576 115.021 42.1926 115.186 41.8521C115.354 41.5117 115.585 41.249 115.881 41.0641C116.179 40.8789 116.518 40.7863 116.899 40.7863C117.487 40.7863 117.962 40.9914 118.324 41.4017C118.688 41.812 118.87 42.3576 118.87 43.0385V43.0906C118.87 43.5142 118.789 43.8948 118.627 44.2326C118.467 44.568 118.237 44.8295 117.936 45.0171C117.638 45.2043 117.295 45.298 116.907 45.298C116.321 45.298 115.847 45.093 115.482 44.6831C115.12 44.2731 114.939 43.7302 114.939 43.0544V43.0023ZM115.682 43.0906C115.682 43.5734 115.792 43.9609 116.013 44.253C116.236 44.5452 116.534 44.6912 116.907 44.6912C117.282 44.6912 117.58 44.5438 117.801 44.249C118.022 43.9514 118.132 43.536 118.132 43.0028C118.132 42.5251 118.019 42.1388 117.793 41.844C117.569 41.5464 117.271 41.3976 116.899 41.3976C116.534 41.3976 116.24 41.5438 116.017 41.8363C115.793 42.1284 115.682 42.5465 115.682 43.0906ZM119.602 43.0023C119.602 42.576 119.685 42.1926 119.85 41.8521C120.017 41.5117 120.249 41.249 120.544 41.0641C120.842 40.8789 121.182 40.7863 121.562 40.7863C122.15 40.7863 122.625 40.9914 122.987 41.4017C123.352 41.812 123.534 42.3576 123.534 43.0385V43.0906C123.534 43.5142 123.453 43.8948 123.291 44.2326C123.131 44.568 122.901 44.8295 122.6 45.0171C122.302 45.2043 121.959 45.298 121.57 45.298C120.985 45.298 120.51 45.093 120.145 44.6831C119.783 44.2731 119.602 43.7302 119.602 43.0544V43.0023ZM120.345 43.0906C120.345 43.5734 120.455 43.9609 120.676 44.253C120.9 44.5452 121.198 44.6912 121.57 44.6912C121.945 44.6912 122.243 44.5438 122.464 44.249C122.685 43.9514 122.795 43.536 122.795 43.0028C122.795 42.5251 122.682 42.1388 122.456 41.844C122.233 41.5464 121.935 41.3976 121.562 41.3976C121.197 41.3976 120.903 41.5438 120.68 41.8363C120.457 42.1284 120.345 42.5465 120.345 43.0906ZM125.665 43.2035L125.202 43.6902V45.2183H124.464V39.0416H125.202V42.7776L125.598 42.299L126.942 40.8675H127.84L126.16 42.6851L128.036 45.2183H127.169L125.665 43.2035ZM131.124 44.0641C131.124 43.8632 131.048 43.7078 130.897 43.5978C130.748 43.4851 130.486 43.3886 130.11 43.3082C129.738 43.2275 129.441 43.131 129.22 43.0186C129.002 42.9059 128.84 42.7718 128.734 42.6162C128.63 42.4609 128.578 42.276 128.578 42.0615C128.578 41.705 128.727 41.4034 129.025 41.1565C129.325 40.91 129.709 40.7868 130.174 40.7868C130.664 40.7868 131.06 40.9141 131.364 41.1688C131.67 41.4235 131.823 41.7491 131.823 42.1458H131.08C131.08 41.9422 130.994 41.7667 130.821 41.6192C130.651 41.4715 130.435 41.3976 130.174 41.3976C129.906 41.3976 129.695 41.4567 129.544 41.5748C129.392 41.693 129.316 41.847 129.316 42.037C129.316 42.2168 129.387 42.3523 129.528 42.4435C129.669 42.5345 129.923 42.6216 130.29 42.705C130.66 42.7881 130.959 42.8872 131.188 43.0023C131.417 43.1174 131.586 43.257 131.695 43.4211C131.807 43.5818 131.862 43.7787 131.862 44.012C131.862 44.4005 131.708 44.7127 131.4 44.9486C131.091 45.1819 130.691 45.2985 130.198 45.2985C129.852 45.2985 129.547 45.2369 129.281 45.1136C129.014 44.9903 128.805 44.8187 128.654 44.5988C128.505 44.3765 128.43 44.1364 128.43 43.8787H129.169C129.182 44.1282 129.281 44.3267 129.464 44.4742C129.65 44.6189 129.895 44.6912 130.199 44.6912C130.478 44.6912 130.701 44.6351 130.869 44.5227C131.039 44.4073 131.124 44.2544 131.124 44.0641Z" fill="#4285F4"/>
</g>
<defs>
<clipPath id="clip0_1_243">
<rect width="136.68" height="45.3345" fill="white" transform="translate(0.273376 0.491943)"/>
</clipPath>
</defs>
</svg>
