<svg width="127" height="127" viewBox="0 0 127 127" fill="none" xmlns="http://www.w3.org/2000/svg">
<path d="M122.385 120.95H113.582V66.6619C113.582 65.8473 112.92 65.1853 112.105 65.1853H95.2825C94.4679 65.1853 93.8059 65.8473 93.8059 66.6619V120.95H86.6667V88.0007C86.6667 87.1861 86.0047 86.5241 85.1902 86.5241H68.3672C67.5526 86.5241 66.8906 87.1861 66.8906 88.0007V120.95H59.7514V76.1341C59.7514 75.3195 59.0895 74.6575 58.2749 74.6575H41.4519C40.6373 74.6575 39.9754 75.3195 39.9754 76.1341V120.95H32.8362V94.8962C32.8362 94.0817 32.1742 93.4197 31.3596 93.4197H14.5391C13.7245 93.4197 13.0625 94.0817 13.0625 94.8962V120.95H4.25977C3.4452 120.95 2.7832 121.612 2.7832 122.427C2.7832 123.241 3.4452 123.903 4.25977 123.903H122.385C123.199 123.903 123.861 123.241 123.861 122.427C123.861 121.612 123.199 120.95 122.385 120.95ZM96.7615 68.1385H110.631V120.95H96.7615V68.1385ZM69.8462 89.4773H83.7161V120.95H69.8462V89.4773ZM42.9309 77.6106H56.8008V120.95H42.9309V77.6106ZM16.0157 96.3728H29.8855V120.95H16.0157V96.3728ZM42.9359 55.9396L27.8946 69.5683C26.5214 68.5175 24.8086 67.8899 22.9506 67.8899C18.4569 67.8899 14.8 71.5469 14.8 76.0406C14.8 80.5342 18.4569 84.1912 22.9506 84.1912C27.4443 84.1912 31.1012 80.5342 31.1012 76.0406C31.1012 74.468 30.6533 73.0013 29.8781 71.7536L44.9194 58.1249C46.2926 59.1757 48.0054 59.8033 49.8659 59.8033C52.2948 59.8033 54.4777 58.7352 55.9714 57.0446L69.1522 64.9663C68.8175 65.8572 68.6305 66.8219 68.6305 67.8309C68.6305 72.3245 72.2875 75.9815 76.7811 75.9815C81.2748 75.9815 84.9318 72.3245 84.9318 67.8309C84.9318 66.2066 84.4519 64.6956 83.6324 63.4233L98.8656 49.1203C100.219 50.1195 101.89 50.7101 103.696 50.7101C108.19 50.7101 111.847 47.0532 111.847 42.5595C111.847 38.0658 108.19 34.4089 103.696 34.4089C99.2027 34.4089 95.5458 38.0658 95.5458 42.5595C95.5458 44.1837 96.0257 45.6947 96.8452 46.967L81.612 61.27C80.2584 60.2709 78.5875 59.6802 76.7811 59.6802C74.3522 59.6802 72.1693 60.7483 70.6755 62.4389L57.4948 54.5172C57.8295 53.6263 58.0165 52.6616 58.0165 51.6527C58.0165 47.159 54.3595 43.502 49.8659 43.502C45.3722 43.502 41.7152 47.159 41.7152 51.6527C41.7128 53.2252 42.1607 54.6944 42.9359 55.9396ZM103.696 37.362C106.563 37.362 108.894 39.695 108.894 42.5595C108.894 45.424 106.561 47.757 103.696 47.757C100.832 47.757 98.4989 45.424 98.4989 42.5595C98.4989 39.695 100.829 37.362 103.696 37.362ZM76.7811 62.6334C79.6481 62.6334 81.9786 64.9663 81.9786 67.8309C81.9786 70.6954 79.6457 73.0284 76.7811 73.0284C73.9166 73.0284 71.5836 70.6954 71.5836 67.8309C71.5836 64.9663 73.9141 62.6334 76.7811 62.6334ZM22.9481 81.2405C20.0811 81.2405 17.7506 78.9075 17.7506 76.043C17.7506 73.1785 20.0836 70.8455 22.9481 70.8455C25.8127 70.8455 28.1456 73.1785 28.1456 76.043C28.1456 78.9075 25.8151 81.2405 22.9481 81.2405ZM49.8634 46.4552C52.7304 46.4552 55.0609 48.7881 55.0609 51.6527C55.0609 54.5172 52.7279 56.8502 49.8634 56.8502C46.9989 56.8502 44.6659 54.5172 44.6659 51.6527C44.6659 48.7881 46.9989 46.4552 49.8634 46.4552ZM23.3566 43.9721C34.7016 43.9721 43.9301 34.7436 43.9301 23.3986C43.9301 12.0537 34.7016 2.8252 23.3566 2.8252C12.0117 2.8252 2.7832 12.0537 2.7832 23.3986C2.7832 34.7436 12.0117 43.9721 23.3566 43.9721ZM34.8148 36.7664L26.2409 24.8752H40.9105C40.5143 29.6199 38.233 33.8355 34.8148 36.7664ZM24.8332 5.83984C33.3751 6.55105 40.2042 13.3802 40.9154 21.9221H24.8332V5.83984ZM21.8801 5.84477V23.3986C21.8801 23.721 21.9834 24.0188 22.1606 24.2624L32.4252 38.5014C29.7748 40.0986 26.6715 41.0189 23.3591 41.0189C13.6433 41.0189 5.73879 33.1144 5.73879 23.3986C5.73633 14.18 12.8534 6.59781 21.8801 5.84477ZM78.8975 10.8725C78.8975 10.0579 79.5595 9.3959 80.3741 9.3959H98.9689C99.7835 9.3959 100.446 10.0579 100.446 10.8725C100.446 11.687 99.7835 12.349 98.9689 12.349H80.3741C79.5595 12.349 78.8975 11.687 78.8975 10.8725ZM78.8975 17.1085C78.8975 16.2939 79.5595 15.6319 80.3741 15.6319H88.4657C89.2802 15.6319 89.9422 16.2939 89.9422 17.1085C89.9422 17.923 89.2802 18.585 88.4657 18.585H80.3741C79.5595 18.585 78.8975 17.923 78.8975 17.1085ZM61.1246 20.1404H73.4613C74.2759 20.1404 74.9379 19.4784 74.9379 18.6638V9.31715C74.9379 8.50258 74.2759 7.84059 73.4613 7.84059H61.1246C60.3101 7.84059 59.6481 8.50258 59.6481 9.31715V18.6638C59.6481 19.4784 60.3076 20.1404 61.1246 20.1404ZM62.6012 10.7937H71.9848V17.1872H62.6012V10.7937ZM78.8975 27.4666C78.8975 26.652 79.5595 25.99 80.3741 25.99H98.9689C99.7835 25.99 100.446 26.652 100.446 27.4666C100.446 28.2811 99.7835 28.9431 98.9689 28.9431H80.3741C79.5595 28.9431 78.8975 28.2811 78.8975 27.4666ZM78.8975 33.7026C78.8975 32.888 79.5595 32.226 80.3741 32.226H88.4657C89.2802 32.226 89.9422 32.888 89.9422 33.7026C89.9422 34.5171 89.2802 35.1791 88.4657 35.1791H80.3741C79.5595 35.1791 78.8975 34.5171 78.8975 33.7026ZM61.1246 36.7345H73.4613C74.2759 36.7345 74.9379 36.0725 74.9379 35.2579V25.9112C74.9379 25.0967 74.2759 24.4347 73.4613 24.4347H61.1246C60.3101 24.4347 59.6481 25.0967 59.6481 25.9112V35.2579C59.6481 36.0725 60.3076 36.7345 61.1246 36.7345ZM62.6012 27.3878H71.9848V33.7813H62.6012V27.3878Z" fill="#FE7634"/>
</svg>
