<svg width="68" height="46" viewBox="0 0 68 46" fill="none" xmlns="http://www.w3.org/2000/svg">
<path d="M50.1125 25.9765C46.2939 25.9765 43.1912 24.8428 40.8045 22.5755C38.4179 20.3678 37.2245 17.3248 37.2245 13.4465C37.2245 9.56817 38.5372 6.376 41.1625 3.87001C43.7282 1.364 47.3977 0.111001 52.171 0.111001C57.0637 0.111001 60.8227 1.722 63.448 4.944C66.0734 8.22567 67.386 12.4023 67.386 17.474C67.386 22.3667 66.1927 26.6627 63.806 30.362C61.4194 34.0613 58.436 37.1938 54.856 39.7595C51.2164 42.3848 47.6065 44.4135 44.0265 45.8455L41.1625 40.028C43.6089 39.0733 46.0552 37.7308 48.5015 36.0005C50.8882 34.2702 52.887 32.331 54.498 30.183C56.109 28.035 56.9444 25.8572 57.004 23.6495C56.7654 24.0672 56.0494 24.5445 54.856 25.0815C53.603 25.6782 52.0219 25.9765 50.1125 25.9765ZM13.7755 25.9765C9.95687 25.9765 6.8542 24.8428 4.46753 22.5755C2.08087 20.3678 0.887534 17.3248 0.887534 13.4465C0.887534 9.56816 2.2002 6.376 4.82553 3.87C7.3912 1.364 11.0607 0.110997 15.834 0.110998C20.7267 0.110998 24.4857 1.722 27.111 4.944C29.7364 8.22567 31.049 12.4023 31.049 17.474C31.049 22.3667 29.8557 26.6627 27.469 30.362C25.0824 34.0613 22.099 37.1938 18.519 39.7595C14.8794 42.3848 11.2695 44.4135 7.68953 45.8455L4.82553 40.028C7.27186 39.0733 9.7182 37.7308 12.1645 36.0005C14.5512 34.2702 16.55 32.331 18.161 30.183C19.772 28.035 20.6074 25.8572 20.667 23.6495C20.4284 24.0672 19.7124 24.5445 18.519 25.0815C17.266 25.6782 15.6849 25.9765 13.7755 25.9765Z" fill="#F67A00"/>
</svg>
