<svg width="237" height="39" viewBox="0 0 237 39" fill="none" xmlns="http://www.w3.org/2000/svg">
<path d="M52.8214 19.597C56.6845 19.597 59.4833 17.5866 59.4833 14.2753V14.1965C59.4833 11.0035 57.0393 9.11136 52.8608 9.11136H44.8586V19.597H52.8214ZM41.9415 7.88935C41.9415 7.06153 42.6117 6.3914 43.4001 6.3914H53.0973C56.2903 6.3914 58.8132 7.33747 60.4688 8.9931C61.7302 10.2545 62.4792 12.0678 62.4792 14.0782V14.1571C62.4792 18.4144 59.6016 20.8979 55.5807 21.6468L62.0062 29.925C62.2821 30.2403 62.4792 30.5951 62.4792 30.9893C62.4792 31.7777 61.7302 32.4478 60.9813 32.4478C60.39 32.4478 59.9563 32.1325 59.6016 31.6594L52.3089 22.1987H44.8586V30.9499C44.8586 31.7777 44.1885 32.4478 43.4001 32.4478C42.6117 32.4478 41.9415 31.7777 41.9415 30.9499C41.9415 30.9893 41.9415 7.88935 41.9415 7.88935ZM68.2739 30.7922V7.88935C68.2739 7.06153 68.944 6.3914 69.7324 6.3914H85.8157C86.5646 6.3914 87.1559 6.9827 87.1559 7.73167C87.1559 8.48064 86.5646 9.07194 85.8157 9.07194H71.2304V17.902H84.16C84.909 17.902 85.5003 18.5327 85.5003 19.2422C85.5003 19.9912 84.909 20.5825 84.16 20.5825H71.2304V29.649H86.0128C86.7617 29.649 87.353 30.2403 87.353 30.9893C87.353 31.7383 86.7617 32.3296 86.0128 32.3296H69.7324C68.944 32.2902 68.2739 31.62 68.2739 30.7922ZM100.992 31.3441L91.0191 8.32297C90.9008 8.08645 90.8614 7.92877 90.8614 7.65283C90.8614 6.90386 91.5315 6.1943 92.3593 6.1943C93.1083 6.1943 93.6208 6.66734 93.8573 7.29805L102.806 28.7424L111.793 7.21921C112.069 6.70676 112.582 6.1943 113.252 6.1943C114.08 6.1943 114.71 6.86444 114.71 7.61341C114.71 7.84993 114.671 8.00761 114.592 8.20471L104.579 31.3441C104.264 32.0931 103.712 32.5661 102.884 32.5661H102.727C101.859 32.5661 101.308 32.0931 100.992 31.3441ZM120.071 7.69225C120.071 6.86443 120.742 6.1943 121.53 6.1943C122.358 6.1943 122.988 6.86443 122.988 7.69225V30.9893C122.988 31.8171 122.318 32.4873 121.53 32.4873C120.742 32.4873 120.071 31.8171 120.071 30.9893V7.69225ZM130.202 30.7922V7.88935C130.202 7.06153 130.872 6.3914 131.661 6.3914H147.744C148.493 6.3914 149.084 6.9827 149.084 7.73167C149.084 8.48064 148.493 9.07194 147.744 9.07194H133.159V17.902H146.088C146.837 17.902 147.429 18.5327 147.429 19.2422C147.429 19.9912 146.837 20.5825 146.088 20.5825H133.159V29.649H147.941C148.69 29.649 149.281 30.2403 149.281 30.9893C149.281 31.7383 148.69 32.3296 147.941 32.3296H131.661C130.872 32.2902 130.202 31.62 130.202 30.7922ZM153.026 8.36238C152.947 8.12586 152.869 7.92877 152.869 7.69225C152.869 6.90385 153.578 6.23372 154.367 6.23372C155.116 6.23372 155.667 6.7856 155.865 7.45573L162.999 27.9934L169.78 7.37689C170.016 6.70675 170.45 6.23372 171.238 6.23372H171.435C172.184 6.23372 172.657 6.70675 172.894 7.37689L179.674 27.9934L186.848 7.37689C187.085 6.70675 187.558 6.23372 188.268 6.23372C189.056 6.23372 189.765 6.94327 189.765 7.69225C189.765 7.92877 189.647 8.16529 189.568 8.4018L181.29 31.3835C181.014 32.1325 180.502 32.6449 179.792 32.6449H179.556C178.807 32.6449 178.294 32.1325 178.058 31.3835L171.317 11.516L164.616 31.3835C164.34 32.1325 163.827 32.6449 163.118 32.6449H162.881C162.132 32.6449 161.62 32.1719 161.383 31.3835L153.026 8.36238ZM193.353 29.176C193.037 28.9395 192.801 28.5453 192.801 28.0722C192.801 27.2444 193.432 26.6137 194.22 26.6137C194.575 26.6137 194.929 26.7714 195.087 26.9291C197.531 29.0183 199.975 30.0038 203.247 30.0038C206.716 30.0038 209.002 28.1511 209.002 25.5888V25.5494C209.002 23.1448 207.701 21.7651 202.262 20.6219C196.309 19.3211 193.589 17.3895 193.589 13.1716V13.0927C193.589 9.03252 197.176 6.03662 202.104 6.03662C205.494 6.03662 207.977 6.90385 210.343 8.5989C210.658 8.83542 210.973 9.22962 210.973 9.78149C210.973 10.5699 210.343 11.2006 209.554 11.2006C209.239 11.2006 208.963 11.1218 208.687 10.9247C206.519 9.34787 204.39 8.67774 201.986 8.67774C198.635 8.67774 196.467 10.5305 196.467 12.8562V12.9351C196.467 15.3791 197.807 16.7588 203.484 17.9808C209.239 19.2422 211.919 21.3315 211.919 25.3129V25.3917C211.919 29.8067 208.214 32.7238 203.089 32.7238C199.344 32.6449 196.23 31.4623 193.353 29.176ZM216.334 29.3731C216.886 29.3731 217.32 29.7673 217.32 30.3586V30.7528C217.32 31.3047 216.886 31.7383 216.334 31.7383C215.743 31.7383 215.349 31.3047 215.349 30.7528V30.3586C215.349 29.7673 215.743 29.3731 216.334 29.3731ZM220.789 21.6468C220.789 21.2132 221.144 20.8584 221.577 20.8584C222.05 20.8584 222.366 21.2132 222.366 21.6468V30.9105C222.366 31.3835 222.05 31.6989 221.577 31.6989C221.104 31.6989 220.789 31.3441 220.789 30.9105V21.6468ZM220.631 17.5866C220.631 17.0741 221.065 16.7194 221.577 16.7194C222.129 16.7194 222.523 17.0347 222.523 17.5866V17.8625C222.523 18.375 222.129 18.6904 221.577 18.6904C221.065 18.6904 220.631 18.3356 220.631 17.8625V17.5866ZM234.94 26.3378V26.2984C234.94 24.012 233.206 22.1199 230.959 22.1199C228.633 22.1199 227.057 24.012 227.057 26.2589V26.2984C227.057 28.5847 228.752 30.4374 230.998 30.4374C233.324 30.4374 234.94 28.5847 234.94 26.3378ZM225.401 26.3378V26.2984C225.401 23.263 227.766 20.7008 230.998 20.7008C234.191 20.7008 236.557 23.2236 236.557 26.2589V26.2984C236.557 29.3337 234.191 31.896 230.959 31.896C227.766 31.896 225.401 29.3731 225.401 26.3378Z" fill="#1A1A1A"/>
<mask id="mask0_2_849" style="mask-type:luminance" maskUnits="userSpaceOnUse" x="6" y="7" width="32" height="32">
<path d="M28.4206 8.91426C31.5348 11.3977 33.0327 14.6301 33.3087 18.5721C33.0721 26.1013 29.5244 30.9499 23.4143 33.0391C16.3582 35.1678 11.8643 33.4333 7.52816 29.0183L6.8186 33.5122C14.3478 38.479 25.3064 40.9231 32.2443 34.1035C39.3793 27.0868 39.4581 14.9061 30.9829 7.65283C30.9435 7.65283 28.4206 8.91426 28.4206 8.91426Z" fill="white"/>
</mask>
<g mask="url(#mask0_2_849)">
<path d="M27.3169 5.32678C21.2068 -1.05921 11.0365 -1.25631 4.65052 4.85375C-1.73548 10.9638 -1.93258 21.1341 4.17748 27.5201L9.02611 32.5658C15.1362 38.9518 25.3064 39.1489 31.6924 33.0388C38.0784 26.9288 38.2755 16.7585 32.1655 10.3725C32.1261 10.3725 27.3169 5.32678 27.3169 5.32678Z" fill="#BCBCBC"/>
</g>
<mask id="mask1_2_849" style="mask-type:luminance" maskUnits="userSpaceOnUse" x="0" y="0" width="31" height="31">
<path d="M5.4783 30.5555L7.40986 28.8605C2.99486 22.5927 2.79776 13.408 8.86839 8.36223C13.3622 4.61736 22.2711 2.68579 29.3666 8.95352L30.4704 7.02196C24.6363 0.557128 15.8457 -0.270688 10.2087 1.97624C-3.58823 7.37674 -1.45957 25.6281 5.4783 30.5555Z" fill="white"/>
</mask>
<g mask="url(#mask1_2_849)">
<path d="M28.184 6.19397C22.074 -0.192022 11.9037 -0.38912 5.5177 5.72094C-0.86829 11.831 -1.06539 22.0013 5.04467 28.3873L9.89329 33.433C16.0033 39.819 26.1736 40.0161 32.5596 33.906C38.9456 27.796 39.1427 17.6257 33.0327 11.2397L28.184 6.19397Z" fill="#606060"/>
</g>
<path d="M2.52185 19.4392C2.52185 28.3086 9.69624 35.5224 18.6051 35.5224C27.4745 35.5224 34.6883 28.3481 34.6883 19.4392C34.6883 10.5698 27.5139 3.35596 18.6051 3.35596C9.73566 3.35596 2.52185 10.5698 2.52185 19.4392ZM13.717 22.3168C13.8747 21.765 13.717 21.2131 13.244 20.8583C12.0614 19.9517 9.69624 18.2172 8.11945 17.0346C7.88293 16.8769 7.80409 16.5616 7.88293 16.2856C7.96177 16.0097 8.23771 15.852 8.51365 15.852H14.6237C15.1756 15.852 15.688 15.4972 15.8851 14.9454C16.3582 13.4868 17.3042 10.6092 17.9744 8.67762C18.0532 8.40168 18.3292 8.24401 18.6051 8.24401C18.881 8.24401 19.157 8.4411 19.2358 8.67762C19.8665 10.6092 20.852 13.4868 21.3251 14.9454C21.5222 15.4972 21.9952 15.852 22.5865 15.852C24.045 15.852 26.8044 15.852 28.6965 15.852C28.9725 15.852 29.2484 16.0491 29.3273 16.2856C29.4061 16.5616 29.3273 16.8375 29.0907 17.0346C27.5139 18.2172 25.1882 19.9911 24.0056 20.8977C23.572 21.2525 23.3749 21.8044 23.5326 22.3563C24.0056 23.8148 24.9122 26.6924 25.543 28.6634C25.6218 28.9394 25.543 29.2547 25.3064 29.4124C25.0699 29.5701 24.7546 29.5701 24.518 29.4124C22.9413 28.1904 20.6155 26.4165 19.4329 25.5098C18.9599 25.1551 18.2897 25.1551 17.8167 25.5098C16.6341 26.4165 14.3478 28.1904 12.771 29.4124C12.5345 29.5701 12.2191 29.6095 11.9826 29.4124C11.7461 29.2547 11.6278 28.9394 11.7461 28.6634C12.3374 26.6924 13.2834 23.7754 13.717 22.3168Z" fill="#1A1A1A"/>
</svg>
