<svg width="127" height="127" viewBox="0 0 127 127" fill="none" xmlns="http://www.w3.org/2000/svg">
<path d="M85.1328 104.708H73.3203V93.9862L90.8166 83.0518L73.3203 72.1173V59.4268H85.1328V43.6768H73.3203V29.8955H89.0703V2.33301H53.6328V29.8955H69.3828V43.6768H57.5703V49.583H39.8516V53.5205H57.5703V59.4268H69.3828V72.1173L51.8865 83.0518L69.3828 93.9862V104.708H57.5703C54.314 104.708 51.6641 107.358 51.6641 110.614V118.489C51.6641 121.746 54.314 124.396 57.5703 124.396H85.1328C88.3891 124.396 91.0391 121.746 91.0391 118.489V110.614C91.0391 107.358 88.3891 104.708 85.1328 104.708ZM57.5703 6.27051H85.1328V25.958H57.5703V6.27051ZM61.5078 47.6143H81.1953V55.4893H61.5078V47.6143ZM71.3516 75.5292L83.3865 83.0518L71.3516 90.5743L59.3166 83.0518L71.3516 75.5292ZM87.1016 118.489C87.1016 119.574 86.2176 120.458 85.1328 120.458H57.5703C56.4855 120.458 55.6016 119.574 55.6016 118.489V110.614C55.6016 109.529 56.4855 108.646 57.5703 108.646H85.1328C86.2176 108.646 87.1016 109.529 87.1016 110.614V118.489Z" fill="#FE7634"/>
<path d="M36.4909 108.069L41.0053 112.583H23.7393C23.1448 110.915 21.8316 109.602 20.1641 109.008V67.3018H16.2266V109.008C13.9408 109.823 12.2891 111.988 12.2891 114.552C12.2891 117.808 14.939 120.458 18.1953 120.458C20.7586 120.458 22.9243 118.806 23.7393 116.521H41.0053L36.4909 121.035L39.2747 123.819L48.5416 114.552L39.2747 105.285L36.4909 108.069ZM18.1953 116.521C17.1105 116.521 16.2266 115.637 16.2266 114.552C16.2266 113.467 17.1105 112.583 18.1953 112.583C19.2801 112.583 20.1641 113.467 20.1641 114.552C20.1641 115.637 19.2801 116.521 18.1953 116.521Z" fill="#FE7634"/>
<path d="M120.57 77.5078V21.6583C122.856 20.8432 124.507 18.6776 124.507 16.1143C124.507 12.8579 121.857 10.208 118.601 10.208C116.038 10.208 113.872 11.8598 113.057 14.1455H93.0073V18.083H113.057C113.652 19.7505 114.965 21.0637 116.632 21.6583V77.5097C114.965 78.1043 113.652 79.4174 113.057 81.085H99.7286L104.243 76.5706L101.459 73.7868L92.1923 83.0518L101.459 92.3187L104.243 89.5349L99.7286 85.0205H113.057C113.872 87.3062 116.038 88.958 118.601 88.958C121.857 88.958 124.507 86.3081 124.507 83.0518C124.507 80.4884 122.856 78.3228 120.57 77.5078ZM118.601 14.1455C119.686 14.1455 120.57 15.0295 120.57 16.1143C120.57 17.199 119.686 18.083 118.601 18.083C117.516 18.083 116.632 17.199 116.632 16.1143C116.632 15.0295 117.516 14.1455 118.601 14.1455ZM118.601 85.0205C117.516 85.0205 116.632 84.1365 116.632 83.0518C116.632 81.967 117.516 81.083 118.601 81.083C119.686 81.083 120.57 81.967 120.57 83.0518C120.57 84.1365 119.686 85.0205 118.601 85.0205Z" fill="#FE7634"/>
<path d="M35.3643 51.5519L18.1949 39.2886L1.02539 51.5519L18.1949 63.8153L35.3643 51.5519ZM18.1949 44.1278L28.5879 51.5519L18.1949 58.9761L7.80183 51.5519L18.1949 44.1278Z" fill="#FE7634"/>
<path d="M61.5078 10.208H81.1953V14.1455H61.5078V10.208Z" fill="#FE7634"/>
<path d="M61.5078 18.083H73.3203V22.0205H61.5078V18.083Z" fill="#FE7634"/>
<path d="M77.2578 18.083H81.1953V22.0205H77.2578V18.083Z" fill="#FE7634"/>
<path d="M110.727 112.583H114.664V116.521H110.727V112.583Z" fill="#FE7634"/>
<path d="M102.852 112.583H106.789V116.521H102.852V112.583Z" fill="#FE7634"/>
<path d="M94.9766 112.583H98.9141V116.521H94.9766V112.583Z" fill="#FE7634"/>
<path d="M37.8828 18.083H41.8203V22.0205H37.8828V18.083Z" fill="#FE7634"/>
<path d="M45.7578 18.083H49.6953V22.0205H45.7578V18.083Z" fill="#FE7634"/>
<path d="M30.0078 18.083H33.9453V22.0205H30.0078V18.083Z" fill="#FE7634"/>
</svg>
