<svg width="127" height="127" viewBox="0 0 127 127" fill="none" xmlns="http://www.w3.org/2000/svg">
<g clip-path="url(#clip0_1_258)">
<path d="M63.3223 117.964C70.383 117.964 77.2853 115.871 83.1561 111.948C89.0269 108.025 93.6027 102.45 96.3047 95.9263C99.0068 89.4029 99.7138 82.2249 98.3363 75.2997C96.9588 68.3746 93.5587 62.0135 88.566 57.0208C83.5732 52.028 77.2121 48.6279 70.287 47.2504C63.3619 45.8729 56.1838 46.5799 49.6605 49.282C43.1371 51.984 37.5616 56.5598 33.6388 62.4306C29.716 68.3014 27.6223 75.2037 27.6223 82.2645C27.6328 91.7295 31.3974 100.804 38.0902 107.497C44.783 114.189 53.8573 117.954 63.3223 117.964ZM63.3223 50.7645C69.5524 50.7645 75.6426 52.6119 80.8227 56.0732C86.0029 59.5344 90.0403 64.4541 92.4245 70.2099C94.8086 75.9658 95.4324 82.2994 94.217 88.4098C93.0016 94.5202 90.0015 100.133 85.5961 104.538C81.1908 108.944 75.578 111.944 69.4676 113.159C63.3572 114.375 57.0236 113.751 51.2677 111.367C45.5119 108.983 40.5922 104.945 37.131 99.7649C33.6697 94.5848 31.8223 88.4946 31.8223 82.2645C31.8317 73.913 35.1535 65.9064 41.0588 60.001C46.9642 54.0957 54.9708 50.7739 63.3223 50.7645Z" fill="#FE7634"/>
<path d="M5.96298 15.2744C5.02579 16.3921 4.51534 17.8059 4.52238 19.2644C4.66381 21.0578 5.2547 22.7867 6.24052 24.2915C7.22634 25.7963 8.57533 27.0285 10.163 27.8744C9.22579 28.9921 8.71534 30.4059 8.72238 31.8644C8.86381 33.6578 9.4547 35.3867 10.4405 36.8915C11.4263 38.3963 12.7753 39.6285 14.363 40.4744C13.4258 41.5921 12.9153 43.0059 12.9224 44.4644C12.9224 49.4204 18.311 54.9644 25.5224 54.9644C25.5413 54.9644 26.7572 54.9644 28.6556 55.0967C23.5405 61.602 20.359 69.4153 19.4748 77.6434C18.5906 85.8714 20.0394 94.1823 23.6556 101.626C27.2718 109.069 32.9093 115.345 39.9239 119.736C46.9385 124.127 55.0469 126.455 63.3224 126.455C71.5978 126.455 79.7063 124.127 86.7208 119.736C93.7354 115.345 99.373 109.069 102.989 101.626C106.605 94.1823 108.054 85.8714 107.17 77.6434C106.286 69.4153 103.104 61.602 97.9892 55.0967C99.8876 54.9644 101.103 54.9644 101.122 54.9644C108.334 54.9644 113.722 49.4204 113.722 44.4644C113.73 43.0065 113.221 41.593 112.286 40.4744C113.873 39.628 115.221 38.3955 116.206 36.8908C117.191 35.386 117.781 33.6574 117.922 31.8644C117.93 30.4065 117.421 28.993 116.486 27.8744C118.073 27.028 119.421 25.7955 120.406 24.2908C121.391 22.786 121.981 21.0574 122.122 19.2644C122.13 17.8065 121.621 16.393 120.686 15.2744C122.273 14.428 123.621 13.1955 124.606 11.6908C125.591 10.186 126.181 8.45741 126.322 6.66443C126.329 5.84116 126.17 5.02497 125.855 4.26445C125.539 3.50393 125.074 2.81464 124.487 2.23763C123.907 1.64107 123.213 1.16768 122.446 0.845808C121.679 0.523937 120.854 0.360209 120.022 0.36443H97.7834C93.7706 0.377702 89.894 1.82097 86.8496 4.43511C83.8051 7.04925 81.7923 10.663 81.1724 14.6276C80.0567 23.2837 77.3248 31.6532 73.1189 39.3005C66.6743 37.7857 59.9663 37.7857 53.5217 39.3005C49.3172 31.6529 46.5867 23.2834 45.4724 14.6276C44.8525 10.663 42.8396 7.04925 39.7952 4.43511C36.7507 1.82097 32.8741 0.377702 28.8614 0.36443H6.62238C5.7995 0.358265 4.98377 0.517563 4.22367 0.83286C3.46356 1.14816 2.77459 1.61302 2.19768 2.19983C1.59986 2.77885 1.1255 3.47294 0.803205 4.24025C0.480906 5.00756 0.317343 5.83219 0.322378 6.66443C0.463809 8.45782 1.0547 10.1867 2.04052 11.6915C3.02634 13.1963 4.37533 14.4285 5.96298 15.2744ZM85.3283 15.2534C85.793 12.2812 87.3024 9.57209 89.5854 7.61289C91.8683 5.65368 94.775 4.57279 97.7834 4.56443H120.022C120.303 4.56373 120.58 4.62038 120.837 4.7309C121.095 4.84141 121.327 5.00344 121.52 5.20703C121.712 5.39734 121.865 5.62437 121.969 5.87469C122.072 6.12502 122.124 6.39355 122.122 6.66443C122.122 8.88623 118.932 12.9644 113.722 12.9644H99.0224C98.4654 12.9644 97.9313 13.1857 97.5374 13.5795C97.1436 13.9733 96.9224 14.5075 96.9224 15.0644C96.9224 15.6214 97.1436 16.1555 97.5374 16.5494C97.9313 16.9432 98.4654 17.1644 99.0224 17.1644H115.822C116.103 17.1637 116.38 17.2204 116.637 17.3309C116.895 17.4414 117.127 17.6034 117.32 17.807C117.512 17.9973 117.665 18.2244 117.769 18.4747C117.872 18.725 117.924 18.9936 117.922 19.2644C117.922 21.4862 114.732 25.5644 109.522 25.5644H94.8224C94.2654 25.5644 93.7313 25.7857 93.3374 26.1795C92.9436 26.5733 92.7224 27.1075 92.7224 27.6644C92.7224 28.2214 92.9436 28.7555 93.3374 29.1494C93.7313 29.5432 94.2654 29.7644 94.8224 29.7644H111.622C111.903 29.7637 112.18 29.8204 112.437 29.9309C112.695 30.0414 112.927 30.2034 113.12 30.407C113.312 30.5973 113.465 30.8244 113.569 31.0747C113.672 31.325 113.724 31.5936 113.722 31.8644C113.722 34.0862 110.532 38.1644 105.322 38.1644H90.6224C90.0654 38.1644 89.5313 38.3857 89.1375 38.7795C88.7436 39.1733 88.5224 39.7075 88.5224 40.2644C88.5224 40.8214 88.7436 41.3555 89.1375 41.7494C89.5313 42.1432 90.0654 42.3644 90.6224 42.3644H107.422C107.703 42.3637 107.98 42.4204 108.237 42.5309C108.495 42.6414 108.727 42.8034 108.92 43.007C109.112 43.1973 109.265 43.4244 109.369 43.6747C109.472 43.925 109.524 44.1936 109.522 44.4644C109.522 46.6862 106.332 50.7644 101.122 50.7644C101.001 50.7644 98.3126 50.7644 94.5746 51.1844C89.7274 46.3199 83.8126 42.6527 77.3 40.4744C81.4431 32.6047 84.1611 24.064 85.3283 15.2471V15.2534ZM103.222 82.2644C103.222 90.1559 100.882 97.8702 96.498 104.432C92.1137 110.993 85.8822 116.107 78.5914 119.127C71.3007 122.147 63.2781 122.937 55.5383 121.398C47.7984 119.858 40.6889 116.058 35.1088 110.478C29.5287 104.898 25.7286 97.7884 24.189 90.0485C22.6495 82.3087 23.4396 74.2861 26.4596 66.9954C29.4795 59.7046 34.5936 53.4731 41.1551 49.0888C47.7166 44.7045 55.4309 42.3644 63.3224 42.3644C73.9009 42.3761 84.0429 46.5836 91.523 54.0638C99.0032 61.5439 103.211 71.6859 103.222 82.2644ZM5.16498 5.16923C5.35453 4.97531 5.58137 4.82175 5.83184 4.71781C6.0823 4.61387 6.35122 4.5617 6.62238 4.56443H28.8614C31.8688 4.57256 34.7748 5.65255 37.0576 7.61049C39.3404 9.56843 40.8504 12.276 41.3165 15.2471C42.4836 24.064 45.2016 32.6047 49.3448 40.4744C42.8322 42.6527 36.9173 46.3199 32.0702 51.1844C28.3322 50.7644 25.6442 50.7644 25.5224 50.7644C20.3123 50.7644 17.1224 46.6862 17.1224 44.4644C17.122 44.1846 17.1788 43.9076 17.2893 43.6505C17.3998 43.3934 17.5616 43.1615 17.765 42.9692C17.9545 42.7753 18.1814 42.6218 18.4318 42.5178C18.6823 42.4139 18.9512 42.3617 19.2224 42.3644H36.0224C36.5793 42.3644 37.1135 42.1432 37.5073 41.7494C37.9011 41.3555 38.1224 40.8214 38.1224 40.2644C38.1224 39.7075 37.9011 39.1733 37.5073 38.7795C37.1135 38.3857 36.5793 38.1644 36.0224 38.1644H21.3224C16.1123 38.1644 12.9224 34.0862 12.9224 31.8644C12.922 31.5846 12.9788 31.3076 13.0893 31.0505C13.1998 30.7933 13.3616 30.5615 13.565 30.3692C13.7545 30.1753 13.9814 30.0218 14.2318 29.9178C14.4823 29.8139 14.7512 29.7617 15.0224 29.7644H31.8224C32.3793 29.7644 32.9135 29.5432 33.3073 29.1494C33.7011 28.7555 33.9224 28.2214 33.9224 27.6644C33.9224 27.1075 33.7011 26.5733 33.3073 26.1795C32.9135 25.7857 32.3793 25.5644 31.8224 25.5644H17.1224C11.9123 25.5644 8.72238 21.4862 8.72238 19.2644C8.72197 18.9846 8.77876 18.7076 8.88926 18.4505C8.99976 18.1933 9.16165 17.9615 9.36498 17.7692C9.55453 17.5753 9.78137 17.4218 10.0318 17.3178C10.2823 17.2139 10.5512 17.1617 10.8224 17.1644H27.6224C28.1793 17.1644 28.7135 16.9432 29.1073 16.5494C29.5011 16.1555 29.7224 15.6214 29.7224 15.0644C29.7224 14.5075 29.5011 13.9733 29.1073 13.5795C28.7135 13.1857 28.1793 12.9644 27.6224 12.9644H12.9224C7.71228 12.9644 4.52238 8.88623 4.52238 6.66443C4.52197 6.38457 4.57876 6.10758 4.68926 5.85046C4.79976 5.59335 4.96165 5.36153 5.16498 5.16923Z" fill="#FE7634"/>
<path d="M63.3227 63.3644C63.8796 63.3644 64.4138 63.1431 64.8076 62.7493C65.2014 62.3555 65.4227 61.8213 65.4227 61.2644V57.0644C65.4227 56.5074 65.2014 55.9733 64.8076 55.5794C64.4138 55.1856 63.8796 54.9644 63.3227 54.9644C62.7657 54.9644 62.2316 55.1856 61.8377 55.5794C61.4439 55.9733 61.2227 56.5074 61.2227 57.0644V61.2644C61.2227 61.8213 61.4439 62.3555 61.8377 62.7493C62.2316 63.1431 62.7657 63.3644 63.3227 63.3644Z" fill="#FE7634"/>
<path d="M46.9885 68.8999C47.1822 69.1005 47.4139 69.2604 47.6701 69.3705C47.9263 69.4805 48.2019 69.5385 48.4807 69.5409C48.7596 69.5433 49.0361 69.4902 49.2942 69.3846C49.5522 69.279 49.7867 69.1231 49.9839 68.9259C50.1811 68.7287 50.337 68.4943 50.4426 68.2362C50.5482 67.9781 50.6013 67.7016 50.5989 67.4227C50.5965 67.1439 50.5385 66.8683 50.4285 66.6121C50.3184 66.3559 50.1584 66.1242 49.9579 65.9305L46.9885 62.9611C46.5924 62.5785 46.0619 62.3669 45.5113 62.3717C44.9607 62.3764 44.434 62.5973 44.0446 62.9867C43.6553 63.376 43.4344 63.9027 43.4296 64.4533C43.4249 65.0039 43.6365 65.5344 44.0191 65.9305L46.9885 68.8999Z" fill="#FE7634"/>
<path d="M38.1223 84.3641H42.3223C42.8792 84.3641 43.4134 84.1428 43.8072 83.749C44.201 83.3552 44.4223 82.821 44.4223 82.2641C44.4223 81.7071 44.201 81.173 43.8072 80.7791C43.4134 80.3853 42.8792 80.1641 42.3223 80.1641H38.1223C37.5653 80.1641 37.0312 80.3853 36.6374 80.7791C36.2435 81.173 36.0223 81.7071 36.0223 82.2641C36.0223 82.821 36.2435 83.3552 36.6374 83.749C37.0312 84.1428 37.5653 84.3641 38.1223 84.3641Z" fill="#FE7634"/>
<path d="M46.9885 95.6289L44.0191 98.5983C43.8185 98.792 43.6585 99.0237 43.5485 99.2799C43.4384 99.5362 43.3805 99.8117 43.378 100.091C43.3756 100.369 43.4287 100.646 43.5343 100.904C43.6399 101.162 43.7959 101.397 43.993 101.594C44.1902 101.791 44.4247 101.947 44.6828 102.052C44.9408 102.158 45.2174 102.211 45.4962 102.209C45.775 102.206 46.0506 102.148 46.3068 102.038C46.563 101.928 46.7947 101.768 46.9885 101.568L49.9579 98.5983C50.1584 98.4046 50.3184 98.1729 50.4285 97.9166C50.5385 97.6604 50.5965 97.3849 50.5989 97.106C50.6013 96.8272 50.5482 96.5507 50.4426 96.2926C50.337 96.0345 50.1811 95.8 49.9839 95.6029C49.7867 95.4057 49.5522 95.2498 49.2942 95.1442C49.0361 95.0386 48.7596 94.9854 48.4807 94.9879C48.2019 94.9903 47.9263 95.0482 47.6701 95.1583C47.4139 95.2683 47.1822 95.4283 46.9885 95.6289Z" fill="#FE7634"/>
<path d="M63.3227 109.564C63.8796 109.564 64.4138 109.343 64.8076 108.949C65.2014 108.555 65.4227 108.021 65.4227 107.464V103.264C65.4227 102.707 65.2014 102.173 64.8076 101.779C64.4138 101.385 63.8796 101.164 63.3227 101.164C62.7657 101.164 62.2316 101.385 61.8377 101.779C61.4439 102.173 61.2227 102.707 61.2227 103.264V107.464C61.2227 108.021 61.4439 108.555 61.8377 108.949C62.2316 109.343 62.7657 109.564 63.3227 109.564Z" fill="#FE7634"/>
<path d="M79.6566 101.567C80.0526 101.95 80.5831 102.162 81.1337 102.157C81.6843 102.152 82.211 101.931 82.6004 101.542C82.9897 101.152 83.2106 100.626 83.2154 100.075C83.2202 99.5245 83.0085 98.994 82.626 98.598L79.6566 95.6286C79.2605 95.246 78.73 95.0344 78.1794 95.0391C77.6288 95.0439 77.1021 95.2648 76.7127 95.6541C76.3234 96.0435 76.1025 96.5702 76.0977 97.1208C76.093 97.6714 76.3046 98.2019 76.6872 98.598L79.6566 101.567Z" fill="#FE7634"/>
<path d="M82.2227 82.2641C82.2227 82.821 82.4439 83.3552 82.8377 83.749C83.2316 84.1428 83.7657 84.3641 84.3227 84.3641H88.5227C89.0796 84.3641 89.6138 84.1428 90.0076 83.749C90.4014 83.3552 90.6227 82.821 90.6227 82.2641C90.6227 81.7071 90.4014 81.173 90.0076 80.7791C89.6138 80.3853 89.0796 80.1641 88.5227 80.1641H84.3227C83.7657 80.1641 83.2316 80.3853 82.8377 80.7791C82.4439 81.173 82.2227 81.7071 82.2227 82.2641Z" fill="#FE7634"/>
<path d="M78.1718 69.5152C78.7287 69.5151 79.2628 69.2937 79.6565 68.8999L82.6259 65.9305C83.0085 65.5344 83.2201 65.0039 83.2153 64.4533C83.2106 63.9027 82.9897 63.376 82.6003 62.9867C82.211 62.5973 81.6843 62.3764 81.1337 62.3717C80.583 62.3669 80.0526 62.5785 79.6565 62.9611L76.6871 65.9305C76.3935 66.2242 76.1936 66.5983 76.1126 67.0056C76.0316 67.4129 76.0732 67.8351 76.2321 68.2187C76.391 68.6024 76.6601 68.9304 77.0054 69.1611C77.3506 69.3919 77.7565 69.5151 78.1718 69.5152Z" fill="#FE7634"/>
<path d="M62.6591 84.2553L68.9591 86.3553C69.221 86.4424 69.4976 86.4771 69.773 86.4573C70.0484 86.4376 70.3172 86.3638 70.5641 86.2402C70.811 86.1165 71.0311 85.9455 71.2118 85.7368C71.3926 85.5281 71.5305 85.2858 71.6177 85.0239C71.7048 84.7619 71.7395 84.4853 71.7197 84.2099C71.7 83.9345 71.6262 83.6657 71.5026 83.4188C71.3789 83.1719 71.2079 82.9518 70.9992 82.7711C70.7905 82.5903 70.5482 82.4524 70.2863 82.3653L65.4227 80.7504V69.6645C65.4227 69.1075 65.2014 68.5734 64.8076 68.1795C64.4138 67.7857 63.8796 67.5645 63.3227 67.5645C62.7657 67.5645 62.2316 67.7857 61.8377 68.1795C61.4439 68.5734 61.2227 69.1075 61.2227 69.6645V82.2645C61.223 82.705 61.3619 83.1343 61.6197 83.4916C61.8774 83.8489 62.2411 84.116 62.6591 84.2553Z" fill="#FE7634"/>
</g>
<defs>
<clipPath id="clip0_1_258">
<rect width="126" height="126" fill="white" transform="translate(0.322266 0.364258)"/>
</clipPath>
</defs>
</svg>
