<svg width="189" height="47" viewBox="0 0 189 47" fill="none" xmlns="http://www.w3.org/2000/svg">
<path d="M50.1899 16.8745H69.1344V20.4034H61.6752V40.2961H57.5867V20.4034H50.1587L50.1899 16.8745ZM68.3229 23.3389H71.8185V26.6179H71.8809C72.0057 26.1495 72.2242 25.7123 72.5363 25.2751C72.8484 24.8378 73.2229 24.4319 73.6911 24.0884C74.128 23.7136 74.6274 23.4326 75.1891 23.214C75.7197 22.9953 76.2815 22.8704 76.8433 22.8704C77.2802 22.8704 77.5923 22.9017 77.7484 22.9017C77.9044 22.9329 78.0917 22.9641 78.2477 22.9641V26.5554C77.9981 26.493 77.7172 26.4617 77.4363 26.4305C77.1554 26.3993 76.9057 26.3681 76.6248 26.3681C76.0006 26.3681 75.4076 26.493 74.8458 26.7428C74.2841 26.9926 73.8159 27.3674 73.379 27.8358C72.9732 28.3355 72.6299 28.9288 72.3802 29.6471C72.1306 30.3653 72.0057 31.2085 72.0057 32.1454V40.2024H68.2605L68.3229 23.3389ZM95.4133 40.2961H91.7305V37.9227H91.6681C91.1999 38.7971 90.5133 39.4529 89.6082 39.9838C88.7031 40.5147 87.7668 40.7645 86.8305 40.7645C84.6146 40.7645 82.9917 40.2336 81.9929 39.1094C80.9942 38.0164 80.4949 36.33 80.4949 34.1128V23.3389H84.2401V33.7381C84.2401 35.237 84.521 36.2988 85.1139 36.8922C85.6757 37.5167 86.4872 37.829 87.5171 37.829C88.2974 37.829 88.9528 37.7041 89.4834 37.4543C90.0139 37.2044 90.4509 36.8922 90.763 36.4862C91.1063 36.0802 91.3247 35.5805 91.4808 35.0184C91.6368 34.4563 91.6993 33.8317 91.6993 33.1759V23.3389H95.4445V40.2961H95.4133ZM101.78 34.8623C101.905 35.9553 102.311 36.7048 103.029 37.1732C103.746 37.6104 104.62 37.829 105.619 37.829C105.962 37.829 106.368 37.7978 106.805 37.7353C107.242 37.6729 107.679 37.5792 108.053 37.423C108.459 37.2669 108.771 37.0483 109.021 36.736C109.271 36.4237 109.395 36.049 109.364 35.5806C109.333 35.1121 109.177 34.7061 108.834 34.3939C108.49 34.0816 108.085 33.863 107.585 33.6444C107.086 33.457 106.493 33.3008 105.837 33.1759C105.182 33.051 104.527 32.8949 103.84 32.7387C103.153 32.5826 102.467 32.3952 101.811 32.1766C101.156 31.958 100.594 31.6769 100.064 31.271C99.5642 30.8962 99.1273 30.4278 98.8464 29.8345C98.5343 29.2411 98.3782 28.5541 98.3782 27.6797C98.3782 26.7428 98.5967 25.9933 99.0648 25.3687C99.5018 24.7442 100.095 24.2445 100.781 23.8698C101.468 23.495 102.248 23.214 103.091 23.0578C103.934 22.9017 104.745 22.8392 105.494 22.8392C106.368 22.8392 107.211 22.9329 107.991 23.1203C108.771 23.3076 109.52 23.5887 110.144 24.0259C110.8 24.4319 111.33 24.994 111.736 25.6498C112.173 26.3056 112.423 27.1175 112.548 28.0544H108.646C108.459 27.1488 108.053 26.5554 107.429 26.2431C106.774 25.9309 106.056 25.7747 105.213 25.7747C104.964 25.7747 104.62 25.8059 104.277 25.8372C103.902 25.8996 103.59 25.9621 103.247 26.087C102.935 26.2119 102.654 26.3993 102.436 26.6179C102.217 26.8365 102.092 27.1488 102.092 27.5235C102.092 27.992 102.248 28.3355 102.56 28.6165C102.872 28.8976 103.278 29.1162 103.809 29.3348C104.308 29.5222 104.901 29.6783 105.557 29.8032C106.212 29.9281 106.899 30.0843 107.585 30.2404C108.272 30.3966 108.927 30.5839 109.583 30.8025C110.238 31.0211 110.831 31.3022 111.33 31.7082C111.83 32.0829 112.267 32.5514 112.579 33.1135C112.891 33.6756 113.047 34.3939 113.047 35.2058C113.047 36.2051 112.828 37.0483 112.36 37.7666C111.892 38.4536 111.299 39.0469 110.581 39.4841C109.864 39.9214 109.021 40.2336 108.147 40.4522C107.242 40.6396 106.368 40.7645 105.494 40.7645C104.433 40.7645 103.434 40.6396 102.529 40.3898C101.624 40.14 100.813 39.7652 100.157 39.2968C99.5018 38.7971 98.9712 38.2038 98.5967 37.4543C98.2222 36.736 98.0037 35.8616 97.9725 34.8311H101.749V34.8623H101.78ZM114.108 23.3389H116.948V18.2173H120.693V23.3076H124.064V26.087H120.693V35.1434C120.693 35.5493 120.725 35.8616 120.756 36.1739C120.787 36.455 120.881 36.7048 120.974 36.8922C121.099 37.0795 121.286 37.2357 121.505 37.3294C121.755 37.4231 122.067 37.4855 122.504 37.4855C122.753 37.4855 123.034 37.4855 123.284 37.4543C123.534 37.423 123.814 37.3918 124.064 37.3294V40.2336C123.658 40.2961 123.253 40.3273 122.847 40.3586C122.441 40.421 122.067 40.421 121.63 40.421C120.631 40.421 119.851 40.3273 119.258 40.14C118.665 39.9526 118.197 39.6715 117.853 39.328C117.51 38.9533 117.292 38.5161 117.167 37.9852C117.042 37.4543 116.979 36.7985 116.948 36.1114V26.1182H114.108V23.2764V23.3389ZM126.686 23.3389H130.212V25.6498H130.275C130.805 24.6505 131.523 23.9634 132.46 23.5262C133.396 23.089 134.395 22.8704 135.518 22.8704C136.86 22.8704 138.015 23.089 139.014 23.5887C140.012 24.0571 140.824 24.6817 141.479 25.5249C142.135 26.3368 142.634 27.3049 142.946 28.3979C143.258 29.4909 143.446 30.6776 143.446 31.8955C143.446 33.051 143.289 34.144 143.009 35.2058C142.696 36.2676 142.26 37.2357 141.667 38.0476C141.074 38.8596 140.325 39.5154 139.388 40.015C138.452 40.5147 137.391 40.7645 136.142 40.7645C135.612 40.7645 135.05 40.7021 134.519 40.6084C133.989 40.5147 133.458 40.3586 132.959 40.14C132.46 39.9214 131.991 39.6403 131.586 39.2968C131.149 38.9533 130.805 38.5473 130.525 38.1101H130.462V46.5731H126.717V23.3389H126.686ZM139.763 31.8331C139.763 31.0836 139.669 30.3341 139.451 29.6159C139.263 28.8976 138.951 28.273 138.546 27.7109C138.14 27.1488 137.64 26.7116 137.079 26.3681C136.486 26.0245 135.799 25.8684 135.05 25.8684C133.49 25.8684 132.304 26.3993 131.492 27.4923C130.712 28.5853 130.306 30.0531 130.306 31.8643C130.306 32.7387 130.4 33.5194 130.618 34.2377C130.837 34.956 131.118 35.5805 131.554 36.1114C131.96 36.6423 132.46 37.0483 133.053 37.3606C133.646 37.6729 134.301 37.829 135.081 37.829C135.955 37.829 136.642 37.6417 137.235 37.2981C137.828 36.9546 138.296 36.4862 138.702 35.9553C139.076 35.3932 139.357 34.7686 139.513 34.0503C139.669 33.3009 139.763 32.5826 139.763 31.8331ZM146.348 16.8745H150.093V20.4034H146.348V16.8745ZM146.348 23.3389H150.093V40.2961H146.348V23.3389ZM153.433 16.8745H157.178V40.2961H153.433V16.8745ZM168.601 40.7645C167.259 40.7645 166.042 40.5459 164.98 40.0775C163.919 39.6091 163.045 39.0157 162.296 38.235C161.579 37.4543 161.017 36.4862 160.642 35.3932C160.268 34.3002 160.049 33.0822 160.049 31.8019C160.049 30.5215 160.237 29.3348 160.642 28.2418C161.017 27.1488 161.579 26.2119 162.296 25.4C163.014 24.6192 163.919 23.9947 164.98 23.5575C166.042 23.1203 167.259 22.8704 168.601 22.8704C169.943 22.8704 171.16 23.089 172.221 23.5575C173.282 23.9947 174.156 24.6192 174.905 25.4C175.623 26.1807 176.185 27.1488 176.559 28.2418C176.934 29.3348 177.152 30.5215 177.152 31.8019C177.152 33.1135 176.965 34.3002 176.559 35.3932C176.154 36.4862 175.623 37.423 174.905 38.235C174.187 39.0157 173.282 39.6403 172.221 40.0775C171.16 40.5147 169.974 40.7645 168.601 40.7645ZM168.601 37.7978C169.412 37.7978 170.161 37.6104 170.754 37.2669C171.379 36.9234 171.847 36.455 172.252 35.8928C172.658 35.3307 172.939 34.6749 173.126 33.9879C173.314 33.2696 173.407 32.5514 173.407 31.8019C173.407 31.0836 173.314 30.3653 173.126 29.6471C172.939 28.9288 172.658 28.3042 172.252 27.7421C171.847 27.18 171.347 26.7428 170.754 26.3993C170.13 26.0558 169.412 25.8684 168.601 25.8684C167.789 25.8684 167.04 26.0558 166.447 26.3993C165.823 26.7428 165.355 27.2112 164.949 27.7421C164.544 28.3042 164.263 28.9288 164.075 29.6471C163.888 30.3653 163.794 31.0836 163.794 31.8019C163.794 32.5514 163.888 33.2696 164.075 33.9879C164.263 34.7061 164.544 35.3307 164.949 35.8928C165.355 36.455 165.854 36.9234 166.447 37.2669C167.072 37.6416 167.789 37.7978 168.601 37.7978ZM178.276 23.3389H181.116V18.2173H184.861V23.3076H188.232V26.087H184.861V35.1434C184.861 35.5493 184.892 35.8616 184.924 36.1739C184.955 36.455 185.049 36.7048 185.142 36.8922C185.267 37.0795 185.454 37.2357 185.673 37.3294C185.922 37.4231 186.235 37.4855 186.671 37.4855C186.921 37.4855 187.202 37.4855 187.452 37.4543C187.701 37.423 187.982 37.3918 188.232 37.3294V40.2336C187.826 40.2961 187.42 40.3273 187.015 40.3586C186.609 40.421 186.235 40.421 185.798 40.421C184.799 40.421 184.019 40.3273 183.426 40.14C182.833 39.9526 182.364 39.6715 182.021 39.328C181.678 38.9533 181.459 38.5161 181.335 37.9852C181.21 37.4543 181.147 36.7985 181.116 36.1114V26.1182H178.276V23.2764V23.3389Z" fill="#272727"/>
<path d="M45.8205 16.8747H28.6862L23.4117 0.573242L18.106 16.8747L0.97168 16.8434L14.8289 26.9303L9.52323 43.2318L23.3805 33.1449L37.2378 43.2318L31.9633 26.9303L45.8205 16.8747Z" fill="#272727"/>
<path d="M33.1493 30.6152L31.9633 26.9302L23.4117 33.1447L33.1493 30.6152Z" fill="#272727"/>
</svg>
