<svg width="226" height="93" viewBox="0 0 226 93" fill="none" xmlns="http://www.w3.org/2000/svg">
<g clip-path="url(#clip0_81_6100)">
<path d="M165.125 35.2974H169.988C171.691 40.3902 173.405 45.5161 175.122 50.6439C175.188 50.6549 175.252 50.666 175.319 50.677C177.743 45.4037 180.169 40.1322 182.639 34.7594C185.077 40.1322 187.472 45.4037 189.958 50.8797C191.776 45.5327 193.523 40.3957 195.261 35.2882H200.124C197.011 44.4566 193.927 53.5311 190.799 62.7475C188.058 56.774 185.387 50.9552 182.642 44.9781C179.851 50.9608 177.133 56.7887 174.375 62.7014C171.282 53.5329 168.23 44.488 165.129 35.2992L165.125 35.2974Z" fill="black"/>
<path d="M103.386 64.73C100.288 73.8616 97.2168 82.9103 94.0869 92.134C91.3515 86.1753 88.6916 80.3823 85.9322 74.3702C83.1489 80.3363 80.4577 86.1071 77.6669 92.088C74.5628 82.8771 71.5233 73.8561 68.456 64.7521H73.2541C74.9647 69.8688 76.6808 75.0003 78.3969 80.1318C78.4669 80.1428 78.5351 80.1557 78.6052 80.1668C81.0236 74.9082 83.4438 69.6514 85.9322 64.2418C88.3672 69.6017 90.7561 74.864 93.1469 80.1281C93.2058 80.1281 93.2667 80.1281 93.3257 80.1262C95.0713 74.9985 96.8169 69.8725 98.5698 64.7282H103.386V64.73Z" fill="black"/>
<path d="M136.818 48.6392C136.689 45.6672 137.428 43.1005 139.045 40.8103C140.363 38.9438 142.023 37.4716 144.084 36.4177C146.317 35.2753 148.667 34.7299 151.144 34.8405C154.703 35.0008 157.826 36.2297 160.434 38.7429C162.313 40.5523 163.68 42.6454 164.178 45.1973C164.991 49.3725 164.534 53.3155 161.795 56.7998C159.684 59.4825 156.984 61.2126 153.656 61.8483C151.214 62.3163 148.759 62.2481 146.337 61.4779C142.355 60.2103 139.487 57.7118 137.777 53.9143C137.002 52.1934 136.704 50.362 136.818 48.6392ZM141.448 48.466C141.321 53.9844 145.57 57.8629 150.669 57.8279C155.985 57.791 159.802 53.8499 159.839 48.6576C159.878 42.9273 155.843 39.187 150.637 39.1188C145.399 39.0506 141.362 43.2258 141.448 48.466Z" fill="black"/>
<path d="M208.22 61.4909H203.444V34.3872C203.661 34.553 203.827 34.6544 203.962 34.787C206.686 37.4771 209.394 40.182 212.129 42.861C214.317 45.0039 216.533 47.1191 218.745 49.238C219.537 49.9971 220.358 50.7305 221.219 51.5264C221.101 51.5614 221.132 51.5559 221.16 51.543C221.183 51.532 221.222 51.5117 221.222 51.497C221.224 46.1278 221.224 40.7605 221.224 35.3029H225.994V62.6074C225.698 62.3384 225.43 62.1136 225.183 61.8686C223.054 59.7478 220.94 57.6142 218.8 55.5045C216.247 52.9894 213.679 50.4909 211.106 47.998C210.192 47.1136 209.243 46.266 208.216 45.3153V61.4927L208.22 61.4909Z" fill="black"/>
<path d="M187.156 81.6279V90.9603H182.438V64.7374C182.622 64.719 182.825 64.6784 183.029 64.6784C186.285 64.6747 189.543 64.5771 192.795 64.7005C196.81 64.8535 199.857 67.0258 200.928 71.0739C201.807 74.4015 200.375 78.4071 197.28 80.082C197.014 80.2257 196.771 80.4118 196.458 80.6182C198.528 84.0379 200.596 87.4503 202.723 90.9603C202.382 90.988 202.152 91.0193 201.923 91.0211C200.603 91.0266 199.282 91.0027 197.962 91.034C197.503 91.0451 197.223 90.8866 196.998 90.5052C195.483 87.933 193.956 85.3664 192.434 82.7979C192.388 82.7187 192.318 82.6505 192.283 82.5676C191.969 81.8306 191.455 81.545 190.625 81.6058C189.505 81.6868 188.373 81.626 187.16 81.626L187.156 81.6279ZM187.162 77.3901C188.854 77.3901 190.447 77.3458 192.036 77.4011C193.779 77.4619 195.75 76.4209 196.305 74.1638C196.751 72.3526 195.86 69.996 193.921 69.3161C193.667 69.2276 193.401 69.1097 193.14 69.106C191.16 69.0876 189.18 69.0968 187.162 69.0968V77.3882V77.3901Z" fill="black"/>
<path d="M120.735 80.6071C122.82 84.0398 124.883 87.4411 127.06 91.0248H125.275C124.324 91.0248 123.369 90.9916 122.42 91.0377C121.852 91.0653 121.548 90.8461 121.266 90.3652C119.687 87.6861 118.05 85.0403 116.488 82.3502C116.16 81.7845 115.808 81.5966 115.189 81.6168C113.967 81.6574 112.743 81.6279 111.418 81.6279V90.9769H106.798V64.7374C107.125 64.7171 107.418 64.684 107.713 64.684C110.815 64.6803 113.919 64.5974 117.017 64.7024C120.643 64.8258 123.43 66.4786 124.833 69.8946C126.134 73.0638 125.53 76.0727 123.338 78.6964C122.826 79.31 122.051 79.7061 121.392 80.1944C121.2 80.3363 120.986 80.4505 120.735 80.6053V80.6071ZM111.447 77.3901C113.27 77.3901 114.99 77.4582 116.7 77.3735C119.358 77.2427 120.816 75.3872 120.756 73.0878C120.697 70.8583 119.456 69.095 116.647 68.9881C115.148 68.931 113.646 68.9678 112.146 68.9734C111.915 68.9734 111.683 69.0379 111.447 69.0729V77.3901Z" fill="black"/>
<path d="M161.03 90.9732V64.7411H177.641V69.0065H165.798V75.1643H176.934V79.4592C173.295 79.6195 169.592 79.4592 165.819 79.5329V86.7372H177.89V90.9732H161.028H161.03Z" fill="black"/>
<path d="M70.4671 35.4227H75.09C75.09 35.793 75.09 36.121 75.09 36.4508C75.09 41.4846 75.0587 46.5203 75.1066 51.5541C75.125 53.4261 75.6098 55.1746 77.1213 56.4755C77.8144 57.0725 78.6144 57.4244 79.5029 57.5847C81.8272 58.0029 84.4705 57.5699 85.8567 55.3681C86.6954 54.036 86.9516 52.5343 86.9516 50.9921C86.9553 46.0191 86.9313 41.0461 86.9239 36.0731C86.9239 35.8667 86.9755 35.6604 87.0069 35.4209H91.6133C91.6354 35.6401 91.6778 35.8723 91.6778 36.1044C91.6815 41.3538 91.7183 46.6032 91.6612 51.8526C91.6409 53.7448 91.2575 55.5929 90.2842 57.2788C88.9847 59.5286 86.9995 60.8607 84.5553 61.4982C83.3277 61.8188 82.0245 62.0528 80.7655 62.0141C77.9305 61.9257 75.2633 61.1924 73.1527 59.1324C71.5104 57.5294 70.6016 55.5229 70.5076 53.2639C70.3749 50.0837 70.4284 46.8943 70.4154 43.7086C70.4044 41.1917 70.4118 38.6748 70.4154 36.1579C70.4154 35.9183 70.4486 35.6806 70.4671 35.4227Z" fill="black"/>
<path d="M96.9385 61.4835V35.3306C97.4086 35.3306 97.827 35.3324 98.2473 35.3306C101.193 35.3103 104.14 35.2698 107.086 35.2771C108.741 35.2808 110.262 35.8262 111.663 36.6719C113.775 37.9451 115.075 39.889 115.406 42.2585C115.902 45.8091 114.831 48.8345 111.72 50.946C110.19 51.9834 108.498 52.3887 106.697 52.4256C105.043 52.4588 103.39 52.433 101.659 52.433V61.4835H96.9404H96.9385ZM101.657 48.1048C103.326 48.1048 104.918 48.0588 106.505 48.1159C108.522 48.1896 110.324 46.8482 110.752 44.7035C111.255 42.1848 109.512 39.5573 106.793 39.5887C105.29 39.6071 103.786 39.5905 102.282 39.5979C102.079 39.5979 101.879 39.6384 101.657 39.6642V48.1048Z" fill="black"/>
<path d="M220.667 70.8638C219.882 70.3995 219.219 70.0034 218.553 69.6146C217.279 68.8702 215.843 68.6325 214.426 68.5938C213.427 68.5662 212.369 68.7117 211.427 69.2442C209.987 70.0586 209.48 71.7759 211.036 73.0749C211.589 73.5355 212.216 73.9298 212.861 74.2541C214.761 75.2085 216.73 76.0321 218.59 77.0566C220.172 77.9262 221.591 79.0483 222.324 80.808C223.9 84.587 222.418 89.0551 218.339 90.6397C216.352 91.4117 214.314 91.4965 212.24 91.4173C209.495 91.3122 207.012 90.4039 204.693 88.9169V83.861C205.044 84.1116 205.357 84.3254 205.657 84.5557C208.201 86.5161 211.056 87.4742 214.275 87.1389C215.399 87.021 216.489 86.6967 217.338 85.862C218.428 84.7897 218.446 83.043 217.407 81.9135C216.64 81.0807 215.631 80.6366 214.653 80.1539C213.7 79.684 212.688 79.3302 211.748 78.842C210.513 78.1989 209.265 77.554 208.124 76.7636C206.791 75.8405 205.796 74.5618 205.521 72.9293C205.075 70.2797 205.468 67.7905 208.057 66.0032C209.733 64.8461 211.597 64.356 213.624 64.297C215.925 64.2307 218.096 64.6084 220.124 65.7453C220.47 65.9406 220.66 66.1469 220.664 66.4989C220.678 67.9287 220.669 69.3603 220.669 70.8638H220.667Z" fill="black"/>
<path d="M15.7712 70.3682C15.1408 68.0705 14.5565 65.8153 13.9002 63.5803C13.1187 60.9178 11.9685 58.4083 10.6413 55.9706C8.80539 52.6025 6.60451 49.4941 4.15846 46.5498C2.91056 45.0481 1.68477 43.528 0.366821 41.9176C0.958517 41.1216 1.54653 40.2741 2.18983 39.4744C6.0036 34.7373 9.87634 30.048 13.6348 25.2667C15.6882 22.6558 17.6421 19.9602 19.29 17.0563C21.3342 13.4542 23.478 9.9073 25.5001 6.29409C26.4659 4.56948 27.3857 2.79881 27.7949 0.827297C27.8244 0.687264 27.9092 0.56013 28.0788 0.427467C28.0788 0.738855 28.0788 1.05209 28.0788 1.36347C28.0807 11.1271 28.0825 20.8906 28.0843 30.6542C28.0843 33.5083 28.0733 36.3642 28.0936 39.2183C28.0972 39.7269 27.9848 40.0732 27.5148 40.3404C27.1498 40.5486 26.8346 40.8619 26.5341 41.1659C24.8623 42.8536 24.8549 45.2747 26.501 46.9717C27.2493 47.7437 27.2549 48.009 26.4493 48.6595C25.3655 49.5365 24.9047 50.7507 24.6153 52.0423C24.536 52.3943 24.407 52.6301 24.1674 52.8881C23.3489 53.7633 23.2199 54.8577 24.0733 55.8527C24.2503 56.0591 24.3775 56.3797 24.383 56.6505C24.4125 58.0932 24.4107 59.5359 24.3867 60.9786C24.3812 61.2661 24.3111 61.6125 24.1397 61.828C23.4706 62.6664 23.6162 63.4513 24.1803 64.2454C24.0236 64.9788 23.4798 65.3307 22.842 65.5536C20.1232 66.5007 17.9592 68.2548 15.9647 70.2558C15.9242 70.2963 15.8615 70.3166 15.7693 70.37L15.7712 70.3682Z" fill="url(#paint0_linear_81_6100)"/>
<path d="M43.2749 69.3806C41.1403 67.573 38.8196 66.2704 36.3036 65.3546C36.0068 64.695 35.9533 64.0759 36.2851 63.4218C36.5487 62.8985 36.3294 62.3937 35.9976 61.9736C35.6897 61.583 35.6308 61.1629 35.6381 60.6893C35.6584 59.5543 35.651 58.4175 35.6418 57.2807C35.6381 56.8366 35.7377 56.4994 36.0805 56.1438C36.9192 55.2741 36.9413 54.211 36.1266 53.345C35.769 52.9654 35.5699 52.5619 35.4759 52.105C35.1699 50.6144 34.4934 49.378 33.3119 48.3812C32.9525 48.079 32.8234 47.506 32.5764 47.0325C33.4114 45.8219 34.0953 44.6077 33.6566 43.0324C33.2382 41.5381 32.1322 40.731 30.9009 39.9074V0C31.6069 1.40954 32.2391 2.64219 32.8437 3.88774C34.0437 6.35674 35.1884 8.85153 36.4252 11.3003C38.9431 16.288 41.9145 21.003 45.3154 25.4343C47.9236 28.832 50.5946 32.1798 53.236 35.5517C54.6295 37.3297 56.0083 39.1188 57.411 40.8913C57.8 41.3814 57.905 41.8531 57.5345 42.3875C57.2064 42.8628 56.9189 43.3732 56.5502 43.8154C53.1696 47.8653 50.2351 52.21 47.9144 56.949C46.0435 60.7704 44.508 64.7263 43.5495 68.8868C43.5163 69.0268 43.4057 69.1484 43.273 69.3787L43.2749 69.3806Z" fill="url(#paint1_linear_81_6100)"/>
<path d="M48.1725 74.8271C49.2102 75.6747 49.6729 76.8594 50.0029 78.0939C50.1282 78.5619 50.2591 78.9617 50.6996 79.205C51.4867 78.8014 51.6028 78.5748 51.4296 77.801C51.1365 76.4964 50.4729 75.4517 49.3153 74.746C49.1402 74.6392 48.9725 74.5176 48.825 74.3646C49.9107 74.5894 50.7494 75.2122 51.33 76.1242C51.8351 76.9147 52.1798 77.7899 52.2609 78.7535C52.3107 79.3376 52.3807 79.883 53.0148 80.2497C53.5973 80.5887 53.4461 81.5763 52.8341 81.9338C52.659 82.0369 52.4636 82.107 52.2922 82.2801C54.3844 82.5105 56.4101 81.825 58.493 81.9338C43.8518 84.3051 29.2087 86.6783 14.5177 89.057C14.4864 88.7161 14.4643 88.4618 14.4421 88.2315C14.3647 88.1726 14.3242 88.1173 14.2744 88.1044C13.3454 87.8704 12.4145 87.7672 11.4708 88.0417C11.2993 88.0915 11.104 88.0639 10.9196 88.062C8.77773 88.0546 6.65794 88.2776 4.54185 88.6056C3.70131 88.7364 2.84234 88.7382 1.99258 88.8119C1.33453 88.8691 0.678318 88.9427 0.00183105 88.8727C1.89489 88.484 3.7861 88.0952 5.67916 87.7046C6.27085 87.583 6.86071 87.4374 7.45793 87.3434C7.78604 87.2918 7.9464 87.1463 7.98696 86.8238C8.02566 86.5106 7.84871 86.0426 8.28557 85.9578C8.6745 85.8823 9.10399 86.0039 9.51135 86.0592C9.62195 86.0739 9.72333 86.1587 9.92794 86.2619C10.0312 85.9763 10.1897 85.7386 10.1934 85.4972C10.2192 84.3051 10.2044 83.1111 10.2044 81.8858C9.71412 81.7587 9.4579 81.8398 9.46527 82.3667C9.47817 83.1038 9.46896 83.8389 9.46896 84.5981C9.23302 84.6312 8.99892 84.6644 8.73349 84.7012C8.65607 83.8002 8.83118 82.8311 8.61736 81.8214C8.03119 82.0646 8.20631 82.4718 8.18419 82.7942C8.16022 83.1277 8.17866 83.4631 8.06437 83.8094C7.95562 83.2051 7.84686 82.6007 7.73074 81.9522C7.28282 81.6961 6.67085 81.5523 6.6985 80.7914C6.72246 80.0857 7.35102 80.0783 7.59065 79.9162C7.89663 78.7664 8.10124 77.7549 8.4404 76.7912C8.85146 75.6175 9.74914 74.8363 10.8072 74.2228C11.0597 74.0772 11.2625 73.8413 11.4781 73.6368C11.7602 73.3715 12.033 73.097 12.4551 72.6842C12.4551 72.207 12.468 71.5345 12.4459 70.8638C12.4403 70.6998 12.3021 70.5451 12.2708 70.3792C12.2339 70.1894 12.1841 69.9647 12.2486 69.797C12.5233 69.0802 12.8403 68.3782 13.1574 67.632C13.1574 69.1005 13.1574 70.5598 13.1574 72.0172C13.1574 72.4779 13.1168 72.944 13.1721 73.3973C13.2071 73.6774 13.3878 73.9408 13.5334 74.2799C12.2781 75.7134 12.6597 77.4103 13.1979 79.1644C13.421 79.1902 13.5998 79.2252 13.7767 79.2289C13.9555 79.2326 14.1362 79.2086 14.4569 79.1865C14.4938 78.5103 14.5859 77.8489 14.5509 77.1948C14.5159 76.5683 14.3481 75.951 14.2394 75.3283C14.2965 75.3098 14.3555 75.2914 14.4127 75.273C14.6007 75.7723 14.844 76.2569 14.9638 76.7728C15.0947 77.3311 15.1537 77.9133 15.1647 78.4882C15.1721 78.8475 15.2606 79.1257 15.6016 79.1644C15.9444 79.2031 16.2596 79.0262 16.3518 78.6485C16.3997 78.4495 16.4034 78.2321 16.3887 78.0257C16.3186 77.0916 15.9371 76.2772 15.4228 75.5088C15.3177 75.3522 15.2919 75.1422 15.2311 74.9561L15.2053 74.9819C16.2652 75.8368 16.5398 77.1155 16.9877 78.2984C17.0301 78.409 16.9785 78.5803 17.0449 78.654C17.2421 78.8641 17.526 79.2252 17.6845 79.1828C17.937 79.1147 18.2522 78.7941 18.2965 78.5361C18.4292 77.7623 18.1619 77.0455 17.7767 76.3675C17.126 75.2214 16.0569 74.6115 14.8477 74.0569C17.3804 70.0144 20.8089 67.2101 25.3802 66.1396C25.4245 65.6494 25.4927 65.257 25.4853 64.8645C25.4761 64.3615 25.6659 63.8346 25.2623 63.3702C24.9987 63.0662 25.0576 62.7014 25.4171 62.5135C25.7433 62.3421 25.83 62.1284 25.8281 61.7857C25.8189 59.8215 25.841 57.8555 25.8189 55.8914C25.8171 55.6592 25.6604 55.3626 25.4798 55.2078C24.6798 54.5224 24.7222 54.0728 25.6825 53.5458C25.7083 53.5311 25.7286 53.5053 25.8392 53.404C25.9922 51.532 26.4862 49.7355 28.6723 49.0114C28.1931 48.0625 28.335 47.3402 29.0152 46.9293C29.0668 45.9841 29.1442 45.1771 29.135 44.37C29.1313 44.0734 28.9968 43.6865 28.7811 43.504C28.123 42.9458 28.0253 42.3082 28.276 41.5362C28.6115 40.5062 28.9249 39.4707 29.358 38.461V40.5892C30.5617 40.6371 29.5295 41.6984 30.1838 42.0632C29.9166 42.159 29.7507 42.218 29.5829 42.2769C29.5958 42.334 29.5903 42.4225 29.6235 42.4409C30.0087 42.6583 30.252 42.8905 29.9848 43.3898C29.8907 43.5648 29.994 43.8523 30.0308 44.0863C30.1156 44.6206 30.3516 45.1715 30.2797 45.6819C30.1377 46.6824 30.7608 47.2131 31.3248 47.8156C31.4041 47.9003 31.4999 47.9703 31.5866 48.0459C31.3592 48.3591 30.7534 48.3272 29.7691 47.9501C29.417 48.7424 29.5331 49.004 30.2576 49.0538C32.6981 49.2177 33.6658 50.0413 34.1487 52.4588C34.287 53.146 34.3699 53.7762 35.0243 54.2368C35.4851 54.5611 35.3598 55.0291 34.8473 55.2926C34.6593 55.3884 34.4639 55.4676 34.1967 55.5874C34.1967 56.4128 34.193 57.2659 34.1967 58.119C34.2022 59.2227 34.2206 60.3282 34.2225 61.4319C34.2225 61.8022 34.2022 62.1284 34.6022 62.3771C34.9893 62.6185 34.9893 63.0017 34.7662 63.4255C34.6206 63.7019 34.4676 64.1054 34.5672 64.3541C34.8086 64.9659 34.6815 65.4523 34.1764 66.0124C38.4215 67.4643 42.2352 69.4008 44.7808 73.167C45.3522 73.1172 45.6638 72.8759 45.5863 72.2899C45.4979 71.6211 45.8739 70.8767 45.2601 70.2889C45.2158 70.2466 45.2287 70.1029 45.2601 70.0236C45.5937 69.224 45.9366 68.4298 46.3329 67.503C46.3329 68.0908 46.3329 68.5754 46.3329 69.06C46.3329 70.4732 46.3402 71.8846 46.3292 73.2978C46.3255 73.6847 46.3366 74.0348 46.8453 74.1398C45.367 75.5881 45.7836 77.2353 46.2241 78.8696C46.3347 79.2805 46.7237 79.2529 47.0683 79.24C47.4425 79.2271 47.5716 79.0354 47.6379 78.6688C47.8425 77.5504 47.5163 76.4946 47.3227 75.4204C47.3024 75.3062 47.2766 75.1919 47.2416 75.0206C47.8923 75.6765 48.0342 76.2624 48.2204 78.9415C49.19 79.3395 49.4794 79.1478 49.4831 78.1234C49.4867 77.2721 49.1715 76.5333 48.7291 75.8276C48.5264 75.5033 48.3715 75.1495 48.1946 74.8087L48.1688 74.8345L48.1725 74.8271ZM36.2077 68.3727C36.1764 68.3451 36.1469 68.3156 36.1358 68.3064C36.1524 68.3137 36.1911 68.3322 36.2317 68.3506C36.6169 68.7209 36.9966 69.0987 37.3892 69.4616C39.1422 71.0757 40.3772 73.0269 41.1827 75.2601C41.3062 75.6028 41.4777 75.9289 41.627 76.2643C41.5551 76.15 41.4832 76.0358 41.4131 75.9216C42.1339 75.3688 42.8564 74.8142 43.5845 74.2559C42.4085 72.3839 40.8528 70.9338 39.0408 69.773C38.1597 69.2092 37.1551 68.8333 36.2077 68.3746V68.3727ZM41.0906 83.7726C41.05 83.3617 41.0002 83.0632 40.9947 82.7647C40.9837 82.282 40.8952 81.9356 40.3514 81.709C39.7063 81.44 39.6454 80.5574 40.2334 80.1318C40.6095 79.8609 40.6832 79.5772 40.5929 79.2068C39.8943 76.3325 38.9413 73.5576 37.1386 71.1623C36.2169 69.937 35.1533 68.8536 33.6511 68.3285C31.3801 67.5362 29.8502 68.0945 28.8327 70.4916C27.7064 73.143 27.3083 75.9639 26.9544 78.7904C26.853 79.6029 26.8217 80.4247 26.7719 81.2428C26.689 82.6044 26.6171 83.9661 26.536 85.4254C31.487 84.8615 36.2741 84.318 41.0887 83.7708L41.0906 83.7726ZM32.7515 62.3918V56.7574C33.1865 56.8329 33.5497 56.8956 33.911 56.9582C33.9368 56.9122 33.9644 56.8661 33.9902 56.82C33.7709 56.5768 33.5515 56.3336 33.3193 56.0775C33.5607 56.0535 33.7561 56.0333 33.9699 56.0112C33.9699 55.3331 33.6326 54.9609 33.052 54.9204C31.7746 54.8319 30.4935 54.8117 29.2143 54.7693C29.1682 54.7693 29.1184 54.8393 29.0133 54.9204C29.0281 55.1396 29.0447 55.3994 29.0686 55.7753H32.2649V62.4637C31.8833 62.4637 31.5515 62.4471 31.2234 62.4674C30.6447 62.5042 30.0695 62.5632 29.4908 62.613C29.017 62.6535 28.8253 62.9151 28.7516 63.385C28.6281 64.1883 28.9562 64.8627 29.2032 65.5555H29.9073C29.8465 65.1593 29.7894 64.7908 29.723 64.3597C30.5709 64.3191 31.3101 64.2823 32.0474 64.2454C32.0529 64.1809 32.0603 64.1183 32.0658 64.0538C31.9718 64.0188 31.8778 63.9856 31.7856 63.9469C31.6603 63.8935 31.5368 63.8382 31.3727 63.7645C32.1432 63.2284 32.2815 63.291 32.628 64.2454C33.0428 64.3191 33.4575 64.3947 33.9331 64.4794V63.5913C33.5865 63.4955 33.2529 63.4034 32.9008 63.3057C33.2695 62.5392 33.9589 63.0736 34.5045 62.8451C33.9921 62.2279 33.3082 62.6037 32.7515 62.3882V62.3918ZM16.7739 85.9984C16.8587 85.991 16.9416 85.9836 17.0264 85.9763C17.0264 85.0808 17.0172 84.1853 17.032 83.2899C17.0375 82.9914 17.0154 82.6321 17.1647 82.4054C17.5241 81.8601 17.4725 81.3331 17.3011 80.6642H14.3039C14.2763 81.0364 14.2504 81.3939 14.2246 81.7348C13.6827 81.8398 13.1906 81.9356 12.7168 82.0277V86.0002H15.9223C15.9223 85.0053 15.9168 84.0619 15.926 83.1167C15.9278 82.8274 15.8394 82.4165 16.3039 82.4404C16.7352 82.4626 16.6578 82.8587 16.6596 83.1572C16.6633 83.8924 16.6523 84.6294 16.667 85.3645C16.6707 85.5764 16.7389 85.7883 16.7776 85.9984H16.7739ZM28.7203 68.0282C28.617 68.1369 28.5027 68.2364 28.4143 68.3543C27.076 70.1581 26.4585 72.2549 26.0788 74.4144C25.795 76.0229 25.7231 77.6646 25.489 79.2842C25.194 81.3257 25.3692 83.3654 25.3581 85.4419H26.0604C26.0604 85.1213 26.0549 84.8505 26.0604 84.5796C26.1194 82.1678 26.1175 79.7522 26.2687 77.3458C26.359 75.8939 26.6005 74.4365 26.936 73.0214C27.3415 71.3208 27.8521 69.6348 28.7203 68.0282ZM31.9239 53.216C31.9239 52.748 31.97 52.374 31.9147 52.0165C31.7985 51.2722 31.758 50.4909 31.181 49.8995C30.6741 49.378 29.8834 49.4112 29.5571 50.0192C29.0207 51.0197 29.0373 52.0995 29.0834 53.2142H31.9239V53.216ZM17.3214 75.0906C19.2052 71.4534 21.9351 68.8426 25.8337 67.5583C22.8475 67.5399 17.3969 71.8919 16.3094 74.3757C16.5951 74.5784 16.8882 74.7847 17.3195 75.0906H17.3214ZM45.9753 83.2659C46.2555 82.9177 46.3919 82.5989 46.626 82.4865C47.1458 82.2378 46.9799 83.0374 47.3706 83.054C48.1098 82.1401 48.0232 82.188 48.7679 82.9324C49.1052 82.6229 49.4148 81.9614 49.9236 82.7205C50.5503 82.0812 50.7125 81.6555 50.5282 81.0825C50.4213 80.7545 50.2664 80.5039 49.8167 80.5297C49.0407 80.5758 48.261 80.5426 47.472 80.5426C47.4554 80.7822 47.4315 80.9038 47.4407 81.0235C47.4886 81.5966 47.2748 81.8693 46.6573 81.8435C46.3808 81.8324 46.0951 81.9982 45.7522 82.1033C45.8241 82.4865 45.8831 82.7961 45.9734 83.2641L45.9753 83.2659ZM14.1104 79.7706L14.1177 79.9936C15.0947 79.9936 16.0716 79.9807 17.0486 80.0028C17.2661 80.0083 17.6513 80.1115 17.6679 80.2165C17.7693 80.8632 17.9979 81.6039 17.7859 82.1622C17.4596 83.0245 17.6366 83.85 17.596 84.6865C17.5757 85.09 17.8541 85.195 18.2614 85.0366C18.2817 84.8394 18.3389 84.6275 18.3186 84.423C18.2338 83.5202 18.3628 82.6708 18.8642 81.8987C18.9766 81.7255 19.1186 81.556 19.1776 81.3626C19.2679 81.0733 19.3564 80.6679 18.9729 80.585C18.4071 80.4616 18.5711 79.9825 18.4716 79.7706H14.1104ZM31.8059 49.7594C32.029 50.9387 32.2465 52.0829 32.4806 53.3155C32.8345 53.38 33.2695 53.4593 33.7064 53.5385C33.922 51.9299 33.0759 50.2846 31.8059 49.7594ZM50.9945 82.6634C51.0627 82.6984 51.1328 82.7353 51.201 82.7703C51.413 82.6247 51.7024 82.5234 51.8222 82.3225C52.0655 81.9116 52.2296 81.451 52.3973 80.9996C52.4231 80.9277 52.3051 80.7158 52.2406 80.7103C51.6194 80.6477 51.7485 80.0544 51.6084 79.8075H47.5918C47.5918 79.8701 47.5918 79.9328 47.5918 79.9954H50.9927V82.6634H50.9945ZM31.5165 57.3323C30.735 57.9587 30.7626 58.6939 30.6852 59.3554C30.6115 59.9744 30.8013 60.061 31.5165 59.8713V57.3323ZM29.441 60.0224C30.1801 59.8455 29.9313 59.3056 29.9055 58.9629C29.8668 58.4636 30.2354 57.8132 29.441 57.3986V60.0224ZM43.3541 81.7569C43.0481 81.8951 42.72 81.9596 42.7053 82.0646C42.6463 82.5049 42.6795 82.9582 42.6795 83.417H43.3523V81.7569H43.3541ZM29.8778 45.2416C29.4981 45.7796 29.4336 46.3323 29.8778 46.8851V45.2416ZM41.6454 81.919C41.2823 82.5031 41.2952 83.0595 41.6454 83.6141V81.919ZM45.6767 79.8498C45.6767 79.872 45.6767 79.8959 45.6767 79.918H46.7273V79.8498H45.6748H45.6767ZM13.2735 79.9199C13.2753 79.9033 13.2772 79.8867 13.279 79.8683H12.7758C12.9417 79.8849 13.1076 79.9014 13.2735 79.9199Z" fill="url(#paint2_linear_81_6100)"/>
<path d="M9.42288 92.8858C10.3685 92.5117 11.3104 92.1322 12.2579 91.7637C13.5316 91.2699 14.7924 90.7374 16.0901 90.3099C16.9177 90.0372 17.7951 89.899 18.6559 89.7424C20.0568 89.4881 21.4596 89.2504 22.8678 89.0349C24.6706 88.7603 26.4788 88.5263 28.2816 88.2536C29.3931 88.0841 30.4954 87.8649 31.605 87.6806C33.7912 87.3176 35.9791 86.9694 38.1653 86.6009C39.8722 86.3134 41.5717 85.9928 43.2786 85.7165C44.9891 85.4401 46.7034 85.1987 48.4176 84.9444C48.954 84.8652 49.4923 84.797 50.1024 84.7141V93H9.47265L9.42288 92.8858Z" fill="url(#paint3_linear_81_6100)"/>
<path d="M157.645 64.7392V68.9568C155.297 69.1447 152.958 69.0176 150.506 69.0084V90.9824H145.732V69.0065H138.726V64.7411H157.643L157.645 64.7392Z" fill="black"/>
<path d="M128.739 61.5203H124.013V39.5868H116.966V35.349H135.718V39.5794H128.739V61.5185V61.5203Z" fill="black"/>
<path d="M130.623 64.7024H135.107V90.9566H130.623V64.7024Z" fill="black"/>
<path d="M30.7682 42.3082C31.1497 43.2111 31.135 44.1305 30.7147 45.0628C30.6373 44.1471 30.5599 43.2295 30.4825 42.3138C30.5783 42.3138 30.6742 42.3101 30.77 42.3082H30.7682Z" fill="url(#paint4_linear_81_6100)"/>
<path d="M15.0191 74.7792C14.9656 74.7645 14.9122 74.7516 14.8587 74.7368C14.9048 74.7589 14.9491 74.781 14.9951 74.8032L15.0191 74.7774V74.7792Z" fill="url(#paint5_linear_81_6100)"/>
<path d="M48.1983 74.8013C48.1448 74.7792 48.0932 74.7571 48.0398 74.7368C48.084 74.7663 48.1282 74.7976 48.1725 74.8271L48.1983 74.8013Z" fill="url(#paint6_linear_81_6100)"/>
<path d="M14.1712 74.8529C14.1896 74.8732 14.2247 74.8953 14.2228 74.9155C14.2228 74.9358 14.1859 74.9542 14.1657 74.9745C14.1472 74.9524 14.1122 74.9321 14.1141 74.9119C14.1141 74.8916 14.1509 74.8732 14.1712 74.8529Z" fill="url(#paint7_linear_81_6100)"/>
<path d="M15.2292 74.9542C15.1592 74.8953 15.0892 74.8382 15.0191 74.7792L14.9951 74.805C15.0652 74.864 15.1334 74.9211 15.2034 74.98L15.2292 74.9542Z" fill="url(#paint8_linear_81_6100)"/>
<path d="M15.3656 85.2945H14.6302C14.6302 84.458 14.6117 83.6676 14.6449 82.8771C14.6523 82.7187 14.8514 82.5694 14.9638 82.4165C15.0984 82.5823 15.338 82.7445 15.3472 82.9177C15.3896 83.6805 15.3656 84.4451 15.3656 85.2945Z" fill="url(#paint9_linear_81_6100)"/>
<path d="M13.9076 82.4939C13.9076 83.3636 13.926 84.2351 13.8892 85.1047C13.8837 85.2337 13.6219 85.3498 13.3288 85.6004C13.3288 84.5538 13.3085 83.7044 13.3473 82.8587C13.3546 82.7021 13.5887 82.5565 13.7196 82.4054C13.7823 82.4349 13.8468 82.4644 13.9095 82.4939H13.9076Z" fill="url(#paint10_linear_81_6100)"/>
<path d="M14.5786 81.8029C14.6025 81.5284 14.6191 81.3497 14.6357 81.1525C15.0228 81.0199 15.3527 81.0678 15.3454 81.5229C15.338 82.0461 14.9325 81.7808 14.5786 81.8029Z" fill="url(#paint11_linear_81_6100)"/>
<path d="M16.8219 81.7882H15.9629C15.9518 81.6261 15.8891 81.4529 15.9481 81.3497C16.0182 81.2281 16.2855 81.0751 16.3113 81.0991C16.4698 81.252 16.5841 81.4492 16.8237 81.7882H16.8219Z" fill="url(#paint12_linear_81_6100)"/>
<path d="M49.8573 81.7882H48.9688C48.9596 81.6463 48.8914 81.44 48.954 81.3847C49.1089 81.2502 49.4038 81.0585 49.4978 81.1175C49.6619 81.2207 49.7153 81.4971 49.8591 81.7863L49.8573 81.7882Z" fill="url(#paint13_linear_81_6100)"/>
<path d="M47.7319 81.7827C47.66 81.2944 47.7356 81.0014 48.3089 81.1212C48.4029 81.5505 48.4545 81.9209 47.7319 81.7827Z" fill="url(#paint14_linear_81_6100)"/>
</g>
<defs>
<linearGradient id="paint0_linear_81_6100" x1="9.00491" y1="70.5779" x2="30.088" y2="6.53913" gradientUnits="userSpaceOnUse">
<stop stop-color="#FE7634"/>
<stop offset="1" stop-color="#FFCC00"/>
</linearGradient>
<linearGradient id="paint1_linear_81_6100" x1="39.2699" y1="69.5868" x2="60.5819" y2="6.36112" gradientUnits="userSpaceOnUse">
<stop stop-color="#FE7634"/>
<stop offset="1" stop-color="#FFCC00"/>
</linearGradient>
<linearGradient id="paint2_linear_81_6100" x1="18.2243" y1="89.2073" x2="23.9481" y2="38.5072" gradientUnits="userSpaceOnUse">
<stop stop-color="#FE7634"/>
<stop offset="1" stop-color="#FFCC00"/>
</linearGradient>
<linearGradient id="paint3_linear_81_6100" x1="22.0963" y1="93.0246" x2="22.3197" y2="84.6218" gradientUnits="userSpaceOnUse">
<stop stop-color="#FE7634"/>
<stop offset="1" stop-color="#FFCC00"/>
</linearGradient>
<linearGradient id="paint4_linear_81_6100" x1="30.4488" y1="46.4784" x2="32.6087" y2="43.8173" gradientUnits="userSpaceOnUse">
<stop stop-color="#FE7634"/>
<stop offset="1" stop-color="#FFCC00"/>
</linearGradient>
<linearGradient id="paint5_linear_81_6100" x1="14.8491" y1="74.8372" x2="14.8563" y2="74.7314" gradientUnits="userSpaceOnUse">
<stop stop-color="#FE7634"/>
<stop offset="1" stop-color="#FFCC00"/>
</linearGradient>
<linearGradient id="paint6_linear_81_6100" x1="48.0302" y1="74.8735" x2="48.0437" y2="74.7301" gradientUnits="userSpaceOnUse">
<stop stop-color="#FE7634"/>
<stop offset="1" stop-color="#FFCC00"/>
</linearGradient>
<linearGradient id="paint7_linear_81_6100" x1="14.1074" y1="75.037" x2="14.1422" y2="74.8485" gradientUnits="userSpaceOnUse">
<stop stop-color="#FE7634"/>
<stop offset="1" stop-color="#FFCC00"/>
</linearGradient>
<linearGradient id="paint8_linear_81_6100" x1="14.9811" y1="75.0832" x2="15.0258" y2="74.7677" gradientUnits="userSpaceOnUse">
<stop stop-color="#FE7634"/>
<stop offset="1" stop-color="#FFCC00"/>
</linearGradient>
<linearGradient id="paint9_linear_81_6100" x1="14.5802" y1="86.7736" x2="16.6682" y2="83.489" gradientUnits="userSpaceOnUse">
<stop stop-color="#FE7634"/>
<stop offset="1" stop-color="#FFCC00"/>
</linearGradient>
<linearGradient id="paint10_linear_81_6100" x1="13.2882" y1="87.2423" x2="15.8327" y2="84.4019" gradientUnits="userSpaceOnUse">
<stop stop-color="#FE7634"/>
<stop offset="1" stop-color="#FFCC00"/>
</linearGradient>
<linearGradient id="paint11_linear_81_6100" x1="14.5325" y1="82.2429" x2="14.728" y2="81.0525" gradientUnits="userSpaceOnUse">
<stop stop-color="#FE7634"/>
<stop offset="1" stop-color="#FFCC00"/>
</linearGradient>
<linearGradient id="paint12_linear_81_6100" x1="15.8691" y1="82.1436" x2="16.0074" y2="81.0529" gradientUnits="userSpaceOnUse">
<stop stop-color="#FE7634"/>
<stop offset="1" stop-color="#FFCC00"/>
</linearGradient>
<linearGradient id="paint13_linear_81_6100" x1="48.8719" y1="82.1385" x2="49.002" y2="81.0619" gradientUnits="userSpaceOnUse">
<stop stop-color="#FE7634"/>
<stop offset="1" stop-color="#FFCC00"/>
</linearGradient>
<linearGradient id="paint14_linear_81_6100" x1="47.6701" y1="82.1809" x2="47.872" y2="81.0675" gradientUnits="userSpaceOnUse">
<stop stop-color="#FE7634"/>
<stop offset="1" stop-color="#FFCC00"/>
</linearGradient>
<clipPath id="clip0_81_6100">
<rect width="226" height="93" fill="white"/>
</clipPath>
</defs>
</svg>
