<svg width="172" height="34" viewBox="0 0 172 34" fill="none" xmlns="http://www.w3.org/2000/svg">
<path d="M0.212358 26V0.545454H5.59411V21.5629H16.5067V26H0.212358ZM28.597 26.3729C26.6664 26.3729 24.9968 25.9627 23.5882 25.1424C22.1878 24.3138 21.1065 23.1621 20.3442 21.6871C19.5819 20.204 19.2007 18.4846 19.2007 16.5291C19.2007 14.5571 19.5819 12.8336 20.3442 11.3587C21.1065 9.87547 22.1878 8.72372 23.5882 7.90341C24.9968 7.07481 26.6664 6.66051 28.597 6.66051C30.5277 6.66051 32.1932 7.07481 33.5935 7.90341C35.0021 8.72372 36.0876 9.87547 36.8499 11.3587C37.6122 12.8336 37.9933 14.5571 37.9933 16.5291C37.9933 18.4846 37.6122 20.204 36.8499 21.6871C36.0876 23.1621 35.0021 24.3138 33.5935 25.1424C32.1932 25.9627 30.5277 26.3729 28.597 26.3729ZM28.6219 22.2713C29.5002 22.2713 30.2335 22.0227 30.8218 21.5256C31.4101 21.0201 31.8534 20.3324 32.1517 19.4624C32.4583 18.5923 32.6116 17.6022 32.6116 16.4918C32.6116 15.3815 32.4583 14.3913 32.1517 13.5213C31.8534 12.6513 31.4101 11.9635 30.8218 11.4581C30.2335 10.9527 29.5002 10.6999 28.6219 10.6999C27.7353 10.6999 26.9896 10.9527 26.3847 11.4581C25.7881 11.9635 25.3365 12.6513 25.0299 13.5213C24.7316 14.3913 24.5825 15.3815 24.5825 16.4918C24.5825 17.6022 24.7316 18.5923 25.0299 19.4624C25.3365 20.3324 25.7881 21.0201 26.3847 21.5256C26.9896 22.0227 27.7353 22.2713 28.6219 22.2713ZM50.037 33.5568C48.3218 33.5568 46.8511 33.3207 45.6247 32.8484C44.4067 32.3844 43.4372 31.7505 42.7164 30.9467C41.9955 30.143 41.5273 29.2398 41.3119 28.2372L46.2089 27.5785C46.358 27.9596 46.5942 28.3159 46.9173 28.6474C47.2405 28.9788 47.6672 29.244 48.1975 29.4428C48.7361 29.65 49.3907 29.7536 50.1613 29.7536C51.3131 29.7536 52.2618 29.4718 53.0075 28.9084C53.7616 28.3532 54.1386 27.421 54.1386 26.1119V22.6193H53.9149C53.6829 23.1496 53.3348 23.6509 52.8708 24.1232C52.4068 24.5955 51.8102 24.9808 51.0811 25.2791C50.3519 25.5774 49.4819 25.7266 48.471 25.7266C47.0375 25.7266 45.7325 25.3951 44.5558 24.7322C43.3875 24.0611 42.4553 23.0378 41.7593 21.6623C41.0716 20.2785 40.7277 18.5302 40.7277 16.4173C40.7277 14.2546 41.0799 12.4483 41.7842 10.9982C42.4885 9.54818 43.4248 8.46271 44.5931 7.74183C45.7697 7.02095 47.0582 6.66051 48.4585 6.66051C49.5274 6.66051 50.4223 6.8428 51.1432 7.20739C51.8641 7.56368 52.4441 8.01113 52.8833 8.54972C53.3307 9.08002 53.6746 9.60204 53.9149 10.1158H54.1137V6.90909H59.3712V26.1864C59.3712 27.8105 58.9735 29.1694 58.178 30.2631C57.3825 31.3569 56.2805 32.1772 54.8719 32.7241C53.4716 33.2792 51.8599 33.5568 50.037 33.5568ZM50.1489 21.7493C51.0023 21.7493 51.7232 21.538 52.3115 21.1154C52.9081 20.6845 53.3638 20.0714 53.6787 19.2759C54.0019 18.4722 54.1634 17.511 54.1634 16.3924C54.1634 15.2738 54.006 14.3043 53.6911 13.484C53.3763 12.6554 52.9205 12.0133 52.324 11.5575C51.7274 11.1018 51.0023 10.8739 50.1489 10.8739C49.2789 10.8739 48.5455 11.1101 47.949 11.5824C47.3524 12.0464 46.9008 12.6927 46.5942 13.5213C46.2876 14.3499 46.1343 15.3069 46.1343 16.3924C46.1343 17.4944 46.2876 18.4473 46.5942 19.2511C46.9091 20.0465 47.3606 20.6638 47.949 21.103C48.5455 21.5339 49.2789 21.7493 50.1489 21.7493ZM72.2103 26.3729C70.2797 26.3729 68.6101 25.9627 67.2014 25.1424C65.8011 24.3138 64.7198 23.1621 63.9575 21.6871C63.1952 20.204 62.814 18.4846 62.814 16.5291C62.814 14.5571 63.1952 12.8336 63.9575 11.3587C64.7198 9.87547 65.8011 8.72372 67.2014 7.90341C68.6101 7.07481 70.2797 6.66051 72.2103 6.66051C74.141 6.66051 75.8064 7.07481 77.2068 7.90341C78.6154 8.72372 79.7008 9.87547 80.4632 11.3587C81.2255 12.8336 81.6066 14.5571 81.6066 16.5291C81.6066 18.4846 81.2255 20.204 80.4632 21.6871C79.7008 23.1621 78.6154 24.3138 77.2068 25.1424C75.8064 25.9627 74.141 26.3729 72.2103 26.3729ZM72.2352 22.2713C73.1135 22.2713 73.8468 22.0227 74.4351 21.5256C75.0234 21.0201 75.4667 20.3324 75.765 19.4624C76.0716 18.5923 76.2249 17.6022 76.2249 16.4918C76.2249 15.3815 76.0716 14.3913 75.765 13.5213C75.4667 12.6513 75.0234 11.9635 74.4351 11.4581C73.8468 10.9527 73.1135 10.6999 72.2352 10.6999C71.3486 10.6999 70.6028 10.9527 69.998 11.4581C69.4014 11.9635 68.9498 12.6513 68.6432 13.5213C68.3449 14.3913 68.1958 15.3815 68.1958 16.4918C68.1958 17.6022 68.3449 18.5923 68.6432 19.4624C68.9498 20.3324 69.4014 21.0201 69.998 21.5256C70.6028 22.0227 71.3486 22.2713 72.2352 22.2713ZM93.2495 26V0.545454H98.6312V11.0479H109.556V0.545454H114.926V26H109.556V15.4851H98.6312V26H93.2495ZM127.964 26.3729C126 26.3729 124.309 25.9751 122.893 25.1797C121.484 24.3759 120.398 23.2408 119.636 21.7741C118.874 20.2992 118.493 18.555 118.493 16.5415C118.493 14.5778 118.874 12.8543 119.636 11.3711C120.398 9.8879 121.472 8.73201 122.855 7.90341C124.247 7.07481 125.88 6.66051 127.752 6.66051C129.012 6.66051 130.184 6.86352 131.27 7.26953C132.363 7.66726 133.316 8.26799 134.128 9.07173C134.949 9.87547 135.587 10.8864 136.042 12.1044C136.498 13.3142 136.726 14.7311 136.726 16.3551V17.8093H120.606V14.5281H131.742C131.742 13.7657 131.576 13.0904 131.245 12.5021C130.913 11.9138 130.454 11.454 129.865 11.1225C129.285 10.7828 128.61 10.6129 127.839 10.6129C127.036 10.6129 126.323 10.7994 125.702 11.1722C125.088 11.5368 124.608 12.0298 124.26 12.6513C123.912 13.2644 123.734 13.948 123.725 14.7021V17.8217C123.725 18.7663 123.899 19.5825 124.247 20.2702C124.604 20.958 125.105 21.4883 125.751 21.8612C126.398 22.234 127.164 22.4205 128.051 22.4205C128.639 22.4205 129.177 22.3376 129.666 22.1719C130.155 22.0062 130.574 21.7576 130.922 21.4261C131.27 21.0947 131.535 20.6887 131.717 20.2081L136.614 20.5312C136.366 21.7079 135.856 22.7353 135.085 23.6136C134.323 24.4837 133.337 25.1631 132.127 25.652C130.926 26.1326 129.538 26.3729 127.964 26.3729ZM140.181 26V6.90909H145.314V10.2401H145.513C145.861 9.05516 146.445 8.16027 147.266 7.5554C148.086 6.94223 149.031 6.63565 150.1 6.63565C150.365 6.63565 150.651 6.65222 150.957 6.68537C151.264 6.71851 151.533 6.76409 151.765 6.82209V11.5202C151.517 11.4457 151.173 11.3794 150.733 11.3214C150.294 11.2634 149.892 11.2344 149.528 11.2344C148.749 11.2344 148.053 11.4042 147.44 11.744C146.835 12.0754 146.354 12.5394 145.998 13.136C145.65 13.7326 145.476 14.4203 145.476 15.1992V26H140.181ZM162.314 26.3729C160.35 26.3729 158.66 25.9751 157.243 25.1797C155.835 24.3759 154.749 23.2408 153.987 21.7741C153.224 20.2992 152.843 18.555 152.843 16.5415C152.843 14.5778 153.224 12.8543 153.987 11.3711C154.749 9.8879 155.822 8.73201 157.206 7.90341C158.598 7.07481 160.23 6.66051 162.103 6.66051C163.362 6.66051 164.535 6.86352 165.62 7.26953C166.714 7.66726 167.667 8.26799 168.479 9.07173C169.299 9.87547 169.937 10.8864 170.393 12.1044C170.849 13.3142 171.077 14.7311 171.077 16.3551V17.8093H154.956V14.5281H166.093C166.093 13.7657 165.927 13.0904 165.595 12.5021C165.264 11.9138 164.804 11.454 164.216 11.1225C163.636 10.7828 162.96 10.6129 162.19 10.6129C161.386 10.6129 160.674 10.7994 160.052 11.1722C159.439 11.5368 158.958 12.0298 158.61 12.6513C158.262 13.2644 158.084 13.948 158.076 14.7021V17.8217C158.076 18.7663 158.25 19.5825 158.598 20.2702C158.954 20.958 159.456 21.4883 160.102 21.8612C160.748 22.234 161.515 22.4205 162.401 22.4205C162.989 22.4205 163.528 22.3376 164.017 22.1719C164.506 22.0062 164.924 21.7576 165.272 21.4261C165.62 21.0947 165.885 20.6887 166.068 20.2081L170.965 20.5312C170.716 21.7079 170.207 22.7353 169.436 23.6136C168.674 24.4837 167.688 25.1631 166.478 25.652C165.276 26.1326 163.889 26.3729 162.314 26.3729Z" fill="black"/>
</svg>
